<svg version="1.1" id="Layer_1" xmlns="http://www.w3.org/2000/svg" xmlns:xlink="http://www.w3.org/1999/xlink" x="0px" y="0px"
	 width="100%" viewBox="0 0 648 417" enable-background="new 0 0 648 417" xml:space="preserve">
<path fill="#99D9EA" opacity="1.000000" stroke="none" 
	d="
M372.000000,418.000000 
	C248.028961,418.000000 124.557930,418.000000 1.043449,418.000000 
	C1.043449,279.061584 1.043449,140.123138 1.043449,1.092352 
	C216.887741,1.092352 432.775543,1.092352 648.831665,1.092352 
	C648.831665,139.999847 648.831665,278.999908 648.831665,418.000000 
	C556.789734,418.000000 464.644867,418.000000 372.000000,418.000000 
M436.500000,251.158447 
	C355.677246,251.156631 274.854370,251.210571 194.031967,251.038254 
	C188.107285,251.025635 184.918289,252.488129 181.730530,258.092438 
	C155.303467,304.553040 128.328125,350.701782 101.531319,396.952209 
	C100.751923,398.297394 100.112839,399.723907 99.374001,401.180176 
	C251.430084,401.180176 402.899414,401.180176 554.512573,401.180176 
	C554.275513,400.391998 554.237427,400.040619 554.075928,399.760345 
	C526.082703,351.171204 498.102997,302.574219 469.970703,254.065704 
	C469.132874,252.621048 466.713470,251.338562 464.992554,251.287277 
	C455.835205,251.014404 446.665466,251.158661 436.500000,251.158447 
M580.892944,187.482224 
	C572.567810,205.626953 577.278320,220.603455 593.009644,233.486145 
	C578.674438,233.486145 565.355042,233.486145 551.794495,233.486145 
	C568.817383,217.582733 571.920593,198.346100 560.058044,183.523361 
	C548.907715,169.590698 527.491089,166.023483 512.852661,175.891037 
	C502.755035,182.697754 497.666290,192.315308 497.678253,204.607834 
	C497.690033,216.696472 503.428772,225.875519 513.009766,233.493530 
	C504.772247,233.493530 497.498260,233.493530 490.230621,233.493530 
	C489.931549,231.257645 489.675903,229.346573 489.363708,227.012878 
	C479.460266,227.012878 469.864594,227.012878 459.682617,227.012878 
	C459.682617,208.478165 459.682617,190.411560 459.682617,172.236618 
	C455.679718,172.236618 452.281158,172.236618 448.294556,172.236618 
	C448.294556,192.803452 448.294556,213.045792 448.294556,233.387466 
	C432.759644,233.387466 417.822876,233.387466 402.522400,233.387466 
	C413.805847,220.092087 410.068115,206.376312 394.085754,200.914398 
	C388.903778,199.143494 383.615295,197.686417 378.391632,196.034821 
	C374.261810,194.729080 371.824677,191.976440 372.365112,187.530304 
	C372.924561,182.928070 376.374573,181.381729 380.503876,180.920227 
	C387.900787,180.093491 394.611328,182.111801 401.033722,186.332153 
	C402.987152,183.558228 404.762817,181.036743 406.509521,178.556351 
	C397.826202,170.302673 380.293610,167.804764 370.328278,173.197067 
	C362.927765,177.201538 359.808441,183.429230 360.656982,191.799316 
	C361.471893,199.837158 366.429260,204.272797 373.458710,206.775970 
	C379.710815,209.002350 386.297607,210.385696 392.347595,213.031021 
	C394.507446,213.975388 396.783966,217.566879 396.713776,219.880463 
	C396.643097,222.207916 394.124725,225.778336 391.958649,226.437637 
	C388.029053,227.633713 383.318909,228.027145 379.385132,227.011047 
	C374.218414,225.676468 369.487579,222.654434 364.213440,220.191940 
	C362.341980,222.481720 360.189606,225.115219 357.935791,227.872833 
	C360.320587,229.827530 362.301331,231.451035 365.193146,233.821320 
	C360.668121,233.821320 357.248291,233.821335 353.828491,233.821335 
	C350.442841,233.821335 347.057220,233.821320 342.973053,233.821320 
	C343.976288,232.456345 344.349457,231.929901 344.741516,231.417938 
	C353.307312,220.232834 350.451721,208.088440 337.800903,202.205551 
	C335.706085,201.231445 333.446228,200.600143 331.239624,199.881134 
	C326.660339,198.389008 321.833344,197.409195 317.576355,195.281815 
	C315.482483,194.235428 313.447937,191.204102 313.203430,188.879852 
	C312.985413,186.807541 314.742645,183.663742 316.585907,182.463242 
	C318.748352,181.054871 322.074005,180.456528 324.667480,180.884949 
	C330.432251,181.837234 336.055084,183.648727 342.347412,185.267334 
	C343.600250,183.521759 345.402527,181.010696 347.384094,178.249786 
	C337.505371,170.852554 326.913025,168.703369 315.489716,171.568817 
	C306.591217,173.800919 301.817535,179.448410 301.088593,187.372162 
	C300.269714,196.274277 303.748199,202.047791 312.738831,206.180939 
	C315.437195,207.421432 318.386475,208.120132 321.228882,209.042130 
	C325.180664,210.323975 329.470337,211.015930 332.974548,213.059341 
	C335.139465,214.321762 337.367004,217.677902 337.271545,219.999786 
	C337.175079,222.347290 334.677032,225.809723 332.463928,226.580109 
	C328.894379,227.822662 324.444122,228.201797 320.821625,227.236069 
	C315.353180,225.778198 310.276917,222.849258 304.646454,220.375275 
	C302.910492,222.459320 300.815826,224.973953 298.500397,227.753586 
	C300.709869,229.670029 302.625092,231.331253 305.164520,233.533905 
	C299.586395,233.533905 294.880615,233.533905 290.043182,233.533905 
	C289.706451,231.375488 289.406860,229.455017 289.035400,227.073853 
	C277.114594,227.073853 265.360199,227.073853 253.352325,227.073853 
	C253.352325,221.166306 253.352325,215.759293 253.352325,209.711761 
	C263.823395,209.711761 274.057617,209.711761 284.563171,209.711761 
	C284.563171,206.176010 284.563171,203.280212 284.563171,199.769073 
	C274.060120,199.769073 263.824768,199.769073 253.502411,199.769073 
	C253.502411,193.615829 253.502411,188.085220 253.502411,182.165863 
	C265.203613,182.165863 276.493286,182.165863 287.971191,182.165863 
	C287.971191,178.572906 287.971191,175.383331 287.971191,172.260010 
	C272.478638,172.260010 257.402679,172.260010 241.849960,172.260010 
	C241.849960,192.859085 241.849960,213.105972 241.849960,233.449280 
	C235.639099,233.449280 229.915298,233.449280 223.686951,233.449280 
	C223.686951,212.821304 223.686951,192.562958 223.686951,172.264511 
	C219.772095,172.264511 216.380524,172.264511 212.389221,172.264511 
	C212.389221,187.971680 212.389221,203.336624 212.389221,219.933182 
	C210.399765,217.830002 209.211212,216.761688 208.243271,215.521210 
	C198.309021,202.789566 188.389603,190.046188 178.511383,177.271027 
	C173.963623,171.389587 170.975494,170.458389 162.772156,172.949326 
	C162.772156,193.017776 162.772156,213.251297 162.772156,233.450226 
	C151.998672,233.450226 141.758331,233.450226 131.420593,233.450226 
	C131.420593,216.178421 131.420593,199.281815 131.420593,181.782593 
	C138.133606,181.782593 144.521103,181.782593 150.785248,181.782593 
	C150.785248,178.236069 150.785248,175.298111 150.785248,172.229797 
	C133.757980,172.229797 117.031052,172.229797 100.283104,172.229797 
	C100.283104,175.613464 100.283104,178.664688 100.283104,182.273468 
	C107.045372,182.273468 113.444481,182.273468 119.566437,182.273468 
	C119.566437,199.746704 119.566437,216.647507 119.566437,233.494812 
	C108.886536,233.494812 98.629951,233.494812 87.883331,233.494812 
	C87.883331,212.920792 87.883331,192.669464 87.883331,172.239563 
	C83.996590,172.239563 80.612061,172.239563 76.674484,172.239563 
	C76.674484,192.805786 76.674484,213.044067 76.674484,233.514328 
	C61.219681,233.514328 46.323196,233.514328 31.327932,233.514328 
	C31.327932,225.814163 31.327932,218.428757 31.327932,210.610352 
	C40.984116,210.610352 50.264339,210.610352 59.807804,210.610352 
	C59.807804,207.086136 59.807804,203.999191 59.807804,200.290543 
	C50.260067,200.290543 40.859566,200.290543 31.333195,200.290543 
	C31.333195,193.961655 31.333195,188.257370 31.333195,181.940948 
	C42.264812,181.940948 52.819759,181.940948 63.579437,181.940948 
	C63.579437,178.390457 63.579437,175.460114 63.579437,172.252731 
	C48.976414,172.252731 34.604122,172.252731 19.670635,172.252731 
	C19.670635,192.822021 19.670635,213.061203 19.670635,233.832993 
	C17.154985,233.832993 15.170680,233.650436 13.249094,233.918106 
	C12.419513,234.033691 11.719594,235.080063 10.960772,235.703598 
	C11.718068,236.359802 12.379898,237.268600 13.259553,237.601044 
	C14.136726,237.932541 15.232262,237.692307 16.232061,237.692352 
	C66.893555,237.694946 117.555046,237.696457 168.216537,237.698029 
	C170.006058,237.698090 171.795593,237.698029 174.384506,237.698029 
	C174.384506,221.877838 174.384506,206.624893 174.384506,191.371948 
	C186.261292,205.114929 197.166885,218.956802 207.787384,233.014069 
	C210.343567,236.397461 212.949020,237.796417 217.298141,237.792496 
	C357.117065,237.666672 496.936157,237.688995 636.755188,237.687744 
	C638.088257,237.687729 639.543396,237.999176 640.718201,237.563324 
	C641.772705,237.172104 642.519165,235.950500 643.401550,235.095200 
	C643.149048,234.644897 642.896545,234.194595 642.644043,233.744293 
	C638.803528,233.744293 634.963013,233.744293 631.201538,233.744293 
	C633.617065,231.010132 637.261658,228.781662 637.602234,226.128967 
	C638.480042,219.292465 637.896057,212.268280 637.896057,205.189224 
	C633.971741,205.189224 630.591736,205.189224 626.820007,205.189224 
	C626.820007,210.187866 627.006531,214.838913 626.714844,219.459824 
	C626.617859,220.995743 625.677185,223.217850 624.468262,223.825760 
	C615.708435,228.230331 602.185425,229.078934 593.899292,218.991287 
	C587.448364,211.137833 586.886719,202.122406 590.986633,193.223618 
	C595.270325,183.926239 603.840759,180.795853 613.353271,181.390594 
	C618.762329,181.728806 624.044312,184.098785 629.921021,185.700256 
	C631.244690,183.724457 632.954407,181.172470 634.611328,178.699341 
	C622.537170,166.606201 592.942688,166.323959 580.892944,187.482224 
M387.500000,156.842041 
	C396.016693,156.842041 404.533417,156.842041 413.831818,156.842041 
	C384.665283,106.251976 356.058014,56.631958 327.030182,6.282452 
	C297.829315,56.919010 269.203552,106.558334 240.206238,156.841965 
	C289.600464,156.841965 338.050232,156.841965 387.500000,156.842041 
z"/>
<path fill="#0426FF" opacity="1.000000" stroke="none" 
	d="
M437.000000,251.158493 
	C446.665466,251.158661 455.835205,251.014404 464.992554,251.287277 
	C466.713470,251.338562 469.132874,252.621048 469.970703,254.065704 
	C498.102997,302.574219 526.082703,351.171204 554.075928,399.760345 
	C554.237427,400.040619 554.275513,400.391998 554.512573,401.180176 
	C402.899414,401.180176 251.430084,401.180176 99.374001,401.180176 
	C100.112839,399.723907 100.751923,398.297394 101.531319,396.952209 
	C128.328125,350.701782 155.303467,304.553040 181.730530,258.092438 
	C184.918289,252.488129 188.107285,251.025635 194.031967,251.038254 
	C274.854370,251.210571 355.677246,251.156631 437.000000,251.158493 
z"/>
<path fill="#072AFE" opacity="1.000000" stroke="none" 
	d="
M581.067261,187.157654 
	C592.942688,166.323959 622.537170,166.606201 634.611328,178.699341 
	C632.954407,181.172470 631.244690,183.724457 629.921021,185.700256 
	C624.044312,184.098785 618.762329,181.728806 613.353271,181.390594 
	C603.840759,180.795853 595.270325,183.926239 590.986633,193.223618 
	C586.886719,202.122406 587.448364,211.137833 593.899292,218.991287 
	C602.185425,229.078934 615.708435,228.230331 624.468262,223.825760 
	C625.677185,223.217850 626.617859,220.995743 626.714844,219.459824 
	C627.006531,214.838913 626.820007,210.187866 626.820007,205.189224 
	C630.591736,205.189224 633.971741,205.189224 637.896057,205.189224 
	C637.896057,212.268280 638.480042,219.292465 637.602234,226.128967 
	C637.261658,228.781662 633.617065,231.010132 631.201538,233.744293 
	C634.963013,233.744293 638.803528,233.744293 642.644043,233.744293 
	C642.896545,234.194595 643.149048,234.644897 643.401550,235.095200 
	C642.519165,235.950500 641.772705,237.172104 640.718201,237.563324 
	C639.543396,237.999176 638.088257,237.687729 636.755188,237.687744 
	C496.936157,237.688995 357.117065,237.666672 217.298141,237.792496 
	C212.949020,237.796417 210.343567,236.397461 207.787384,233.014069 
	C197.166885,218.956802 186.261292,205.114929 174.384506,191.371948 
	C174.384506,206.624893 174.384506,221.877838 174.384506,237.698029 
	C171.795593,237.698029 170.006058,237.698090 168.216537,237.698029 
	C117.555046,237.696457 66.893555,237.694946 16.232061,237.692352 
	C15.232262,237.692307 14.136726,237.932541 13.259553,237.601044 
	C12.379898,237.268600 11.718068,236.359802 10.960773,235.703598 
	C11.719594,235.080063 12.419513,234.033691 13.249094,233.918106 
	C15.170680,233.650436 17.154985,233.832993 19.670635,233.832993 
	C19.670635,213.061203 19.670635,192.822021 19.670635,172.252731 
	C34.604122,172.252731 48.976414,172.252731 63.579437,172.252731 
	C63.579437,175.460114 63.579437,178.390457 63.579437,181.940948 
	C52.819759,181.940948 42.264812,181.940948 31.333195,181.940948 
	C31.333195,188.257370 31.333195,193.961655 31.333195,200.290543 
	C40.859566,200.290543 50.260067,200.290543 59.807804,200.290543 
	C59.807804,203.999191 59.807804,207.086136 59.807804,210.610352 
	C50.264339,210.610352 40.984116,210.610352 31.327932,210.610352 
	C31.327932,218.428757 31.327932,225.814163 31.327932,233.514328 
	C46.323196,233.514328 61.219681,233.514328 76.674484,233.514328 
	C76.674484,213.044067 76.674484,192.805786 76.674484,172.239563 
	C80.612061,172.239563 83.996590,172.239563 87.883331,172.239563 
	C87.883331,192.669464 87.883331,212.920792 87.883331,233.494812 
	C98.629951,233.494812 108.886536,233.494812 119.566437,233.494812 
	C119.566437,216.647507 119.566437,199.746704 119.566437,182.273468 
	C113.444481,182.273468 107.045372,182.273468 100.283104,182.273468 
	C100.283104,178.664688 100.283104,175.613464 100.283104,172.229797 
	C117.031052,172.229797 133.757980,172.229797 150.785248,172.229797 
	C150.785248,175.298111 150.785248,178.236069 150.785248,181.782593 
	C144.521103,181.782593 138.133606,181.782593 131.420593,181.782593 
	C131.420593,199.281815 131.420593,216.178421 131.420593,233.450226 
	C141.758331,233.450226 151.998672,233.450226 162.772156,233.450226 
	C162.772156,213.251297 162.772156,193.017776 162.772156,172.949326 
	C170.975494,170.458389 173.963623,171.389587 178.511383,177.271027 
	C188.389603,190.046188 198.309021,202.789566 208.243271,215.521210 
	C209.211212,216.761688 210.399765,217.830002 212.389221,219.933182 
	C212.389221,203.336624 212.389221,187.971680 212.389221,172.264511 
	C216.380524,172.264511 219.772095,172.264511 223.686951,172.264511 
	C223.686951,192.562958 223.686951,212.821304 223.686951,233.449280 
	C229.915298,233.449280 235.639099,233.449280 241.849960,233.449280 
	C241.849960,213.105972 241.849960,192.859085 241.849960,172.260010 
	C257.402679,172.260010 272.478638,172.260010 287.971191,172.260010 
	C287.971191,175.383331 287.971191,178.572906 287.971191,182.165863 
	C276.493286,182.165863 265.203613,182.165863 253.502411,182.165863 
	C253.502411,188.085220 253.502411,193.615829 253.502411,199.769073 
	C263.824768,199.769073 274.060120,199.769073 284.563171,199.769073 
	C284.563171,203.280212 284.563171,206.176010 284.563171,209.711761 
	C274.057617,209.711761 263.823395,209.711761 253.352325,209.711761 
	C253.352325,215.759293 253.352325,221.166306 253.352325,227.073853 
	C265.360199,227.073853 277.114594,227.073853 289.035400,227.073853 
	C289.406860,229.455017 289.706451,231.375488 290.043182,233.533905 
	C294.880615,233.533905 299.586395,233.533905 305.164520,233.533905 
	C302.625092,231.331253 300.709869,229.670029 298.500397,227.753586 
	C300.815826,224.973953 302.910492,222.459320 304.646454,220.375275 
	C310.276917,222.849258 315.353180,225.778198 320.821625,227.236069 
	C324.444122,228.201797 328.894379,227.822662 332.463928,226.580109 
	C334.677032,225.809723 337.175079,222.347290 337.271545,219.999786 
	C337.367004,217.677902 335.139465,214.321762 332.974548,213.059341 
	C329.470337,211.015930 325.180664,210.323975 321.228882,209.042130 
	C318.386475,208.120132 315.437195,207.421432 312.738831,206.180939 
	C303.748199,202.047791 300.269714,196.274277 301.088593,187.372162 
	C301.817535,179.448410 306.591217,173.800919 315.489716,171.568817 
	C326.913025,168.703369 337.505371,170.852554 347.384094,178.249786 
	C345.402527,181.010696 343.600250,183.521759 342.347412,185.267334 
	C336.055084,183.648727 330.432251,181.837234 324.667480,180.884949 
	C322.074005,180.456528 318.748352,181.054871 316.585907,182.463242 
	C314.742645,183.663742 312.985413,186.807541 313.203430,188.879852 
	C313.447937,191.204102 315.482483,194.235428 317.576355,195.281815 
	C321.833344,197.409195 326.660339,198.389008 331.239624,199.881134 
	C333.446228,200.600143 335.706085,201.231445 337.800903,202.205551 
	C350.451721,208.088440 353.307312,220.232834 344.741516,231.417938 
	C344.349457,231.929901 343.976288,232.456345 342.973053,233.821320 
	C347.057220,233.821320 350.442841,233.821335 353.828491,233.821335 
	C357.248291,233.821335 360.668121,233.821320 365.193146,233.821320 
	C362.301331,231.451035 360.320587,229.827530 357.935791,227.872833 
	C360.189606,225.115219 362.341980,222.481720 364.213440,220.191940 
	C369.487579,222.654434 374.218414,225.676468 379.385132,227.011047 
	C383.318909,228.027145 388.029053,227.633713 391.958649,226.437637 
	C394.124725,225.778336 396.643097,222.207916 396.713776,219.880463 
	C396.783966,217.566879 394.507446,213.975388 392.347595,213.031021 
	C386.297607,210.385696 379.710815,209.002350 373.458710,206.775970 
	C366.429260,204.272797 361.471893,199.837158 360.656982,191.799316 
	C359.808441,183.429230 362.927765,177.201538 370.328278,173.197067 
	C380.293610,167.804764 397.826202,170.302673 406.509521,178.556351 
	C404.762817,181.036743 402.987152,183.558228 401.033722,186.332153 
	C394.611328,182.111801 387.900787,180.093491 380.503876,180.920227 
	C376.374573,181.381729 372.924561,182.928070 372.365112,187.530304 
	C371.824677,191.976440 374.261810,194.729080 378.391632,196.034821 
	C383.615295,197.686417 388.903778,199.143494 394.085754,200.914398 
	C410.068115,206.376312 413.805847,220.092087 402.522400,233.387466 
	C417.822876,233.387466 432.759644,233.387466 448.294556,233.387466 
	C448.294556,213.045792 448.294556,192.803452 448.294556,172.236618 
	C452.281158,172.236618 455.679718,172.236618 459.682617,172.236618 
	C459.682617,190.411560 459.682617,208.478165 459.682617,227.012878 
	C469.864594,227.012878 479.460266,227.012878 489.363708,227.012878 
	C489.675903,229.346573 489.931549,231.257645 490.230621,233.493530 
	C497.498260,233.493530 504.772247,233.493530 513.009766,233.493530 
	C503.428772,225.875519 497.690033,216.696472 497.678253,204.607834 
	C497.666290,192.315308 502.755035,182.697754 512.852661,175.891037 
	C527.491089,166.023483 548.907715,169.590698 560.058044,183.523361 
	C571.920593,198.346100 568.817383,217.582733 551.794495,233.486145 
	C565.355042,233.486145 578.674438,233.486145 593.009644,233.486145 
	C577.278320,220.603455 572.567810,205.626953 581.067261,187.157654 
M520.007080,224.712265 
	C521.990417,225.553528 523.919250,226.570312 525.966370,227.206299 
	C535.951782,230.308487 546.744873,226.009720 552.158142,216.877060 
	C557.763977,207.419693 556.157043,194.383865 548.474731,186.996841 
	C540.842712,179.658127 528.684570,178.297867 519.987671,184.051208 
	C505.645203,193.539444 505.344543,214.178772 520.007080,224.712265 
z"/>
<path fill="#0426FE" opacity="1.000000" stroke="none" 
	d="
M387.000000,156.842010 
	C338.050232,156.841965 289.600464,156.841965 240.206238,156.841965 
	C269.203552,106.558334 297.829315,56.919010 327.030182,6.282452 
	C356.058014,56.631958 384.665283,106.251976 413.831818,156.842041 
	C404.533417,156.842041 396.016693,156.842041 387.000000,156.842010 
z"/>
<path fill="#97D7EA" opacity="1.000000" stroke="none" 
	d="
M519.700684,224.503845 
	C505.344543,214.178772 505.645203,193.539444 519.987671,184.051208 
	C528.684570,178.297867 540.842712,179.658127 548.474731,186.996841 
	C556.157043,194.383865 557.763977,207.419693 552.158142,216.877060 
	C546.744873,226.009720 535.951782,230.308487 525.966370,227.206299 
	C523.919250,226.570312 521.990417,225.553528 519.700684,224.503845 
z"/>
</svg>