<svg version="1.1" id="Layer_1" xmlns="http://www.w3.org/2000/svg" xmlns:xlink="http://www.w3.org/1999/xlink" x="0px" y="0px"
	 width="100%" viewBox="0 0 830 711" enable-background="new 0 0 830 711" xml:space="preserve">
<path fill="#99D9EA" opacity="1.000000" stroke="none" 
	d="
M791.000000,712.000000 
	C527.714294,712.000000 264.428619,712.000000 1.071456,712.000000 
	C1.071456,475.090515 1.071456,238.181030 1.071456,1.000000 
	C267.027985,1.000000 533.056030,1.000000 799.541992,1.468657 
	C799.668335,19.236237 799.372803,36.535954 798.992859,53.833817 
	C798.722717,66.134476 798.345093,78.432823 798.004150,90.731888 
	C797.340820,114.663940 796.485962,138.592407 796.048828,162.528549 
	C795.516846,191.656769 795.339294,220.791443 794.998474,249.923203 
	C794.673340,277.721832 794.456848,305.522491 793.969543,333.318329 
	C793.450684,362.919250 792.576355,392.513824 792.032104,422.114380 
	C791.560852,447.743866 791.094055,473.377380 791.046082,499.009918 
	C790.913208,570.006348 791.000000,641.003296 791.000000,712.000000 
M679.922852,589.477844 
	C678.384399,586.731262 676.876343,583.967041 675.302673,581.240723 
	C659.605225,554.046509 643.860413,526.879639 628.202637,499.662598 
	C614.338501,475.563354 600.632263,451.373077 586.678345,427.326202 
	C584.831238,424.143066 582.077820,421.430176 579.487976,418.746674 
	C575.483276,414.597046 570.338074,416.792816 565.682739,416.785461 
	C516.876892,416.708130 468.070831,416.737793 419.264832,416.738007 
	C366.960785,416.738251 314.656250,416.854187 262.353271,416.618408 
	C254.215576,416.581726 248.765289,419.386688 245.020767,426.536438 
	C241.637527,432.996338 237.701904,439.165771 234.045959,445.484192 
	C224.941666,461.218811 215.841980,476.956146 206.770386,492.709656 
	C197.420273,508.946838 188.094421,525.197998 178.778503,541.454834 
	C169.467682,557.702759 160.182312,573.965210 150.457504,590.742615 
	C152.157455,591.161743 153.857285,591.947388 155.557373,591.947937 
	C328.913574,592.003601 502.269775,592.000122 675.625977,591.996643 
	C676.956848,591.996643 678.300720,592.035645 679.607117,591.843201 
	C679.854492,591.806763 679.953003,590.760193 679.922852,589.477844 
M166.503830,324.000092 
	C161.412430,324.000092 156.321030,324.000092 151.330109,324.000092 
	C151.330109,328.406647 151.330109,331.996002 151.330109,336.213959 
	C158.695847,336.213959 165.751419,336.213959 172.651627,336.213959 
	C172.651627,356.444061 172.651627,376.031189 172.651627,395.730042 
	C160.715195,395.730042 149.128632,395.730042 136.905548,395.730042 
	C136.905548,371.757751 136.905548,348.046356 136.905548,324.289062 
	C132.008789,324.289062 127.753433,324.289062 122.866005,324.289062 
	C122.866005,348.280609 122.866005,371.991211 122.866005,395.692322 
	C105.304924,395.692322 88.384956,395.692322 71.406219,395.692322 
	C71.406219,387.006104 71.406219,378.633331 71.406219,369.808716 
	C82.401169,369.808716 92.995293,369.808716 103.572823,369.808716 
	C103.572823,365.299103 103.572823,361.260406 103.572823,356.769348 
	C92.557823,356.769348 81.965775,356.769348 71.269608,356.769348 
	C71.269608,349.715088 71.269608,343.128632 71.269608,335.906586 
	C83.575905,335.906586 95.626022,335.906586 107.711395,335.906586 
	C107.711395,331.675629 107.711395,328.085968 107.711395,324.387634 
	C90.715553,324.387634 74.010727,324.387634 56.864300,324.387634 
	C56.864300,348.371155 56.864300,371.970673 56.864300,395.274292 
	C53.309704,396.046082 50.238056,396.713013 47.166405,397.379944 
	C48.233578,399.586670 49.144459,400.829407 50.057156,400.830750 
	C112.292625,400.921906 174.528244,400.913391 237.386963,400.913391 
	C237.386963,382.502747 237.386963,364.845490 237.386963,345.744446 
	C239.876251,348.598450 241.454086,350.250244 242.856216,352.039764 
	C254.398499,366.770935 265.923645,381.515656 277.415833,396.285919 
	C280.018463,399.630920 283.108551,401.113037 287.558777,401.094940 
	C327.554840,400.932190 367.551880,400.999908 407.548615,400.999908 
	C530.205261,400.999908 652.861938,401.008881 775.518555,400.942505 
	C778.293091,400.941010 781.067017,400.084137 783.841248,399.626251 
	C783.844238,398.875763 783.847290,398.125244 783.850281,397.374756 
	C779.863708,396.711609 775.877136,396.048431 771.823303,395.374084 
	C773.906616,392.756531 777.412048,390.357452 777.675781,387.643341 
	C778.455627,379.618835 777.954651,371.469879 777.954651,363.268616 
	C773.382812,363.268616 769.461487,363.268616 764.997742,363.268616 
	C764.997742,368.475769 764.983398,373.429962 765.002502,378.384033 
	C765.016663,382.045319 763.790100,385.523407 760.071533,386.080688 
	C753.591309,387.051880 746.650391,388.562744 740.473206,387.220825 
	C725.746582,384.021637 718.233948,371.176636 721.247314,355.007019 
	C723.521179,342.805176 733.126831,335.357391 747.446228,335.315430 
	C754.224915,335.295532 761.012146,338.153595 768.686096,339.911835 
	C768.893066,339.625366 769.969971,338.184692 770.991577,336.705811 
	C771.996033,335.251831 772.944336,333.759064 773.864990,332.362549 
	C761.817871,320.027344 736.160400,317.677673 719.085571,332.643799 
	C712.203735,338.675690 708.165344,347.014069 707.130432,356.111847 
	C705.278870,372.388092 712.157349,385.212982 726.141235,396.000092 
	C716.805176,396.000092 709.202576,396.000061 701.600037,396.000061 
	C694.033569,396.000061 686.467041,396.000092 677.836121,396.000092 
	C686.794006,385.833466 693.927429,375.865082 695.007874,363.003021 
	C696.130371,349.639954 690.764099,338.610687 680.315125,330.979370 
	C662.363892,317.868866 642.026001,319.261322 626.240723,333.696442 
	C612.933411,345.865570 606.418762,374.113983 631.443848,395.731506 
	C622.600586,395.731506 614.068054,395.731506 605.313782,395.731506 
	C605.084290,393.106354 604.875183,390.714874 604.629395,387.903473 
	C593.026428,387.903473 581.766541,387.903473 569.882812,387.903473 
	C569.882812,366.404999 569.882812,345.359314 569.882812,324.298645 
	C565.320129,324.298645 561.398560,324.298645 556.846924,324.298645 
	C556.846924,348.300262 556.846924,372.010193 556.846924,395.683899 
	C538.980469,395.683899 521.755188,395.683899 504.660553,395.683899 
	C506.810425,390.651550 509.518768,386.012390 510.767761,381.008942 
	C512.899170,372.470245 506.583191,363.057098 496.476501,359.232361 
	C489.821411,356.713776 482.892792,354.925873 476.124847,352.694977 
	C470.973328,350.996857 467.780884,346.949829 468.271088,343.047455 
	C468.882111,338.183624 471.956055,335.617615 477.946533,334.826080 
	C486.589783,333.683990 494.316833,336.166046 501.760742,340.882507 
	C503.909271,337.716614 506.011658,334.618683 508.237244,331.339233 
	C497.485382,323.701233 486.148712,320.677887 473.637543,323.189697 
	C464.843689,324.955231 457.445801,329.157471 455.321228,338.547546 
	C453.392029,347.074158 454.542938,355.417236 462.480377,360.814789 
	C466.095001,363.272797 470.497314,364.649841 474.657867,366.208832 
	C480.405273,368.362457 486.374237,369.955444 492.029083,372.314087 
	C495.364166,373.705139 497.618652,376.545258 497.311981,380.599762 
	C497.000793,384.713226 494.216187,387.388245 490.688568,387.678589 
	C484.874481,388.157166 478.805969,388.215454 473.140594,387.033142 
	C468.103241,385.981903 463.467499,383.006256 458.617157,380.863495 
	C456.231201,383.762695 454.044861,386.419373 451.733612,389.227783 
	C454.105743,391.388519 456.227936,393.321594 458.834290,395.695709 
	C450.478394,395.695709 442.959717,395.695709 434.867981,395.695709 
	C436.184998,393.580902 437.359619,392.011200 438.204529,390.280518 
	C441.072357,384.406219 443.257965,378.561401 440.380737,371.823700 
	C437.134460,364.221832 430.855438,360.579102 423.717560,357.937836 
	C417.653137,355.693787 411.319122,354.136139 405.361145,351.657593 
	C398.680389,348.878418 397.571808,341.960449 403.240112,337.555725 
	C405.664764,335.671600 409.520813,334.691254 412.640869,334.862305 
	C417.202179,335.112366 421.710999,336.674622 426.197998,337.846741 
	C434.063507,339.901459 435.284454,339.302795 438.529999,331.235291 
	C425.487701,322.038818 411.604584,318.858612 396.629639,326.020966 
	C393.515808,327.510254 390.312164,330.016266 388.543457,332.906494 
	C380.559570,345.953003 385.996429,359.623138 401.028046,364.949707 
	C406.786896,366.990417 412.760895,368.419983 418.537201,370.416382 
	C424.373444,372.433533 427.917877,377.098114 427.148743,381.141449 
	C426.231140,385.965332 421.886078,388.616455 415.383392,389.061707 
	C408.206604,389.553131 402.052460,386.819427 395.917389,383.790222 
	C388.796906,380.274414 388.807434,380.253113 384.215332,386.985016 
	C383.760773,387.651398 383.305847,388.317596 382.237244,389.883209 
	C384.635162,391.611847 386.998199,393.315338 390.260956,395.667419 
	C382.849884,395.667419 377.100311,395.667419 371.224854,395.667419 
	C371.061310,393.408234 370.920929,391.469360 370.736542,388.922424 
	C357.130920,388.922424 343.742645,388.922424 330.276611,388.922424 
	C330.276611,381.700775 330.276611,375.114227 330.276611,367.894043 
	C342.257141,367.894043 353.976166,367.894043 365.706116,367.894043 
	C365.706116,363.996857 365.706116,360.740051 365.706116,356.853699 
	C353.708191,356.853699 341.992767,356.853699 330.314880,356.853699 
	C330.314880,349.622070 330.314880,343.035095 330.314880,335.816925 
	C343.669373,335.816925 356.720062,335.816925 369.665802,335.816925 
	C369.665802,331.580719 369.665802,327.990021 369.665802,324.432526 
	C351.623413,324.432526 333.918549,324.432526 315.757080,324.432526 
	C315.757080,348.451721 315.757080,372.041199 315.757080,395.725159 
	C308.704956,395.725159 302.118256,395.725159 294.896362,395.725159 
	C294.896362,371.747559 294.896362,348.035736 294.896362,324.293304 
	C290.332886,324.293304 286.410645,324.293304 281.982697,324.293304 
	C281.982697,342.785370 281.982697,360.993439 281.982697,380.223694 
	C279.747345,377.968597 278.107819,376.604675 276.819031,374.965057 
	C270.560425,367.002899 264.498413,358.884674 258.169647,350.979584 
	C251.532761,342.689606 244.714584,334.543152 237.890854,326.405090 
	C234.497955,322.358704 230.009583,323.753082 225.920914,324.665039 
	C221.740173,325.597473 223.047516,329.335632 223.036774,332.114929 
	C222.965958,350.446503 223.000183,368.778442 223.000168,387.110291 
	C223.000168,389.562500 223.000168,392.014709 223.000168,394.630615 
	C211.084030,394.630615 199.712677,394.630615 188.290207,394.630615 
	C188.290207,375.006897 188.290207,355.753998 188.290207,335.865295 
	C195.617569,335.865295 202.675964,335.865295 209.690277,335.865295 
	C209.690277,331.632874 209.690277,328.042206 209.690277,324.000092 
	C195.424484,324.000092 181.463318,324.000092 166.503830,324.000092 
M411.500000,306.093292 
	C446.170166,306.093292 480.840302,306.093292 516.294861,306.093292 
	C482.404663,247.307007 449.090668,189.520187 415.442535,131.153824 
	C381.683594,189.695862 348.348358,247.503189 314.561646,306.093353 
	C347.275177,306.093353 378.887573,306.093353 411.500000,306.093292 
M237.899246,281.379395 
	C242.250259,269.532471 246.654770,257.704712 250.910507,245.823685 
	C251.844955,243.214890 252.727142,241.587708 255.979034,240.759109 
	C277.075073,235.383636 298.073639,229.621674 319.058472,223.821182 
	C320.855164,223.324585 322.319824,221.626907 323.938721,220.487167 
	C322.311279,219.355087 320.836639,217.686493 319.033081,217.172867 
	C298.090179,211.208786 277.069763,205.514847 256.162323,199.431610 
	C254.122589,198.838135 251.897797,196.431671 251.114258,194.355301 
	C244.519699,176.879623 238.287003,159.267670 231.784088,141.756638 
	C231.244186,140.302780 229.520279,139.288620 228.346512,138.070175 
	C227.449326,139.285400 226.217514,140.374695 225.705643,141.734924 
	C219.067749,159.373993 212.462250,177.026245 206.045197,194.746353 
	C205.068085,197.444504 203.880646,198.835373 200.968201,199.623123 
	C179.790817,205.351089 158.669205,211.287491 137.571304,217.302994 
	C135.910446,217.776535 134.562592,219.347839 133.069260,220.408966 
	C134.507050,221.505554 135.789215,223.167023 137.406357,223.612473 
	C156.347076,228.829895 175.214966,234.417679 194.374573,238.683868 
	C202.389481,240.468521 206.087372,244.196854 208.502090,251.662582 
	C213.592712,267.401642 219.540680,282.865265 225.272217,298.391937 
	C225.776474,299.757965 227.275604,300.756714 228.312622,301.926025 
	C229.492340,300.719604 231.188034,299.717041 231.759613,298.270325 
	C233.864944,292.941345 235.597885,287.465210 237.899246,281.379395 
z"/>
<path fill="#96D5E6" opacity="1.000000" stroke="none" 
	d="
M791.454102,712.000000 
	C791.000000,641.003296 790.913208,570.006348 791.046082,499.009918 
	C791.094055,473.377380 791.560852,447.743866 792.032104,422.114380 
	C792.576355,392.513824 793.450684,362.919250 793.969543,333.318329 
	C794.456848,305.522491 794.673340,277.721832 794.998474,249.923203 
	C795.339294,220.791443 795.516846,191.656769 796.048828,162.528549 
	C796.485962,138.592407 797.340820,114.663940 798.004150,90.731888 
	C798.345093,78.432823 798.722717,66.134476 798.992859,53.833817 
	C799.372803,36.535954 799.668335,19.236237 800.000000,1.468657 
	C803.692932,1.000000 807.385803,1.000000 811.539429,1.468138 
	C811.671326,8.732698 811.297241,15.527287 811.022766,22.325897 
	C810.325928,39.583107 809.539978,56.838257 809.041138,74.101494 
	C808.536804,91.554977 808.338623,109.017273 807.999146,126.475563 
	C807.672546,143.267700 807.320129,160.059357 807.009338,176.851776 
	C806.655396,195.975708 806.326233,215.100113 806.001953,234.224579 
	C805.330627,273.805756 804.675598,313.387177 804.001953,352.968323 
	C803.682129,371.759674 803.312317,390.550171 803.006226,409.341736 
	C802.648560,431.297638 802.288574,453.253693 802.014648,475.210724 
	C801.634888,505.662506 801.145203,536.114685 801.043274,566.567749 
	C800.881104,615.044678 801.000000,663.522522 801.000000,712.000000 
	C797.969421,712.000000 794.938782,712.000000 791.454102,712.000000 
z"/>
<path fill="#94D2E2" opacity="1.000000" stroke="none" 
	d="
M801.416626,712.000000 
	C801.000000,663.522522 800.881104,615.044678 801.043274,566.567749 
	C801.145203,536.114685 801.634888,505.662506 802.014648,475.210724 
	C802.288574,453.253693 802.648560,431.297638 803.006226,409.341736 
	C803.312317,390.550171 803.682129,371.759674 804.001953,352.968323 
	C804.675598,313.387177 805.330627,273.805756 806.001953,234.224579 
	C806.326233,215.100113 806.655396,195.975708 807.009338,176.851776 
	C807.320129,160.059357 807.672546,143.267700 807.999146,126.475563 
	C808.338623,109.017273 808.536804,91.554977 809.041138,74.101494 
	C809.539978,56.838257 810.325928,39.583107 811.022766,22.325897 
	C811.297241,15.527287 811.671326,8.732698 812.000000,1.468138 
	C813.066711,1.000000 814.133362,1.000000 815.600037,1.468377 
	C815.667603,9.400643 815.216248,16.861469 815.023926,24.328968 
	C814.304626,52.251564 813.649109,80.175865 813.009583,108.100441 
	C812.316711,138.356400 811.647766,168.612946 811.008728,198.870087 
	C810.632996,216.663239 810.346008,234.458267 810.000183,252.252075 
	C809.680298,268.713501 809.280396,285.173584 809.014343,301.635834 
	C808.629822,325.427124 808.337524,349.219910 807.999695,373.011963 
	C807.671387,396.137695 807.265869,419.262573 807.018433,442.389160 
	C806.624695,479.176422 806.273071,515.964417 806.052917,552.752991 
	C806.010193,559.881592 806.925049,567.014954 806.905273,574.144836 
	C806.881775,582.609558 806.067566,591.071960 806.044434,599.536682 
	C805.941772,637.024170 806.000000,674.512207 806.000000,712.000000 
	C804.611084,712.000000 803.222229,712.000000 801.416626,712.000000 
z"/>
<path fill="#92CFDF" opacity="1.000000" stroke="none" 
	d="
M806.333313,712.000000 
	C806.000000,674.512207 805.941772,637.024170 806.044434,599.536682 
	C806.067566,591.071960 806.881775,582.609558 806.905273,574.144836 
	C806.925049,567.014954 806.010193,559.881592 806.052917,552.752991 
	C806.273071,515.964417 806.624695,479.176422 807.018433,442.389160 
	C807.265869,419.262573 807.671387,396.137695 807.999695,373.011963 
	C808.337524,349.219910 808.629822,325.427124 809.014343,301.635834 
	C809.280396,285.173584 809.680298,268.713501 810.000183,252.252075 
	C810.346008,234.458267 810.632996,216.663239 811.008728,198.870087 
	C811.647766,168.612946 812.316711,138.356400 813.009583,108.100441 
	C813.649109,80.175865 814.304626,52.251564 815.023926,24.328968 
	C815.216248,16.861469 815.667603,9.400643 816.000000,1.468377 
	C816.444458,1.000000 816.888916,1.000000 817.666687,1.468657 
	C817.666626,21.225107 817.352356,40.513256 816.994080,59.800583 
	C816.691467,76.091057 816.326416,92.380363 816.009827,108.670586 
	C815.660828,126.625908 815.342712,144.581833 814.998108,162.537231 
	C814.675842,179.327057 814.361267,196.117081 813.999207,212.906067 
	C813.350464,242.987885 812.603394,273.067719 812.021912,303.150787 
	C811.581482,325.934662 811.293091,348.721832 811.012207,371.508453 
	C810.636719,401.955933 810.348816,432.404541 809.995544,462.852295 
	C809.684631,489.636108 809.330139,516.419434 809.005005,543.203064 
	C808.663696,571.319092 808.203796,599.434448 808.036743,627.551575 
	C807.869446,655.700073 808.000000,683.850464 808.000000,712.000000 
	C807.555542,712.000000 807.111084,712.000000 806.333313,712.000000 
z"/>
<path fill="#89C2D1" opacity="1.000000" stroke="none" 
	d="
M819.000000,712.000000 
	C817.933228,712.000000 816.866455,712.000000 815.400574,711.531372 
	C815.334290,697.933411 815.897461,684.804749 815.927612,671.674744 
	C815.952026,661.045532 815.073853,650.414795 815.075745,639.784790 
	C815.077637,628.988037 815.840088,618.193481 815.967407,607.394409 
	C816.385498,571.939392 816.642639,536.482605 817.007385,501.026917 
	C817.303467,472.235291 817.671570,443.444366 817.996277,414.653015 
	C818.337891,384.362274 818.614258,354.070648 819.021545,323.780792 
	C819.229553,308.317169 819.669495,292.856750 819.991150,277.394592 
	C820.665588,244.971237 821.436157,212.549423 821.968872,180.123718 
	C822.450073,150.835022 822.653870,121.541809 823.041077,92.251404 
	C823.059937,90.830376 823.666931,89.417137 824.252686,88.329117 
	C824.670227,90.465569 825.003967,92.276001 824.973755,94.080360 
	C824.684448,111.378792 824.258057,128.675140 824.017700,145.974136 
	C823.622070,174.436188 823.295593,202.899353 823.012573,231.362778 
	C822.638428,268.990814 822.318909,306.619446 822.044678,344.248322 
	C822.030701,346.163116 822.665894,348.082672 822.999268,350.466858 
	C822.998962,355.955414 822.998230,360.977081 822.625488,366.133820 
	C821.835571,368.286011 821.079712,370.298370 821.050964,372.321045 
	C820.644043,400.943115 820.340881,429.566650 820.002075,458.189697 
	C819.675171,485.813293 819.120178,513.436218 819.047241,541.060364 
	C818.896851,598.039856 819.000732,655.020081 819.000000,712.000000 
z"/>
<path fill="#90CDDC" opacity="1.000000" stroke="none" 
	d="
M808.375000,712.000000 
	C808.000000,683.850464 807.869446,655.700073 808.036743,627.551575 
	C808.203796,599.434448 808.663696,571.319092 809.005005,543.203064 
	C809.330139,516.419434 809.684631,489.636108 809.995544,462.852295 
	C810.348816,432.404541 810.636719,401.955933 811.012207,371.508453 
	C811.293091,348.721832 811.581482,325.934662 812.021912,303.150787 
	C812.603394,273.067719 813.350464,242.987885 813.999207,212.906067 
	C814.361267,196.117081 814.675842,179.327057 814.998108,162.537231 
	C815.342712,144.581833 815.660828,126.625908 816.009827,108.670586 
	C816.326416,92.380363 816.691467,76.091057 816.994080,59.800583 
	C817.352356,40.513256 817.666626,21.225107 818.000000,1.468657 
	C819.066711,1.000000 820.133362,1.000000 821.600037,1.467604 
	C821.999207,7.289826 821.998413,12.644445 821.625549,18.134094 
	C820.836243,19.615627 820.077332,20.955906 820.052673,22.309559 
	C819.647827,44.539276 819.335510,66.770676 819.002197,89.470245 
	C819.001343,100.625862 819.000671,111.312935 818.747681,122.329086 
	C817.997620,135.918503 817.370544,149.175568 817.033752,162.439972 
	C816.573792,180.550766 816.341431,198.667282 815.999084,216.781128 
	C815.675659,233.896347 815.339233,251.011322 815.002808,268.126282 
	C814.672913,284.908447 814.290161,301.689667 814.013184,318.472687 
	C813.634644,341.414185 813.259277,364.356171 813.027649,387.299438 
	C812.881470,401.782654 812.966309,416.268677 813.044006,430.752930 
	C813.053406,432.503632 813.666016,434.251068 813.999512,436.468658 
	C813.999084,448.291168 813.998291,459.644989 813.625549,471.133911 
	C812.835876,472.785309 812.068115,474.297852 812.051819,475.818420 
	C811.652832,513.083313 811.189453,550.348328 811.038452,587.614685 
	C810.870483,629.075806 811.000000,670.538147 811.000000,712.000000 
	C810.250000,712.000000 809.500000,712.000000 808.375000,712.000000 
z"/>
<path fill="#8CC7D6" opacity="1.000000" stroke="none" 
	d="
M819.000000,122.000000 
	C819.000671,111.312935 819.001343,100.625862 819.374207,89.335037 
	C820.163757,87.384781 820.922791,86.044510 820.947388,84.690857 
	C821.352234,62.461262 821.664429,40.229969 821.997559,17.999063 
	C821.998413,12.644445 821.999207,7.289826 822.000000,1.467604 
	C822.444458,1.000000 822.888916,1.000000 823.666992,1.468657 
	C824.002808,24.626455 824.005066,47.315598 824.005859,70.472214 
	C824.002991,76.626556 824.001526,82.313408 824.000000,88.000275 
	C823.666931,89.417137 823.059937,90.830376 823.041077,92.251404 
	C822.653870,121.541809 822.450073,150.835022 821.968872,180.123718 
	C821.436157,212.549423 820.665588,244.971237 819.991150,277.394592 
	C819.669495,292.856750 819.229553,308.317169 819.021545,323.780792 
	C818.614258,354.070648 818.337891,384.362274 817.996277,414.653015 
	C817.671570,443.444366 817.303467,472.235291 817.007385,501.026917 
	C816.642639,536.482605 816.385498,571.939392 815.967407,607.394409 
	C815.840088,618.193481 815.077637,628.988037 815.075745,639.784790 
	C815.073853,650.414795 815.952026,661.045532 815.927612,671.674744 
	C815.897461,684.804749 815.334290,697.933411 815.000732,711.531372 
	C814.555542,712.000000 814.111084,712.000000 813.333313,711.531372 
	C813.332520,631.041382 813.665039,551.020142 813.997559,470.998840 
	C813.998291,459.644989 813.999084,448.291168 814.252014,436.139648 
	C814.667908,434.368561 814.957642,433.397583 814.976807,432.421295 
	C815.337036,414.141266 815.655823,395.860413 816.002808,377.580139 
	C816.321411,360.797791 816.670593,344.016052 816.992493,327.233765 
	C817.336731,309.286377 817.659912,291.338654 818.001160,273.391235 
	C818.326599,256.276031 818.667480,239.161102 818.994324,222.045929 
	C819.333923,204.264954 819.763367,186.484940 819.967651,168.702377 
	C820.126465,154.885483 820.035217,141.065079 819.955811,127.246803 
	C819.945801,125.496094 819.333313,123.748848 819.000000,122.000000 
z"/>
<path fill="#76A7B5" opacity="1.000000" stroke="none" 
	d="
M831.000000,315.000000 
	C831.000000,446.000000 831.001221,577.000000 830.989014,708.000000 
	C830.988831,710.016968 832.016418,712.928955 827.498535,711.534424 
	C826.758667,706.449036 826.287964,701.827393 826.327271,697.209961 
	C826.427368,685.473083 826.755676,673.738159 826.995728,661.533508 
	C826.996765,650.041443 826.994690,639.018250 826.993225,627.527527 
	C826.664185,615.374939 826.334534,603.689880 826.376465,591.869141 
	C827.164429,590.061401 827.925903,588.392517 827.941650,586.716675 
	C828.048340,575.367371 828.080688,564.015625 827.951782,552.666748 
	C827.907593,548.774719 827.332520,544.888733 827.000000,540.532410 
	C826.999634,534.709900 826.999207,529.354919 827.251404,523.671143 
	C827.668518,521.536377 827.973328,519.730774 827.976135,517.924561 
	C828.008179,497.281891 827.994324,476.639099 827.994141,455.528076 
	C827.991028,436.704651 827.986450,418.349548 827.984497,399.550720 
	C827.596436,395.743103 827.124756,392.385773 826.849670,389.012451 
	C826.714783,387.359100 826.944885,385.676025 827.380615,383.870361 
	C827.836609,378.156494 827.921814,372.578644 828.006836,366.532074 
	C828.003662,354.708466 828.000610,343.353607 828.241333,331.700684 
	C828.327820,325.936401 828.170532,320.470154 828.386536,315.004150 
	C829.506592,315.002930 830.253296,315.001465 831.000000,315.000000 
z"/>
<path fill="#85BDCC" opacity="1.000000" stroke="none" 
	d="
M819.375000,712.000000 
	C819.000732,655.020081 818.896851,598.039856 819.047241,541.060364 
	C819.120178,513.436218 819.675171,485.813293 820.002075,458.189697 
	C820.340881,429.566650 820.644043,400.943115 821.050964,372.321045 
	C821.079712,370.298370 821.835571,368.286011 822.627014,366.601288 
	C823.334106,383.040375 823.647461,399.147491 824.040100,415.252716 
	C824.070801,416.510834 824.656311,417.755432 824.986694,419.472382 
	C824.988953,424.956116 824.988403,429.973785 824.617432,435.129242 
	C823.831543,436.784576 823.060547,438.300659 823.054443,439.819824 
	C822.973572,459.962280 822.977966,480.105225 823.042725,500.247803 
	C823.047791,501.832153 823.660461,503.414490 823.991699,505.466187 
	C823.992676,511.954407 823.992676,517.974243 823.621338,524.130737 
	C822.833557,525.782776 822.077820,527.293457 822.056763,528.814392 
	C821.939514,537.295959 821.949341,545.780518 822.045776,554.262695 
	C822.063843,555.845398 822.673706,557.421387 823.009644,559.467896 
	C823.338379,565.623535 823.667969,571.311768 823.996094,577.464600 
	C823.992310,582.282837 823.990051,586.636353 823.616699,591.127563 
	C822.830383,593.279297 822.056763,595.292786 822.052979,597.307739 
	C821.981079,635.538330 822.000000,673.769226 822.000000,712.000000 
	C821.250000,712.000000 820.500000,712.000000 819.375000,712.000000 
z"/>
<path fill="#8FCADA" opacity="1.000000" stroke="none" 
	d="
M813.625549,471.133911 
	C813.665039,551.020142 813.332520,631.041382 813.000000,711.531372 
	C812.555542,712.000000 812.111084,712.000000 811.333313,712.000000 
	C811.000000,670.538147 810.870483,629.075806 811.038452,587.614685 
	C811.189453,550.348328 811.652832,513.083313 812.051819,475.818420 
	C812.068115,474.297852 812.835876,472.785309 813.625549,471.133911 
z"/>
<path fill="#81B7C6" opacity="1.000000" stroke="none" 
	d="
M829.000000,1.000009 
	C829.666626,1.495919 830.890198,1.969199 830.911438,2.491322 
	C831.073059,6.470687 831.000000,10.459606 831.000000,14.445556 
	C831.000000,50.651264 831.000000,86.856972 830.628296,123.665268 
	C829.837830,126.109688 829.275452,127.932747 829.031677,129.797470 
	C828.588806,133.185577 828.335266,136.598450 827.750183,139.672516 
	C827.331848,137.536972 826.991150,135.726334 827.028076,133.923431 
	C827.310608,120.127579 827.659363,106.333023 828.009827,92.538643 
	C828.052002,90.880295 828.352478,89.222908 828.320618,87.569183 
	C828.103516,76.317329 827.833496,65.066490 827.550720,53.816059 
	C827.543823,53.539566 827.193787,53.271694 827.003662,52.531937 
	C827.336609,41.042755 827.669617,30.021431 828.254456,18.671230 
	C828.670898,12.561571 828.835449,6.780786 829.000000,1.000009 
z"/>
<path fill="#7EB3C0" opacity="1.000000" stroke="none" 
	d="
M828.002808,140.000992 
	C828.335266,136.598450 828.588806,133.185577 829.031677,129.797470 
	C829.275452,127.932747 829.837830,126.109688 830.628296,124.133926 
	C831.000000,163.687561 831.000000,203.375122 830.625366,243.531113 
	C829.501587,244.000504 828.752441,244.001480 828.002075,243.533508 
	C828.000549,228.246277 827.887451,213.426804 828.042542,198.610123 
	C828.134583,189.816650 828.824646,181.029236 828.906250,172.235931 
	C828.953247,167.160522 828.324524,162.078857 828.000000,156.532394 
	C828.000916,150.710190 828.001892,145.355591 828.002808,140.000992 
z"/>
<path fill="#7BAFBC" opacity="1.000000" stroke="none" 
	d="
M828.003235,244.002441 
	C828.752441,244.001480 829.501587,244.000504 830.625366,243.999771 
	C831.000000,267.354218 831.000000,290.708466 831.000000,314.531342 
	C830.253296,315.001465 829.506592,315.002930 828.130737,314.676300 
	C827.335266,312.387543 827.001526,310.424561 827.028198,308.466553 
	C827.320862,286.978058 827.669678,265.490356 828.003235,244.002441 
z"/>
<path fill="#81B7C6" opacity="1.000000" stroke="none" 
	d="
M822.333313,712.000000 
	C822.000000,673.769226 821.981079,635.538330 822.052979,597.307739 
	C822.056763,595.292786 822.830383,593.279297 823.620544,591.597351 
	C823.998596,603.953857 824.001770,615.978149 824.003967,628.470825 
	C824.003662,639.957825 824.004272,650.976501 824.003662,662.464111 
	C824.001587,679.288696 824.000793,695.644348 824.000000,712.000000 
	C823.555542,712.000000 823.111084,712.000000 822.333313,712.000000 
z"/>
<path fill="#89C2D1" opacity="1.000000" stroke="none" 
	d="
M828.002563,19.000107 
	C827.669617,30.021431 827.336609,41.042755 826.750549,52.859741 
	C826.331299,57.604431 826.330627,61.570919 825.916809,65.493851 
	C825.752991,67.047333 824.671204,68.503998 824.007324,70.004745 
	C824.005066,47.315598 824.002808,24.626455 824.000244,1.468657 
	C824.750000,1.000000 825.500000,1.000000 826.625000,1.467790 
	C827.334167,7.623756 827.668396,13.311932 828.002563,19.000107 
z"/>
<path fill="#7EB3C0" opacity="1.000000" stroke="none" 
	d="
M824.375000,712.000000 
	C824.000793,695.644348 824.001587,679.288696 824.377075,662.465332 
	C825.498779,661.999207 826.245728,662.000854 826.992676,662.002441 
	C826.755676,673.738159 826.427368,685.473083 826.327271,697.209961 
	C826.287964,701.827393 826.758667,706.449036 826.998535,711.534424 
	C826.250000,712.000000 825.500000,712.000000 824.375000,712.000000 
z"/>
<path fill="#85BDCC" opacity="1.000000" stroke="none" 
	d="
M828.254456,18.671230 
	C827.668396,13.311932 827.334167,7.623756 827.000000,1.467790 
	C827.444458,1.000000 827.888916,1.000000 828.666687,1.000000 
	C828.835449,6.780786 828.670898,12.561571 828.254456,18.671230 
z"/>
<path fill="#483D8B" opacity="1.000000" stroke="none" 
	d="
M150.885788,590.221313 
	C160.182312,573.965210 169.467682,557.702759 178.778503,541.454834 
	C188.094421,525.197998 197.420273,508.946838 206.770386,492.709656 
	C215.841980,476.956146 224.941666,461.218811 234.045959,445.484192 
	C237.701904,439.165771 241.637527,432.996338 245.020767,426.536438 
	C248.765289,419.386688 254.215576,416.581726 262.353271,416.618408 
	C314.656250,416.854187 366.960785,416.738251 419.264832,416.738007 
	C468.070831,416.737793 516.876892,416.708130 565.682739,416.785461 
	C570.338074,416.792816 575.483276,414.597046 579.487976,418.746674 
	C582.077820,421.430176 584.831238,424.143066 586.678345,427.326202 
	C600.632263,451.373077 614.338501,475.563354 628.202637,499.662598 
	C643.860413,526.879639 659.605225,554.046509 675.302673,581.240723 
	C676.876343,583.967041 678.384399,586.731262 679.685425,590.080566 
	C677.459717,590.788879 675.471436,590.986694 673.483093,590.986877 
	C501.389404,591.001038 329.295746,591.002747 157.202057,590.967712 
	C155.096588,590.967285 152.991211,590.480896 150.885788,590.221313 
z"/>
<path fill="#483D8B" opacity="1.000000" stroke="none" 
	d="
M167.002991,324.000092 
	C181.463318,324.000092 195.424484,324.000092 209.690277,324.000092 
	C209.690277,328.042206 209.690277,331.632874 209.690277,335.865295 
	C202.675964,335.865295 195.617569,335.865295 188.290207,335.865295 
	C188.290207,355.753998 188.290207,375.006897 188.290207,394.630615 
	C199.712677,394.630615 211.084030,394.630615 223.000168,394.630615 
	C223.000168,392.014709 223.000168,389.562500 223.000168,387.110291 
	C223.000183,368.778442 222.965958,350.446503 223.036774,332.114929 
	C223.047516,329.335632 221.740173,325.597473 225.920914,324.665039 
	C230.009583,323.753082 234.497955,322.358704 237.890854,326.405090 
	C244.714584,334.543152 251.532761,342.689606 258.169647,350.979584 
	C264.498413,358.884674 270.560425,367.002899 276.819031,374.965057 
	C278.107819,376.604675 279.747345,377.968597 281.982697,380.223694 
	C281.982697,360.993439 281.982697,342.785370 281.982697,324.293304 
	C286.410645,324.293304 290.332886,324.293304 294.896362,324.293304 
	C294.896362,348.035736 294.896362,371.747559 294.896362,395.725159 
	C302.118256,395.725159 308.704956,395.725159 315.757080,395.725159 
	C315.757080,372.041199 315.757080,348.451721 315.757080,324.432526 
	C333.918549,324.432526 351.623413,324.432526 369.665802,324.432526 
	C369.665802,327.990021 369.665802,331.580719 369.665802,335.816925 
	C356.720062,335.816925 343.669373,335.816925 330.314880,335.816925 
	C330.314880,343.035095 330.314880,349.622070 330.314880,356.853699 
	C341.992767,356.853699 353.708191,356.853699 365.706116,356.853699 
	C365.706116,360.740051 365.706116,363.996857 365.706116,367.894043 
	C353.976166,367.894043 342.257141,367.894043 330.276611,367.894043 
	C330.276611,375.114227 330.276611,381.700775 330.276611,388.922424 
	C343.742645,388.922424 357.130920,388.922424 370.736542,388.922424 
	C370.920929,391.469360 371.061310,393.408234 371.224854,395.667419 
	C377.100311,395.667419 382.849884,395.667419 390.260956,395.667419 
	C386.998199,393.315338 384.635162,391.611847 382.237244,389.883209 
	C383.305847,388.317596 383.760773,387.651398 384.215332,386.985016 
	C388.807434,380.253113 388.796906,380.274414 395.917389,383.790222 
	C402.052460,386.819427 408.206604,389.553131 415.383392,389.061707 
	C421.886078,388.616455 426.231140,385.965332 427.148743,381.141449 
	C427.917877,377.098114 424.373444,372.433533 418.537201,370.416382 
	C412.760895,368.419983 406.786896,366.990417 401.028046,364.949707 
	C385.996429,359.623138 380.559570,345.953003 388.543457,332.906494 
	C390.312164,330.016266 393.515808,327.510254 396.629639,326.020966 
	C411.604584,318.858612 425.487701,322.038818 438.529999,331.235291 
	C435.284454,339.302795 434.063507,339.901459 426.197998,337.846741 
	C421.710999,336.674622 417.202179,335.112366 412.640869,334.862305 
	C409.520813,334.691254 405.664764,335.671600 403.240112,337.555725 
	C397.571808,341.960449 398.680389,348.878418 405.361145,351.657593 
	C411.319122,354.136139 417.653137,355.693787 423.717560,357.937836 
	C430.855438,360.579102 437.134460,364.221832 440.380737,371.823700 
	C443.257965,378.561401 441.072357,384.406219 438.204529,390.280518 
	C437.359619,392.011200 436.184998,393.580902 434.867981,395.695709 
	C442.959717,395.695709 450.478394,395.695709 458.834290,395.695709 
	C456.227936,393.321594 454.105743,391.388519 451.733612,389.227783 
	C454.044861,386.419373 456.231201,383.762695 458.617157,380.863495 
	C463.467499,383.006256 468.103241,385.981903 473.140594,387.033142 
	C478.805969,388.215454 484.874481,388.157166 490.688568,387.678589 
	C494.216187,387.388245 497.000793,384.713226 497.311981,380.599762 
	C497.618652,376.545258 495.364166,373.705139 492.029083,372.314087 
	C486.374237,369.955444 480.405273,368.362457 474.657867,366.208832 
	C470.497314,364.649841 466.095001,363.272797 462.480377,360.814789 
	C454.542938,355.417236 453.392029,347.074158 455.321228,338.547546 
	C457.445801,329.157471 464.843689,324.955231 473.637543,323.189697 
	C486.148712,320.677887 497.485382,323.701233 508.237244,331.339233 
	C506.011658,334.618683 503.909271,337.716614 501.760742,340.882507 
	C494.316833,336.166046 486.589783,333.683990 477.946533,334.826080 
	C471.956055,335.617615 468.882111,338.183624 468.271088,343.047455 
	C467.780884,346.949829 470.973328,350.996857 476.124847,352.694977 
	C482.892792,354.925873 489.821411,356.713776 496.476501,359.232361 
	C506.583191,363.057098 512.899170,372.470245 510.767761,381.008942 
	C509.518768,386.012390 506.810425,390.651550 504.660553,395.683899 
	C521.755188,395.683899 538.980469,395.683899 556.846924,395.683899 
	C556.846924,372.010193 556.846924,348.300262 556.846924,324.298645 
	C561.398560,324.298645 565.320129,324.298645 569.882812,324.298645 
	C569.882812,345.359314 569.882812,366.404999 569.882812,387.903473 
	C581.766541,387.903473 593.026428,387.903473 604.629395,387.903473 
	C604.875183,390.714874 605.084290,393.106354 605.313782,395.731506 
	C614.068054,395.731506 622.600586,395.731506 631.443848,395.731506 
	C606.418762,374.113983 612.933411,345.865570 626.240723,333.696442 
	C642.026001,319.261322 662.363892,317.868866 680.315125,330.979370 
	C690.764099,338.610687 696.130371,349.639954 695.007874,363.003021 
	C693.927429,375.865082 686.794006,385.833466 677.836121,396.000092 
	C686.467041,396.000092 694.033569,396.000061 701.600037,396.000061 
	C709.202576,396.000061 716.805176,396.000092 726.141235,396.000092 
	C712.157349,385.212982 705.278870,372.388092 707.130432,356.111847 
	C708.165344,347.014069 712.203735,338.675690 719.085571,332.643799 
	C736.160400,317.677673 761.817871,320.027344 773.864990,332.362549 
	C772.944336,333.759064 771.996033,335.251831 770.991577,336.705811 
	C769.969971,338.184692 768.893066,339.625366 768.686096,339.911835 
	C761.012146,338.153595 754.224915,335.295532 747.446228,335.315430 
	C733.126831,335.357391 723.521179,342.805176 721.247314,355.007019 
	C718.233948,371.176636 725.746582,384.021637 740.473206,387.220825 
	C746.650391,388.562744 753.591309,387.051880 760.071533,386.080688 
	C763.790100,385.523407 765.016663,382.045319 765.002502,378.384033 
	C764.983398,373.429962 764.997742,368.475769 764.997742,363.268616 
	C769.461487,363.268616 773.382812,363.268616 777.954651,363.268616 
	C777.954651,371.469879 778.455627,379.618835 777.675781,387.643341 
	C777.412048,390.357452 773.906616,392.756531 771.823303,395.374084 
	C775.877136,396.048431 779.863708,396.711609 783.850281,397.374756 
	C783.847290,398.125244 783.844238,398.875763 783.841248,399.626251 
	C781.067017,400.084137 778.293091,400.941010 775.518555,400.942505 
	C652.861938,401.008881 530.205261,400.999908 407.548615,400.999908 
	C367.551880,400.999908 327.554840,400.932190 287.558777,401.094940 
	C283.108551,401.113037 280.018463,399.630920 277.415833,396.285919 
	C265.923645,381.515656 254.398499,366.770935 242.856216,352.039764 
	C241.454086,350.250244 239.876251,348.598450 237.386963,345.744446 
	C237.386963,364.845490 237.386963,382.502747 237.386963,400.913391 
	C174.528244,400.913391 112.292625,400.921906 50.057156,400.830750 
	C49.144459,400.829407 48.233578,399.586670 47.166405,397.379944 
	C50.238056,396.713013 53.309704,396.046082 56.864300,395.274292 
	C56.864300,371.970673 56.864300,348.371155 56.864300,324.387634 
	C74.010727,324.387634 90.715553,324.387634 107.711395,324.387634 
	C107.711395,328.085968 107.711395,331.675629 107.711395,335.906586 
	C95.626022,335.906586 83.575905,335.906586 71.269608,335.906586 
	C71.269608,343.128632 71.269608,349.715088 71.269608,356.769348 
	C81.965775,356.769348 92.557823,356.769348 103.572823,356.769348 
	C103.572823,361.260406 103.572823,365.299103 103.572823,369.808716 
	C92.995293,369.808716 82.401169,369.808716 71.406219,369.808716 
	C71.406219,378.633331 71.406219,387.006104 71.406219,395.692322 
	C88.384956,395.692322 105.304924,395.692322 122.866005,395.692322 
	C122.866005,371.991211 122.866005,348.280609 122.866005,324.289062 
	C127.753433,324.289062 132.008789,324.289062 136.905548,324.289062 
	C136.905548,348.046356 136.905548,371.757751 136.905548,395.730042 
	C149.128632,395.730042 160.715195,395.730042 172.651627,395.730042 
	C172.651627,376.031189 172.651627,356.444061 172.651627,336.213959 
	C165.751419,336.213959 158.695847,336.213959 151.330109,336.213959 
	C151.330109,331.996002 151.330109,328.406647 151.330109,324.000092 
	C156.321030,324.000092 161.412430,324.000092 167.002991,324.000092 
M628.859985,369.388306 
	C632.144165,381.911652 642.554871,389.565582 654.781189,389.909729 
	C669.081055,390.312164 681.489929,378.069244 682.059814,363.829163 
	C682.764282,346.224915 671.052551,334.906158 656.034119,334.078217 
	C640.307434,333.211304 624.377991,347.378174 628.859985,369.388306 
z"/>
<path fill="#483D8C" opacity="1.000000" stroke="none" 
	d="
M411.000000,306.093323 
	C378.887573,306.093353 347.275177,306.093353 314.561646,306.093353 
	C348.348358,247.503189 381.683594,189.695862 415.442535,131.153824 
	C449.090668,189.520187 482.404663,247.307007 516.294861,306.093292 
	C480.840302,306.093292 446.170166,306.093292 411.000000,306.093323 
z"/>
<path fill="#483D8B" opacity="1.000000" stroke="none" 
	d="
M237.685089,281.711914 
	C235.597885,287.465210 233.864944,292.941345 231.759613,298.270325 
	C231.188034,299.717041 229.492340,300.719604 228.312622,301.926025 
	C227.275604,300.756714 225.776474,299.757965 225.272217,298.391937 
	C219.540680,282.865265 213.592712,267.401642 208.502090,251.662582 
	C206.087372,244.196854 202.389481,240.468521 194.374573,238.683868 
	C175.214966,234.417679 156.347076,228.829895 137.406357,223.612473 
	C135.789215,223.167023 134.507050,221.505554 133.069260,220.408966 
	C134.562592,219.347839 135.910446,217.776535 137.571304,217.302994 
	C158.669205,211.287491 179.790817,205.351089 200.968201,199.623123 
	C203.880646,198.835373 205.068085,197.444504 206.045197,194.746353 
	C212.462250,177.026245 219.067749,159.373993 225.705643,141.734924 
	C226.217514,140.374695 227.449326,139.285400 228.346497,138.070160 
	C229.520279,139.288620 231.244186,140.302780 231.784088,141.756638 
	C238.287003,159.267670 244.519699,176.879623 251.114258,194.355301 
	C251.897797,196.431671 254.122589,198.838135 256.162323,199.431610 
	C277.069763,205.514847 298.090179,211.208786 319.033081,217.172867 
	C320.836639,217.686493 322.311279,219.355087 323.938721,220.487167 
	C322.319824,221.626907 320.855164,223.324585 319.058472,223.821182 
	C298.073639,229.621674 277.075073,235.383636 255.979034,240.759109 
	C252.727142,241.587708 251.844955,243.214890 250.910507,245.823685 
	C246.654770,257.704712 242.250259,269.532471 237.685089,281.711914 
z"/>
<path fill="#3C59FE" opacity="1.000000" stroke="none" 
	d="
M150.671646,590.481934 
	C152.991211,590.480896 155.096588,590.967285 157.202057,590.967712 
	C329.295746,591.002747 501.389404,591.001038 673.483093,590.986877 
	C675.471436,590.986694 677.459717,590.788879 679.784119,590.431519 
	C679.953003,590.760193 679.854492,591.806763 679.607117,591.843201 
	C678.300720,592.035645 676.956848,591.996643 675.625977,591.996643 
	C502.269775,592.000122 328.913574,592.003601 155.557373,591.947937 
	C153.857285,591.947388 152.157455,591.161743 150.671646,590.481934 
z"/>
<path fill="#85BDCC" opacity="1.000000" stroke="none" 
	d="
M824.005859,70.472229 
	C824.671204,68.503998 825.752991,67.047333 825.916809,65.493851 
	C826.330627,61.570919 826.331299,57.604431 826.750610,53.327599 
	C827.193787,53.271694 827.543823,53.539566 827.550720,53.816059 
	C827.833496,65.066490 828.103516,76.317329 828.320618,87.569183 
	C828.352478,89.222908 828.052002,90.880295 828.009827,92.538643 
	C827.659363,106.333023 827.310608,120.127579 827.028076,133.923431 
	C826.991150,135.726334 827.331848,137.536972 827.750244,139.672516 
	C828.001892,145.355591 828.000916,150.710190 827.747681,156.861206 
	C826.998962,164.764206 826.194519,171.865005 826.061279,178.978394 
	C825.584595,204.438080 825.310913,229.901749 825.006287,255.364456 
	C824.645813,285.492340 824.345825,315.620972 823.958862,345.748505 
	C823.940552,347.169556 823.332336,348.583008 822.998840,350.000000 
	C822.665894,348.082672 822.030701,346.163116 822.044678,344.248322 
	C822.318909,306.619446 822.638428,268.990814 823.012573,231.362778 
	C823.295593,202.899353 823.622070,174.436188 824.017700,145.974136 
	C824.258057,128.675140 824.684448,111.378792 824.973755,94.080360 
	C825.003967,92.276001 824.670227,90.465569 824.252686,88.329117 
	C824.001526,82.313408 824.002991,76.626556 824.005859,70.472229 
z"/>
<path fill="#81B7C6" opacity="1.000000" stroke="none" 
	d="
M822.999268,350.466858 
	C823.332336,348.583008 823.940552,347.169556 823.958862,345.748505 
	C824.345825,315.620972 824.645813,285.492340 825.006287,255.364456 
	C825.310913,229.901749 825.584595,204.438080 826.061279,178.978394 
	C826.194519,171.865005 826.998962,164.764206 827.747681,157.328812 
	C828.324524,162.078857 828.953247,167.160522 828.906250,172.235931 
	C828.824646,181.029236 828.134583,189.816650 828.042542,198.610123 
	C827.887451,213.426804 828.000549,228.246277 828.002075,243.533508 
	C827.669678,265.490356 827.320862,286.978058 827.028198,308.466553 
	C827.001526,310.424561 827.335266,312.387543 827.757446,314.676056 
	C828.170532,320.470154 828.327820,325.936401 827.869263,331.835449 
	C826.835632,333.948883 826.083984,335.624176 826.057068,337.311066 
	C825.929504,345.291840 825.937439,353.276611 826.045410,361.257965 
	C826.071350,363.175903 826.663452,365.086182 826.995728,367.467590 
	C827.000854,373.292267 827.005310,378.649323 827.009766,384.006378 
	C826.944885,385.676025 826.714783,387.359100 826.849670,389.012451 
	C827.124756,392.385773 827.596436,395.743103 827.614502,399.687592 
	C826.827148,402.114502 826.227905,403.941742 826.034668,405.810974 
	C825.581177,410.198761 825.321838,414.606598 824.983887,419.006317 
	C824.656311,417.755432 824.070801,416.510834 824.040100,415.252716 
	C823.647461,399.147491 823.334106,383.040375 822.999146,366.466248 
	C822.998230,360.977081 822.998962,355.955414 822.999268,350.466858 
z"/>
<path fill="#8FCADA" opacity="1.000000" stroke="none" 
	d="
M818.747681,122.329086 
	C819.333313,123.748848 819.945801,125.496094 819.955811,127.246803 
	C820.035217,141.065079 820.126465,154.885483 819.967651,168.702377 
	C819.763367,186.484940 819.333923,204.264954 818.994324,222.045929 
	C818.667480,239.161102 818.326599,256.276031 818.001160,273.391235 
	C817.659912,291.338654 817.336731,309.286377 816.992493,327.233765 
	C816.670593,344.016052 816.321411,360.797791 816.002808,377.580139 
	C815.655823,395.860413 815.337036,414.141266 814.976807,432.421295 
	C814.957642,433.397583 814.667908,434.368561 814.251587,435.671021 
	C813.666016,434.251068 813.053406,432.503632 813.044006,430.752930 
	C812.966309,416.268677 812.881470,401.782654 813.027649,387.299438 
	C813.259277,364.356171 813.634644,341.414185 814.013184,318.472687 
	C814.290161,301.689667 814.672913,284.908447 815.002808,268.126282 
	C815.339233,251.011322 815.675659,233.896347 815.999084,216.781128 
	C816.341431,198.667282 816.573792,180.550766 817.033752,162.439972 
	C817.370544,149.175568 817.997620,135.918503 818.747681,122.329086 
z"/>
<path fill="#8FCADA" opacity="1.000000" stroke="none" 
	d="
M821.625488,18.134094 
	C821.664429,40.229969 821.352234,62.461262 820.947388,84.690857 
	C820.922791,86.044510 820.163757,87.384781 819.374390,88.866486 
	C819.335510,66.770676 819.647827,44.539276 820.052673,22.309559 
	C820.077332,20.955906 820.836243,19.615627 821.625488,18.134094 
z"/>
<path fill="#7BAFBC" opacity="1.000000" stroke="none" 
	d="
M823.997559,577.000000 
	C823.667969,571.311768 823.338379,565.623535 823.260010,559.138672 
	C823.676636,552.896301 823.841980,547.450562 824.322205,541.962219 
	C825.424744,541.613037 826.212341,541.306519 827.000000,541.000000 
	C827.332520,544.888733 827.907593,548.774719 827.951782,552.666748 
	C828.080688,564.015625 828.048340,575.367371 827.941650,586.716675 
	C827.925903,588.392517 827.164429,590.061401 826.374390,591.402710 
	C825.999695,587.998352 826.221558,584.901794 825.908936,581.860168 
	C825.737488,580.192261 824.664185,578.617004 823.997559,577.000000 
z"/>
<path fill="#7BAFBC" opacity="1.000000" stroke="none" 
	d="
M827.992676,455.996338 
	C827.994324,476.639099 828.008179,497.281891 827.976135,517.924561 
	C827.973328,519.730774 827.668518,521.536377 826.999084,523.342346 
	C826.327820,517.226257 826.161438,511.110077 825.995483,504.527802 
	C825.664734,488.041962 825.333557,472.022186 825.376343,456.001801 
	C826.497681,455.999542 827.245178,455.997925 827.992676,455.996338 
z"/>
<path fill="#7EB3C0" opacity="1.000000" stroke="none" 
	d="
M827.994141,455.528076 
	C827.245178,455.997925 826.497681,455.999542 825.375305,455.532990 
	C824.996216,448.373688 824.992004,441.682587 824.987793,434.991455 
	C824.988403,429.973785 824.988953,424.956116 824.986694,419.472382 
	C825.321838,414.606598 825.581177,410.198761 826.034668,405.810974 
	C826.227905,403.941742 826.827148,402.114502 827.611816,400.131287 
	C827.986450,418.349548 827.991028,436.704651 827.994141,455.528076 
z"/>
<path fill="#7EB3C0" opacity="1.000000" stroke="none" 
	d="
M823.996094,577.464600 
	C824.664185,578.617004 825.737488,580.192261 825.908936,581.860168 
	C826.221558,584.901794 825.999695,587.998352 826.002808,591.538452 
	C826.334534,603.689880 826.664185,615.374939 826.619873,627.528748 
	C825.498901,627.999146 824.751892,628.000793 824.004883,628.002441 
	C824.001770,615.978149 823.998596,603.953857 823.991638,591.459717 
	C823.990051,586.636353 823.992310,582.282837 823.996094,577.464600 
z"/>
<path fill="#7BAFBC" opacity="1.000000" stroke="none" 
	d="
M824.003967,628.470825 
	C824.751892,628.000793 825.498901,627.999146 826.619263,627.996338 
	C826.994690,639.018250 826.996765,650.041443 826.995728,661.533508 
	C826.245728,662.000854 825.498779,661.999207 824.378357,661.996338 
	C824.004272,650.976501 824.003662,639.957825 824.003967,628.470825 
z"/>
<path fill="#7EB3C0" opacity="1.000000" stroke="none" 
	d="
M825.995117,504.993896 
	C826.161438,511.110077 826.327820,517.226257 826.746460,523.671204 
	C826.999207,529.354919 826.999634,534.709900 827.000000,540.532410 
	C826.212341,541.306519 825.424744,541.613037 824.319946,541.493713 
	C823.999390,535.376587 823.996033,529.685364 823.992676,523.994080 
	C823.992676,517.974243 823.992676,511.954407 824.325928,505.466431 
	C825.104492,504.996826 825.549805,504.995361 825.995117,504.993896 
z"/>
<path fill="#7EB3C0" opacity="1.000000" stroke="none" 
	d="
M826.995117,367.000000 
	C826.663452,365.086182 826.071350,363.175903 826.045410,361.257965 
	C825.937439,353.276611 825.929504,345.291840 826.057068,337.311066 
	C826.083984,335.624176 826.835632,333.948883 827.625488,332.133484 
	C828.000610,343.353607 828.003662,354.708466 827.753784,366.531799 
	C827.332336,367.000153 827.163757,367.000092 826.995117,367.000000 
z"/>
<path fill="#7BAFBC" opacity="1.000000" stroke="none" 
	d="
M826.995728,367.467590 
	C827.163757,367.000092 827.332336,367.000153 827.754028,367.000519 
	C827.921814,372.578644 827.836609,378.156494 827.380615,383.870361 
	C827.005310,378.649323 827.000854,373.292267 826.995728,367.467590 
z"/>
<path fill="#81B7C6" opacity="1.000000" stroke="none" 
	d="
M825.995483,504.527802 
	C825.549805,504.995361 825.104492,504.996826 824.324951,504.998047 
	C823.660461,503.414490 823.047791,501.832153 823.042725,500.247803 
	C822.977966,480.105225 822.973572,459.962280 823.054443,439.819824 
	C823.060547,438.300659 823.831543,436.784576 824.617432,435.129242 
	C824.992004,441.682587 824.996216,448.373688 825.001465,455.533630 
	C825.333557,472.022186 825.664734,488.041962 825.995483,504.527802 
z"/>
<path fill="#81B7C6" opacity="1.000000" stroke="none" 
	d="
M823.621338,524.130737 
	C823.996033,529.685364 823.999390,535.376587 824.005005,541.536377 
	C823.841980,547.450562 823.676636,552.896301 823.260864,558.671265 
	C822.673706,557.421387 822.063843,555.845398 822.045776,554.262695 
	C821.949341,545.780518 821.939514,537.295959 822.056763,528.814392 
	C822.077820,527.293457 822.833557,525.782776 823.621338,524.130737 
z"/>
<path fill="#96D6EA" opacity="1.000000" stroke="none" 
	d="
M628.686096,369.000488 
	C624.377991,347.378174 640.307434,333.211304 656.034119,334.078217 
	C671.052551,334.906158 682.764282,346.224915 682.059814,363.829163 
	C681.489929,378.069244 669.081055,390.312164 654.781189,389.909729 
	C642.554871,389.565582 632.144165,381.911652 628.686096,369.000488 
z"/>
</svg>