<svg version="1.1" id="Layer_1" xmlns="http://www.w3.org/2000/svg" xmlns:xlink="http://www.w3.org/1999/xlink" x="0px" y="0px"
	 width="100%" viewBox="0 0 661 613" enable-background="new 0 0 661 613" xml:space="preserve">
<path fill="#99D9EA" opacity="1.000000" stroke="none" 
	d="
M1.000000,236.000000 
	C1.000000,158.681732 1.026320,81.863426 0.910765,5.045335 
	C0.905765,1.721600 1.436636,0.898391 4.953281,0.900186 
	C222.577225,1.011287 440.201202,1.013658 657.825134,0.888380 
	C661.635437,0.886186 662.081482,1.919825 662.079956,5.323546 
	C661.990601,206.783997 661.989563,408.244476 662.086426,609.704895 
	C662.088135,613.185669 661.528320,614.107971 657.796631,614.105896 
	C440.339355,613.987244 222.882004,613.986877 5.424710,614.104858 
	C1.506356,614.106995 0.911226,613.037598 0.914218,609.426331 
	C1.017218,485.117584 1.000000,360.808807 1.000000,236.000000 
z"/>
<path fill="#0325FF" opacity="1.000000" stroke="none" 
	d="
M39.999958,309.896484 
	C40.549015,295.230896 47.157894,283.670563 56.651546,273.806732 
	C72.829056,256.998505 89.383804,240.549911 105.962212,224.134171 
	C108.936272,221.189316 110.118736,218.270447 110.085808,214.096909 
	C109.895096,189.932388 110.018211,165.765594 109.982338,141.599625 
	C109.963196,128.705368 114.046707,117.124565 122.002602,107.190063 
	C127.871407,99.861694 136.383163,96.418388 145.317795,93.952515 
	C154.129395,91.520592 163.087112,92.008217 172.035278,91.999321 
	C193.034698,91.978455 214.034637,91.920547 235.033051,92.067703 
	C238.311630,92.090675 240.546173,91.064682 242.816940,88.772812 
	C260.998322,70.422508 279.481750,52.368504 297.509155,33.869522 
	C312.068695,18.929129 336.961517,16.325237 354.126984,27.996618 
	C358.826660,31.192085 363.239868,34.634731 367.255463,38.684563 
	C383.918213,55.489510 400.733307,72.143448 417.386322,88.957962 
	C419.535126,91.127640 421.632782,92.084534 424.741730,92.067154 
	C448.906982,91.932098 473.074371,91.860931 497.238892,92.051994 
	C508.245697,92.139015 518.722839,94.905273 527.727600,101.433006 
	C540.132446,110.425606 544.526062,123.746078 545.910217,138.210770 
	C548.265381,162.822311 546.434570,187.500458 546.492920,212.148254 
	C546.501953,215.951233 547.539185,218.635986 550.280640,221.312775 
	C565.424133,236.098969 580.629272,250.837830 595.294983,266.091248 
	C603.297913,274.414948 610.380188,283.707855 613.911499,295.010498 
	C619.594727,313.200623 612.466919,328.029938 600.483337,340.871490 
	C587.300293,354.998383 574.017578,369.159973 559.561096,381.928345 
	C549.034790,391.225494 544.853088,401.134949 545.696045,415.168945 
	C546.912964,435.428650 546.439209,455.828064 545.863464,476.144562 
	C545.441040,491.050140 540.748840,504.830475 528.194885,514.026550 
	C519.163757,520.642029 508.477997,523.934753 497.116028,523.977905 
	C472.283722,524.072266 447.450500,524.068787 422.618561,523.933228 
	C419.326355,523.915283 417.070892,524.971252 414.779205,527.233398 
	C396.516571,545.260559 378.944916,563.994751 359.965424,581.286072 
	C352.262299,588.303955 343.494751,593.273315 332.921417,595.174072 
	C320.469147,597.412537 310.156799,592.835571 300.133728,586.565674 
	C291.447510,581.132080 284.338776,573.879333 277.203583,566.644958 
	C264.213196,553.473999 251.105301,540.418518 238.174561,527.189636 
	C235.892197,524.854675 233.576889,523.922180 230.318085,523.940125 
	C207.319397,524.066772 184.319672,523.992920 161.320312,524.013916 
	C149.468033,524.024780 138.097580,521.666870 128.499527,514.621765 
	C118.567802,507.331665 113.585632,496.611389 110.989792,484.734436 
	C110.167023,480.969971 109.956543,477.186615 109.965591,473.341919 
	C110.020027,450.175995 109.925018,427.009491 110.065788,403.844299 
	C110.086815,400.385010 109.042740,397.959106 106.591820,395.557007 
	C91.118515,380.392334 75.650093,365.218048 60.446098,349.784821 
	C49.631950,338.807617 41.435795,326.282227 39.999958,309.896484 
z"/>
<path fill="#99D9EA" opacity="1.000000" stroke="none" 
	d="
M385.245605,66.754456 
	C392.394897,74.008255 399.313232,80.993492 406.168671,88.039909 
	C406.996918,88.891220 408.707275,89.616066 407.809387,91.209412 
	C407.162323,92.357689 405.704956,91.973816 404.574829,91.976936 
	C395.408691,92.002274 386.242462,91.993973 377.076263,91.992561 
	C374.713623,91.992203 372.126251,91.709282 372.031891,95.187363 
	C371.934265,98.786438 374.487091,99.003998 377.136993,99.004662 
	C389.136383,99.007660 401.136658,99.083870 413.134491,98.948524 
	C415.870880,98.917664 417.788147,99.782143 419.696075,101.693405 
	C458.550323,140.615982 497.446259,179.497009 536.398193,218.321793 
	C538.345032,220.262268 539.045044,222.221741 539.041809,224.912552 
	C538.976807,279.243011 538.972961,333.573639 539.049500,387.904083 
	C539.053528,390.798157 538.243164,392.868530 536.182373,394.918213 
	C527.208252,403.843994 518.419861,412.956207 509.511780,421.949005 
	C507.455566,424.024872 504.937012,426.180115 507.829224,428.969086 
	C510.770081,431.805023 512.965515,428.988037 514.908630,427.006989 
	C522.483093,419.284546 529.993835,411.499573 537.430969,403.838104 
	C539.638916,405.319824 538.955261,406.785431 538.957764,407.979950 
	C539.005615,430.812012 539.672607,453.671875 538.744934,476.466278 
	C538.164856,490.720734 532.478699,503.934204 519.496399,511.286255 
	C513.754578,514.537903 506.837524,517.180969 499.407684,517.091858 
	C476.745453,516.820129 454.077850,516.993225 431.412354,516.993225 
	C429.799225,516.993225 428.186127,516.993286 425.108307,516.993286 
	C430.992706,511.070190 435.957642,506.074829 440.919769,501.076630 
	C442.563568,499.420959 444.252716,497.806152 445.825104,496.084961 
	C447.371582,494.392120 448.550598,492.461334 446.453735,490.432495 
	C444.445892,488.489777 442.437561,488.674347 440.406219,490.717194 
	C432.885834,498.279999 425.174835,505.656921 417.781464,513.340393 
	C415.126495,516.099487 412.378998,517.146240 408.589264,517.072510 
	C397.260803,516.852051 385.925262,517.014709 374.592621,516.976990 
	C372.053711,516.968567 369.935638,517.079834 369.953888,520.544128 
	C369.972412,524.062622 372.201019,524.024719 374.677002,524.018127 
	C384.943787,523.990723 395.210663,524.006653 406.692749,524.006653 
	C402.984924,527.919800 400.160522,531.066467 397.161743,534.037048 
	C383.200867,547.866882 369.431519,561.902344 355.137665,575.380737 
	C338.197113,591.354797 321.176910,592.018677 302.015289,578.782593 
	C294.250671,573.419189 288.174225,566.398376 281.454376,559.997437 
	C269.640625,548.744446 257.873840,537.442139 245.420517,525.522156 
	C249.463882,523.456421 251.931915,524.065552 254.264038,524.040100 
	C262.262695,523.952698 270.263214,523.962708 278.262238,524.029480 
	C280.957916,524.051941 283.045776,523.362671 282.915192,520.273987 
	C282.797363,517.487244 280.765961,516.957886 278.314819,516.969604 
	C266.649017,517.025269 254.982056,516.922058 243.317261,517.044495 
	C240.470917,517.074341 238.330246,516.386414 236.248886,514.299744 
	C197.410400,475.361542 158.514282,436.480743 119.564621,397.653778 
	C117.608246,395.703522 116.957672,393.721619 116.960716,391.045868 
	C117.022461,336.715393 117.028587,282.384766 116.947487,228.054337 
	C116.943138,225.141861 117.784218,223.084106 119.863503,221.069031 
	C127.641838,213.530960 135.258133,205.825653 142.933060,198.180923 
	C143.877502,197.240219 144.868683,196.337662 145.733826,195.327972 
	C147.412476,193.368866 148.125183,191.093277 146.157700,189.073380 
	C144.035614,186.894775 141.888290,188.030991 140.075424,189.832184 
	C133.809525,196.057693 127.575607,202.315399 121.309631,208.540848 
	C120.181313,209.661865 118.958885,210.688171 117.688522,211.841156 
	C116.561516,210.148087 117.035797,208.625763 117.033295,207.210938 
	C116.995338,185.712158 116.861526,164.211853 117.077820,142.715195 
	C117.165558,133.996063 118.790909,125.279442 123.114738,117.700424 
	C128.351395,108.521355 136.903870,103.348366 147.251144,101.010582 
	C153.241028,99.657265 159.195358,98.889786 165.368042,98.938416 
	C187.526749,99.112968 209.687653,99.006889 231.822968,99.006889 
	C232.578217,100.935471 230.921021,101.476974 230.121368,102.291908 
	C223.818634,108.715088 217.372345,114.998352 211.120926,121.470238 
	C209.742477,122.897316 206.255692,124.183792 208.887863,126.934235 
	C211.488770,129.651978 213.713791,127.291847 215.620392,125.392189 
	C223.176117,117.863907 230.806107,110.404961 238.174026,102.696136 
	C240.811218,99.936928 243.542328,98.837265 247.349792,98.925240 
	C257.677063,99.163864 268.013885,98.960373 278.346069,99.039879 
	C280.927002,99.059738 283.319397,98.757469 283.372955,95.681633 
	C283.430573,92.371025 281.024658,91.908585 278.185577,91.950508 
	C270.021118,92.071075 261.853668,92.005630 253.687546,91.970673 
	C252.753418,91.966675 251.543839,92.385056 250.967697,91.323784 
	C250.253998,90.009117 251.355362,89.151932 252.151886,88.369812 
	C269.621002,71.216988 286.695496,53.629688 304.780090,37.151176 
	C312.813019,29.831650 323.475006,26.115982 334.781891,28.150009 
	C342.815308,29.595165 349.858368,33.841274 356.278381,38.854435 
	C366.800873,47.071064 375.410736,57.299248 385.245605,66.754456 
z"/>
<path fill="#99D8EA" opacity="1.000000" stroke="none" 
	d="
M117.005447,452.000000 
	C117.005486,436.759766 117.005486,422.019531 117.005486,407.511475 
	C153.546310,443.801971 189.923843,479.930267 226.403442,516.159912 
	C225.714874,517.482544 224.202362,516.748779 223.047668,516.738220 
	C199.753281,516.525513 176.430695,517.652771 153.170975,515.916931 
	C138.326385,514.809143 126.736053,507.201935 120.726295,492.143433 
	C115.502159,479.053436 117.643822,465.753998 117.005447,452.000000 
z"/>
<path fill="#99D8EA" opacity="1.000000" stroke="none" 
	d="
M496.700134,168.300140 
	C473.747467,145.780624 451.045471,123.510506 428.343506,101.240379 
	C430.430969,98.243019 432.126984,99.051514 433.447723,99.048073 
	C455.278595,98.991096 477.134064,98.371964 498.932800,99.210411 
	C516.032288,99.868126 533.891846,110.535080 537.281494,130.952652 
	C538.461060,138.057648 538.947449,145.015457 538.969360,152.094620 
	C539.026611,170.591949 538.969055,189.089630 538.939575,207.587143 
	C538.939148,207.865631 538.711853,208.143753 538.271240,209.153534 
	C524.357178,195.480713 510.653992,182.015121 496.700134,168.300140 
z"/>
<path fill="#99D9EA" opacity="1.000000" stroke="none" 
	d="
M101.753265,380.246826 
	C88.194611,366.685150 74.514259,353.718811 61.709129,339.939178 
	C53.305958,330.896515 46.718834,320.595825 47.909740,307.053741 
	C48.771400,297.255615 53.173218,289.193787 59.407200,282.260071 
	C75.110504,264.794128 92.505333,248.975388 109.561501,231.505371 
	C109.561501,284.002869 109.561501,335.605011 109.561501,388.583008 
	C106.641907,385.459503 104.322563,382.978149 101.753265,380.246826 
z"/>
<path fill="#99D8EA" opacity="1.000000" stroke="none" 
	d="
M546.006470,328.000000 
	C546.006348,294.787903 546.006348,262.075775 546.006348,229.613449 
	C547.369995,229.046753 547.839905,229.571808 548.289978,230.029282 
	C564.628845,246.637070 582.336731,261.944733 597.169861,279.964508 
	C603.294922,287.405426 608.195129,295.775940 608.139343,306.337738 
	C608.082214,317.156281 603.597107,325.951935 596.816040,333.473358 
	C581.205688,350.787964 564.107178,366.672943 547.617676,383.143066 
	C547.404358,383.356079 547.054260,383.432159 546.006531,383.944550 
	C546.006531,365.217194 546.006531,346.858612 546.006470,328.000000 
z"/>
<path fill="#0729FE" opacity="1.000000" stroke="none" 
	d="
M311.931061,378.084412 
	C330.352234,384.401520 348.434265,387.281952 366.646027,378.867065 
	C367.627899,378.413361 368.549744,377.868805 369.219330,378.982666 
	C370.132324,380.501465 368.522614,381.134644 367.734222,381.544617 
	C362.668121,384.179169 357.189453,385.517090 351.528656,385.996735 
	C328.297699,387.965179 307.406830,380.835571 287.620087,369.452576 
	C285.732330,368.366577 284.992310,367.410126 285.547241,364.755920 
	C288.304291,351.569092 292.581787,338.929901 297.159576,326.275513 
	C299.921021,318.642090 304.294037,313.297302 310.731476,309.012665 
	C314.131836,306.749512 317.338898,304.197906 320.689514,301.857025 
	C321.745911,301.118988 322.929108,300.313202 324.150604,300.105927 
	C328.356598,299.391998 338.949707,308.631500 338.990845,312.899658 
	C338.997223,313.561096 338.875977,314.222931 338.864746,314.885437 
	C338.830109,316.932251 342.629242,318.544250 339.602020,320.917999 
	C335.506592,324.129395 333.266510,329.716156 326.350494,329.173157 
	C318.057861,328.522125 318.018494,329.023407 318.018433,337.378418 
	C318.018433,339.711426 317.818146,342.066864 318.076660,344.370880 
	C318.319031,346.530914 316.631104,349.877808 319.220001,350.611084 
	C322.184418,351.450623 325.834534,352.045654 328.818878,349.915314 
	C335.103760,345.428986 341.869141,343.542328 349.447510,345.837952 
	C352.824951,346.861023 354.714722,344.007690 356.972900,342.726044 
	C361.586060,340.107880 366.088348,341.227142 371.468201,341.190491 
	C369.789276,343.608551 368.031494,342.959442 366.591675,342.982086 
	C363.929230,343.023987 361.581268,343.493164 359.044617,344.711060 
	C355.375397,346.472748 354.137878,347.687592 357.891327,350.572998 
	C358.568726,351.093719 360.328949,351.835327 358.848724,353.259827 
	C357.516357,354.542053 356.857941,353.068207 356.027374,352.392914 
	C346.815399,344.903198 334.360779,346.390503 327.311401,355.843567 
	C326.627350,356.760834 326.116791,358.271545 324.786774,357.744873 
	C323.277557,357.147278 324.227386,355.848022 324.597321,354.799438 
	C325.111206,353.342834 324.086060,352.921478 323.050659,353.087952 
	C320.805481,353.448975 317.937653,351.595245 316.447968,354.819183 
	C315.400055,357.087036 314.367706,359.363068 312.434509,361.064117 
	C311.934723,361.503876 311.340149,362.109772 310.752777,361.607819 
	C310.364838,361.276337 310.049744,360.150879 310.269775,359.918610 
	C320.169189,349.467529 314.472198,336.493073 316.029480,324.709106 
	C316.092163,324.234619 316.262604,323.774353 316.638428,322.314880 
	C318.702148,329.296967 323.826996,326.963531 327.794098,326.824493 
	C332.029633,326.676117 333.896088,322.136658 337.218231,320.080627 
	C337.818359,319.709229 337.721497,318.930878 337.190826,318.346771 
	C336.176727,317.230560 335.403687,318.016174 334.711182,318.714722 
	C332.664185,320.779694 330.526093,322.458221 327.309662,322.028564 
	C324.119171,321.602386 323.311859,319.282104 323.135040,316.740845 
	C323.053619,315.570526 323.712708,313.916595 325.463196,314.098114 
	C327.633026,314.323029 326.254089,315.712585 326.109039,316.679718 
	C325.956177,317.698853 325.870361,318.746765 327.117615,319.154022 
	C331.226044,320.495575 332.779510,316.744751 335.062164,314.827057 
	C336.764343,313.397034 336.452881,311.287994 334.420776,309.727234 
	C332.053497,307.909119 329.798157,305.944122 327.512390,304.021332 
	C325.663452,302.465973 324.064209,302.783295 322.217255,304.241974 
	C316.505371,308.753021 310.684814,313.126831 304.885712,317.526672 
	C303.643005,318.469543 302.772949,319.684387 302.244659,321.089600 
	C296.952515,335.166412 290.939850,348.998108 288.612549,364.050385 
	C288.252411,366.379547 289.103119,367.128204 290.505402,367.891479 
	C297.345825,371.614655 304.170776,375.383240 311.931061,378.084412 
z"/>
<path fill="#0527FF" opacity="1.000000" stroke="none" 
	d="
M160.811142,246.046860 
	C161.915909,249.400040 161.581299,252.730270 163.738159,255.995972 
	C165.737244,248.189972 167.634460,240.839813 169.494415,233.480270 
	C169.989563,231.521088 170.252045,229.815582 173.142700,229.877991 
	C175.902512,229.937561 176.389221,231.444366 176.910110,233.479263 
	C178.734543,240.606552 180.625641,247.716751 183.643784,254.825104 
	C185.093018,248.341995 186.567093,241.864197 187.957291,235.368454 
	C188.115402,234.629684 188.064301,233.593216 187.649277,233.041519 
	C186.953888,232.117142 184.245544,232.744049 185.509094,230.323227 
	C185.889679,229.594086 193.425858,229.870239 193.695892,230.537033 
	C193.862488,230.948425 193.887451,231.605133 193.666519,231.957870 
	C188.600647,240.046036 188.608536,249.638855 185.819794,258.399353 
	C185.128922,260.569672 184.687958,262.208923 181.686783,262.134460 
	C178.849380,262.064026 178.162506,260.874664 177.575684,258.447449 
	C175.999268,251.927185 174.093277,245.486618 172.027832,237.955872 
	C168.975800,244.874863 168.008667,251.339554 166.063889,257.482697 
	C165.325211,259.816101 165.358749,262.271301 161.674866,262.110931 
	C158.289276,261.963562 158.408661,260.020325 157.852844,257.585510 
	C156.133530,250.054016 153.980682,242.621536 152.001770,235.149139 
	C151.917053,234.829254 152.006958,234.376465 151.815796,234.183990 
	C145.648544,227.974258 152.511398,230.351868 154.655365,230.055313 
	C156.869186,229.749054 159.158325,229.987213 163.126907,229.987213 
	C154.323563,235.353058 161.240997,240.655014 160.811142,246.046860 
z"/>
<path fill="#0628FE" opacity="1.000000" stroke="none" 
	d="
M256.797638,243.620300 
	C252.413406,245.743408 251.457794,248.208084 254.631805,251.947617 
	C256.221832,253.820923 257.435577,256.056458 258.572937,258.255676 
	C259.305359,259.671783 263.458160,259.268738 261.227814,261.523346 
	C259.939453,262.825745 256.256866,262.994995 253.940384,260.829803 
	C251.091324,258.166809 250.133072,254.344528 247.942780,251.273834 
	C246.701065,249.532974 245.952057,247.119827 243.139206,248.035217 
	C240.405151,248.924973 241.683777,251.406830 241.612579,253.165726 
	C241.489334,256.210327 240.298569,259.868591 245.222290,261.175018 
	C240.612244,262.330902 236.459381,262.100311 232.056839,261.725708 
	C236.411255,257.575836 236.367447,233.716995 232.234070,230.500168 
	C239.311844,230.188690 246.491653,228.881943 253.450027,230.824646 
	C259.133972,232.411545 260.099030,236.824265 256.797638,243.620300 
z"/>
<path fill="#0325FD" opacity="1.000000" stroke="none" 
	d="
M277.638977,259.850403 
	C278.121490,261.773560 277.124969,262.022186 275.798126,262.009003 
	C272.654541,261.977783 269.510437,261.998993 266.047913,261.998993 
	C270.228973,257.141571 270.161804,233.990326 266.194824,230.569611 
	C268.254333,229.465866 270.422882,230.072052 272.493652,230.025803 
	C276.960968,229.926056 276.292297,229.840240 275.386230,233.682358 
	C274.505493,237.417130 275.195038,241.522217 275.195038,245.987289 
	C279.128845,242.135071 282.722229,238.632492 286.285767,235.099869 
	C286.617432,234.771072 286.934265,234.263321 286.963593,233.819244 
	C287.220123,229.932938 287.201172,229.896591 291.861420,230.017181 
	C293.110321,230.049530 294.494263,229.560593 296.513550,231.447098 
	C291.993927,232.549973 289.677277,235.854156 286.764313,238.500397 
	C284.140198,240.884216 283.292786,242.858612 285.785797,245.958832 
	C289.716217,250.846512 291.605682,257.210083 297.693665,261.651428 
	C292.579346,261.651428 288.453552,261.651428 282.329559,261.651428 
	C287.246765,259.856842 286.803589,258.003754 285.046600,255.729584 
	C283.545319,253.786362 282.109039,251.701996 281.129303,249.467285 
	C279.513519,245.781860 277.991425,247.170959 276.125061,249.527863 
	C275.937256,253.153229 273.655945,256.789215 277.638977,259.850403 
z"/>
<path fill="#0628FF" opacity="1.000000" stroke="none" 
	d="
M480.734131,233.742340 
	C485.853485,228.989151 491.401062,229.137207 497.204468,231.041672 
	C497.674347,231.195862 498.482086,231.691803 498.497131,231.665436 
	C499.776215,229.428513 502.431549,229.165939 503.431122,230.545685 
	C504.953186,232.646652 503.890961,235.690628 503.962952,238.331223 
	C504.009552,240.040039 502.743011,240.014877 501.543091,239.997879 
	C500.336365,239.980789 499.083893,239.961258 499.122284,238.264084 
	C499.233337,233.354935 495.712311,232.449677 492.094940,232.457962 
	C487.751953,232.467896 484.358276,234.357758 483.608185,239.205322 
	C482.813232,244.342865 482.547394,249.490936 484.065582,254.536499 
	C485.190491,258.275055 489.020996,260.194641 493.089569,259.413177 
	C497.291687,258.606110 498.094818,255.658707 498.111786,252.004623 
	C498.120911,250.035477 497.764771,248.763000 495.401886,248.977676 
	C494.470032,249.062378 493.177765,249.082367 493.279785,247.635193 
	C493.369690,246.360306 494.547729,246.275391 495.559235,246.258072 
	C497.557861,246.223877 499.557312,246.227829 501.556396,246.230927 
	C506.166992,246.238052 506.100830,246.208221 504.277344,249.815384 
	C503.864532,250.631927 504.034943,251.768860 504.025879,252.759125 
	C503.998932,255.707031 504.016235,258.655334 504.016235,261.624786 
	C501.051727,262.085724 501.373444,259.100983 499.726807,258.491150 
	C490.924408,265.231659 479.867401,263.072540 477.591431,253.373032 
	C476.098541,247.010773 475.154419,239.799026 480.734131,233.742340 
z"/>
<path fill="#0527FF" opacity="1.000000" stroke="none" 
	d="
M328.304443,252.849548 
	C324.277893,261.737030 318.918243,264.181549 308.975372,261.949554 
	C304.014923,260.835999 299.933197,254.354645 300.018951,247.440140 
	C300.055420,244.497803 299.549042,241.535858 300.800415,238.620499 
	C303.917053,231.359818 309.649689,228.534012 318.704529,230.041550 
	C324.291107,230.971634 328.853516,236.843948 328.960846,243.620575 
	C329.007507,246.565811 329.565186,249.580612 328.304443,252.849548 
z"/>
<path fill="#0426FF" opacity="1.000000" stroke="none" 
	d="
M224.936005,255.505737 
	C218.591019,264.209412 207.055084,264.828094 200.619125,257.164001 
	C195.907639,251.553436 196.950943,237.756683 202.452499,232.919067 
	C206.012161,229.789032 214.495758,228.641190 218.879547,230.901489 
	C223.893814,233.486847 226.561722,237.553131 226.006882,243.381516 
	C225.634171,247.296463 226.905548,251.337219 224.936005,255.505737 
z"/>
<path fill="#0426FE" opacity="1.000000" stroke="none" 
	d="
M441.991211,246.922913 
	C442.315704,243.538742 441.431519,240.581253 442.827881,237.665115 
	C446.037048,230.962921 452.333771,228.212448 460.944183,230.091080 
	C465.198669,231.019318 471.038818,237.203598 470.071564,243.343140 
	C469.688599,245.774216 470.065552,248.317581 469.996887,250.807083 
	C469.821564,257.163116 464.958282,261.919617 458.661255,262.015411 
	C453.360443,262.096069 448.163818,262.595856 444.445374,257.216858 
	C442.256409,254.050369 441.871552,250.893478 441.991211,246.922913 
z"/>
<path fill="#0A2BFF" opacity="1.000000" stroke="none" 
	d="
M486.999664,309.025543 
	C454.552704,309.025543 422.605652,309.025604 390.658569,309.025452 
	C389.493835,309.025452 388.318176,309.122284 387.167419,308.994873 
	C386.009674,308.866669 384.092224,309.622559 384.205963,307.464386 
	C384.312958,305.434387 386.177032,306.095764 387.337646,306.094635 
	C426.106720,306.057434 464.875793,306.057861 503.644867,306.092316 
	C504.824249,306.093353 506.750397,305.473755 506.816437,307.426544 
	C506.898407,309.848175 504.712616,308.953461 503.472168,308.978577 
	C498.149811,309.086212 492.824066,309.025116 486.999664,309.025543 
z"/>
<path fill="#0A2BFF" opacity="1.000000" stroke="none" 
	d="
M185.000000,306.061432 
	C212.289688,306.061401 239.079391,306.061279 265.869080,306.061798 
	C267.033813,306.061798 268.201233,306.019928 269.362549,306.084564 
	C270.453369,306.145325 271.953217,305.828491 271.823303,307.657104 
	C271.698334,309.415558 270.186920,308.882446 269.138214,309.007141 
	C268.481720,309.085236 267.808746,309.025269 267.143158,309.025269 
	C229.371353,309.025482 191.599564,309.025482 153.827759,309.025330 
	C153.162170,309.025299 152.486893,309.094604 151.833237,309.005768 
	C150.802765,308.865692 149.208450,309.493866 149.138611,307.718933 
	C149.054657,305.584930 150.861435,306.094208 152.052979,306.089508 
	C162.868530,306.046692 173.684296,306.062653 185.000000,306.061432 
z"/>
<path fill="#0023FF" opacity="1.000000" stroke="none" 
	d="
M414.000000,300.000244 
	C443.462738,300.000244 472.425507,299.999573 501.388245,300.002319 
	C502.719330,300.002441 504.050842,300.016541 505.381317,300.054535 
	C506.322205,300.081421 506.942627,300.480408 506.919617,301.539062 
	C506.896362,302.608459 506.208679,302.921417 505.303192,302.953979 
	C504.305695,302.989899 503.306763,302.998047 502.308472,302.998108 
	C464.523743,303.000122 426.739014,302.999847 388.954285,302.999725 
	C388.288483,302.999725 387.614319,303.063751 386.958740,302.981293 
	C385.914551,302.849884 384.363312,303.441956 384.217743,301.705261 
	C384.032745,299.498444 385.862976,300.036926 387.034241,300.030273 
	C395.855927,299.980164 404.678040,300.001312 414.000000,300.000244 
z"/>
<path fill="#0023FF" opacity="1.000000" stroke="none" 
	d="
M259.977722,302.999939 
	C224.857315,302.999939 190.232437,302.999969 155.607574,302.999908 
	C154.608780,302.999908 153.591782,303.118469 152.615723,302.969330 
	C151.335007,302.773682 149.135391,303.789642 149.174728,301.459534 
	C149.214417,299.110168 151.439804,300.047882 152.696701,300.046051 
	C191.150208,299.990784 229.603806,299.990723 268.057312,300.044861 
	C269.342285,300.046661 271.593323,299.152222 271.713959,301.305817 
	C271.870544,304.100586 269.329895,302.828186 267.959442,302.941437 
	C265.479370,303.146393 262.970245,302.999756 259.977722,302.999939 
z"/>
<path fill="#0124FF" opacity="1.000000" stroke="none" 
	d="
M380.912781,234.343842 
	C377.590607,233.224152 373.466034,229.938904 372.817474,236.836105 
	C372.646423,238.655014 370.263733,238.358704 369.673340,237.623505 
	C368.250336,235.851334 368.965302,233.478928 369.136475,231.381760 
	C369.300323,229.374512 371.128601,230.039246 372.303497,230.029831 
	C379.783844,229.969849 387.265167,229.971695 394.745575,230.028061 
	C395.925201,230.036926 397.743866,229.409439 397.874420,231.428955 
	C398.010132,233.527893 398.815216,235.964767 397.289185,237.643616 
	C396.575897,238.428284 393.956543,238.683914 394.104095,236.306885 
	C394.364380,232.113831 391.614166,232.888092 389.230133,232.931976 
	C385.732422,232.996338 387.111542,235.730667 387.064941,237.372604 
	C386.904633,243.020248 387.056763,248.675980 386.981506,254.327164 
	C386.941132,257.362061 386.306244,260.597565 391.172516,261.109619 
	C385.893433,262.216370 381.074219,262.294128 375.835236,261.081512 
	C382.112793,260.741577 381.024933,256.468140 381.003845,252.763611 
	C380.969788,246.779160 380.980042,240.794434 380.912781,234.343842 
z"/>
<path fill="#0A2BFF" opacity="1.000000" stroke="none" 
	d="
M415.481689,262.017639 
	C414.228302,261.797882 412.408112,261.121765 413.518616,260.703796 
	C417.432587,259.230713 416.099701,256.222473 416.166412,253.717957 
	C416.316925,248.064529 416.241730,242.404083 416.190826,236.747101 
	C416.179413,235.476746 416.611786,234.054459 415.462006,232.997177 
	C414.703064,232.299271 412.729675,232.608337 413.246826,230.924713 
	C413.777252,229.197952 415.508179,230.140717 416.696564,230.013046 
	C418.177063,229.853973 419.699280,229.857925 421.181915,230.006577 
	C422.726044,230.161392 424.866302,229.075409 425.682373,230.833450 
	C426.540375,232.681824 423.824677,232.207687 423.309357,233.273926 
	C422.968170,233.979889 422.949493,234.886719 422.946686,235.704163 
	C422.921997,242.859070 423.042542,250.016479 422.885223,257.167999 
	C422.813446,260.430573 424.964539,260.322418 426.824158,259.879028 
	C428.934143,259.375977 432.466705,262.130341 433.000336,257.440613 
	C433.177246,255.885773 431.908508,253.378174 435.010010,253.308548 
	C437.768982,253.246613 437.112885,255.531479 436.944794,256.945770 
	C436.719696,258.839813 438.606842,262.034027 434.402527,262.022125 
	C428.245941,262.004730 422.089325,262.021271 415.481689,262.017639 
z"/>
<path fill="#0124FF" opacity="1.000000" stroke="none" 
	d="
M338.998718,255.523376 
	C338.997101,249.418976 338.998199,243.767776 338.996185,238.116592 
	C338.994202,232.560257 338.992798,232.560257 334.168091,230.631790 
	C338.332855,230.631790 342.497589,230.631790 346.662354,230.631790 
	C341.604034,231.836655 343.077972,235.930435 343.021576,239.316071 
	C342.946838,243.802521 343.349823,248.324615 342.919952,252.770721 
	C342.336731,258.803406 347.071350,258.956970 350.548309,259.669800 
	C354.497528,260.479431 358.299286,258.439301 358.700836,254.256973 
	C359.349182,247.504196 358.835022,240.646667 359.030182,233.839661 
	C359.095062,231.577393 356.675964,232.466080 356.044708,230.641174 
	C359.002258,229.527863 361.860687,229.902496 365.188599,230.757675 
	C361.733795,231.847183 361.884979,234.311401 361.963837,236.929764 
	C362.103851,241.579453 362.020752,246.236496 361.999054,250.890320 
	C361.962128,258.817871 358.808258,262.016937 351.023499,261.992828 
	C348.536560,261.985138 345.943085,262.275024 343.591766,261.673157 
	C340.957245,260.998779 338.853882,259.222534 338.998718,255.523376 
z"/>
<path fill="#0325FD" opacity="1.000000" stroke="none" 
	d="
M347.302887,277.001709 
	C350.440430,277.707916 354.079681,275.249023 356.031982,279.470612 
	C353.492126,280.411621 351.428284,278.464417 349.120331,278.953613 
	C347.782104,279.237274 347.020935,279.515289 346.981842,281.011414 
	C346.940552,282.593994 347.771759,282.999207 349.131073,282.987061 
	C350.291321,282.976685 351.497009,282.848236 352.602753,283.109741 
	C354.488495,283.555603 355.779480,284.679932 356.015686,286.816620 
	C356.240387,288.849426 355.585480,290.459869 353.908569,291.506836 
	C350.586975,293.580627 345.906830,291.618683 344.253418,287.495239 
	C346.027191,286.436310 346.479218,288.290009 347.336029,288.986694 
	C349.130798,290.446075 351.027832,290.299011 352.894501,289.471039 
	C353.847076,289.048553 354.190063,287.928741 353.880310,286.882446 
	C353.152985,284.425842 351.045319,285.165466 349.322449,284.999634 
	C347.330322,284.807922 344.529175,285.880768 344.142181,282.714691 
	C343.870850,280.494659 342.889130,277.421356 347.302887,277.001709 
z"/>
<path fill="#0426FE" opacity="1.000000" stroke="none" 
	d="
M362.225677,287.806061 
	C363.423279,289.010864 364.241791,290.117523 365.799133,289.981628 
	C367.630829,289.821777 369.730194,289.638855 369.854828,287.385254 
	C369.976471,285.185547 368.060486,284.968903 366.287262,285.005615 
	C365.124542,285.029694 363.958832,285.038422 362.797638,284.985443 
	C359.903534,284.853455 360.003021,282.770172 359.978607,280.695587 
	C359.954193,278.617584 360.440948,277.042297 362.910095,277.008362 
	C364.571808,276.985504 366.234894,276.959991 367.895691,277.002502 
	C369.479889,277.042999 371.985413,276.756470 371.569763,278.955536 
	C371.136780,281.246124 369.254700,279.169495 367.981842,279.071564 
	C366.517822,278.958923 364.993713,278.987152 363.564148,279.283966 
	C362.557068,279.493103 362.034821,280.498016 362.075012,281.605713 
	C362.128143,283.070801 363.264526,282.910217 364.223358,282.974426 
	C364.719971,283.007690 365.221924,283.015869 365.718475,282.986023 
	C368.543457,282.816162 371.147858,283.102844 371.931000,286.473297 
	C372.438599,288.657715 371.678955,290.848633 369.737915,291.551666 
	C366.749298,292.634155 363.503143,292.517212 360.890076,290.227692 
	C359.546112,289.050140 359.866302,288.413910 362.225677,287.806061 
z"/>
<path fill="#0023FF" opacity="1.000000" stroke="none" 
	d="
M333.090729,279.020325 
	C329.448639,281.990295 330.178772,286.195679 331.856476,288.634308 
	C333.934418,291.654724 337.287048,290.041168 339.484406,286.289001 
	C340.269745,290.372498 338.619568,291.819275 335.784393,291.941437 
	C332.802368,292.069946 329.629242,291.973938 329.043121,287.966248 
	C328.828796,286.500824 328.999023,284.978577 329.000244,283.482269 
	C329.005463,276.945740 330.315399,276.003601 337.129944,276.968414 
	C340.756134,277.481842 339.764069,280.069214 340.014008,282.238922 
	C340.336212,285.036163 338.602570,285.146484 336.611481,284.996399 
	C335.484741,284.911499 334.360138,284.799103 333.120575,284.688995 
	C333.407074,281.536499 339.344147,284.709290 337.858276,280.194672 
	C337.122375,277.958771 334.996979,279.389465 333.090729,279.020325 
z"/>
<path fill="#0023FE" opacity="1.000000" stroke="none" 
	d="
M286.500183,274.440186 
	C285.127686,278.557068 287.070282,279.378815 290.371674,279.040222 
	C291.426483,278.932037 292.863342,278.704041 292.922241,280.511261 
	C292.956451,281.561523 292.235138,282.096222 291.349945,281.932892 
	C285.753784,280.900238 285.593964,284.330017 285.978119,288.308105 
	C286.067505,289.233795 286.026215,290.208191 284.088135,291.860809 
	C284.088135,284.970032 284.072876,279.165924 284.101807,273.362030 
	C284.107178,272.287628 284.959106,272.004059 285.833618,272.043640 
	C288.488739,272.163940 291.238495,271.555878 293.831879,273.646057 
	C291.497986,273.812988 289.164062,273.979950 286.500183,274.440186 
z"/>
<path fill="#0023FE" opacity="1.000000" stroke="none" 
	d="
M319.876953,279.011261 
	C315.831390,278.536652 314.768738,280.325043 314.943756,283.674896 
	C315.066711,286.028107 315.390198,288.494843 314.095795,291.986084 
	C312.260437,286.966888 312.515442,282.774414 313.294983,279.051270 
	C314.079407,275.305054 318.060272,277.430023 320.624359,277.054932 
	C322.403564,276.794678 324.737793,276.718719 324.859344,279.250275 
	C325.043091,283.077545 325.483612,286.984406 324.174072,292.176788 
	C322.458130,288.491943 323.158051,285.889648 323.023834,283.430359 
	C322.913940,281.416748 323.220581,279.266724 319.876953,279.011261 
z"/>
<path fill="#0023FE" opacity="1.000000" stroke="none" 
	d="
M304.337646,279.185974 
	C302.207123,276.292664 306.960205,275.717560 305.158386,272.894684 
	C307.692108,274.029449 306.169830,277.665466 309.444550,277.431427 
	C310.050262,277.388153 309.924255,278.464294 309.195129,278.824127 
	C304.527863,281.127563 307.789886,285.098999 307.302643,288.259460 
	C307.114471,289.479858 309.589630,288.433136 309.776428,289.991882 
	C305.251526,291.650452 305.128204,291.575623 304.998291,287.289886 
	C304.918396,284.652435 304.808960,282.015869 304.337646,279.185974 
z"/>
<path fill="#0023FF" opacity="1.000000" stroke="none" 
	d="
M300.000366,286.761047 
	C299.783630,288.409302 300.515411,289.838226 298.470398,291.277679 
	C297.652222,286.288727 298.042145,281.777161 298.595337,277.234741 
	C301.000275,279.993591 299.529907,283.292877 300.000366,286.761047 
z"/>
<path fill="#AAB6FF" opacity="1.000000" stroke="none" 
	d="
M277.708679,259.802307 
	C275.967834,260.205688 274.734131,259.620117 274.946350,257.313293 
	C275.158295,255.009369 275.195801,252.689392 275.644501,250.105103 
	C276.492065,253.049210 274.737122,256.621155 277.708679,259.802307 
z"/>
<path fill="#94CFEC" opacity="1.000000" stroke="none" 
	d="
M252.021362,236.339050 
	C252.240204,240.623383 252.904724,244.887650 247.098495,244.948349 
	C245.278076,244.967377 242.362900,246.153183 241.765350,243.884094 
	C240.903320,240.610687 240.621323,236.856949 241.978867,233.644165 
	C242.914093,231.430801 250.239777,233.212585 252.021362,236.339050 
z"/>
<path fill="#98D5EB" opacity="1.000000" stroke="none" 
	d="
M309.802551,233.819717 
	C317.611633,231.007431 321.810333,233.606750 322.134979,241.258957 
	C322.303192,245.223572 322.076233,249.206085 321.994446,253.179840 
	C321.920959,256.750000 319.963531,259.067230 316.668579,259.882996 
	C312.729553,260.858246 308.622894,259.617096 307.582214,255.826248 
	C305.581055,248.536423 304.576172,240.909485 309.802551,233.819717 
z"/>
<path fill="#99D6EB" opacity="1.000000" stroke="none" 
	d="
M204.771576,238.539581 
	C205.826401,233.699493 209.031906,232.091553 212.929733,232.392090 
	C217.293976,232.728622 219.624649,235.816391 219.915100,240.044281 
	C220.186737,243.998428 220.128143,247.995941 219.909546,251.957504 
	C219.676575,256.179504 217.604584,259.332825 213.163605,259.860809 
	C208.861801,260.372253 205.849701,258.421295 204.840912,253.617432 
	C204.067947,248.504974 204.657547,243.729248 204.771576,238.539581 
z"/>
<path fill="#AAB6FF" opacity="1.000000" stroke="none" 
	d="
M204.750610,238.438934 
	C204.970779,242.835037 204.959137,247.559647 204.912445,252.766968 
	C203.222076,248.460281 203.861084,243.614090 204.750610,238.438934 
z"/>
<path fill="#98D7EA" opacity="1.000000" stroke="none" 
	d="
M453.020905,232.988861 
	C459.989655,231.648300 463.673920,234.355621 463.960815,240.867325 
	C464.121002,244.502869 464.059235,248.152740 463.975037,251.793335 
	C463.871460,256.272919 460.904205,259.791809 457.210907,259.991119 
	C452.244232,260.259186 448.598267,257.747437 448.158264,252.909576 
	C447.741333,248.324844 447.983185,243.650055 448.301544,239.040161 
	C448.486359,236.363815 449.652771,233.929565 453.020905,232.988861 
z"/>
</svg>