<svg version="1.1" id="Layer_1" xmlns="http://www.w3.org/2000/svg" xmlns:xlink="http://www.w3.org/1999/xlink" x="0px" y="0px"
	 width="100%" viewBox="0 0 600 599" enable-background="new 0 0 600 599" xml:space="preserve">
<path fill="#99D9EA" opacity="1.000000" stroke="none" 
	d="
M306.000000,600.000000 
	C204.000000,600.000000 102.500000,600.000000 1.000000,600.000000 
	C1.000000,400.333344 1.000000,200.666672 1.000000,1.000000 
	C201.000000,1.000000 401.000000,1.000000 601.000000,1.000000 
	C601.000000,200.666672 601.000000,400.333344 601.000000,600.000000 
	C502.833344,600.000000 404.666656,600.000000 306.000000,600.000000 
M160.933044,311.088440 
	C166.620270,311.044434 172.307495,311.000397 179.256363,311.127197 
	C182.853394,310.986481 186.450424,310.845764 190.161865,310.689728 
	C192.761154,310.694855 195.360458,310.700012 199.349579,311.045013 
	C202.566635,311.029205 205.783676,311.013428 209.534851,310.985535 
	C209.644531,310.668701 209.754196,310.351868 209.971146,309.098816 
	C210.031647,301.386353 210.092148,293.673920 210.524948,285.679474 
	C210.741318,285.450958 210.913986,285.193146 211.652008,285.207397 
	C217.128494,292.259003 222.806931,299.165955 228.002075,306.419067 
	C230.896591,310.460205 234.291763,311.974518 239.904907,311.087158 
	C242.934784,311.046539 245.964676,311.005920 249.919693,311.134369 
	C258.948212,311.078583 267.976746,311.022766 277.897491,311.084564 
	C280.596436,311.042816 283.295380,311.001038 286.919556,311.127502 
	C294.281494,311.071686 301.643463,311.015869 309.918518,311.087677 
	C313.610352,311.044373 317.302185,311.001068 321.919159,311.126892 
	C329.281219,311.071381 336.643280,311.015869 344.934570,311.088440 
	C353.287964,311.044403 361.641357,311.000397 370.920166,311.123016 
	C378.615204,311.067474 386.310211,311.011902 394.922119,311.086578 
	C398.946289,311.044464 402.970428,311.002350 407.919830,311.128265 
	C415.615021,311.072266 423.310181,311.016296 431.934509,311.088379 
	C439.287842,311.044952 446.641174,311.001556 454.919708,311.126160 
	C462.281799,311.069427 469.643921,311.012726 477.827209,311.084808 
	C479.449066,310.978119 481.070892,310.871399 482.692749,310.764679 
	C482.695099,310.292847 482.697479,309.821045 482.699829,309.349213 
	C481.100677,309.251740 479.501526,309.154266 477.793701,308.298370 
	C482.404175,303.503662 480.168365,297.864349 480.373352,292.423248 
	C477.984161,292.423248 476.222076,292.423248 473.990021,292.423248 
	C473.990021,294.981934 474.256226,297.317780 473.895203,299.552307 
	C473.659515,301.010986 472.833496,303.113739 471.720245,303.564026 
	C466.718964,305.587006 461.624542,305.609650 457.022034,302.287323 
	C452.248962,298.841949 451.324158,293.793304 452.139557,288.463440 
	C452.917725,283.376801 456.258698,279.734955 461.251160,279.135162 
	C465.929352,278.573059 470.784851,279.486725 476.476440,279.801544 
	C476.608185,279.591217 477.459808,278.231628 478.497772,276.574554 
	C471.480713,271.364410 464.236572,270.488831 456.623474,273.613129 
	C449.310822,276.614136 445.720337,282.488220 444.996887,290.235901 
	C444.250427,298.230286 448.837738,303.656830 453.019836,308.921600 
	C445.685333,308.930023 438.350830,308.938446 431.127289,308.273376 
	C433.264435,304.939545 435.876099,301.812866 437.440460,298.229004 
	C440.761627,290.620483 439.361847,283.501038 433.318726,277.744995 
	C426.979065,271.706482 419.385620,270.334900 411.210022,273.338501 
	C403.919403,276.016876 399.444061,283.008301 398.855042,290.492035 
	C398.241821,298.284180 402.562683,303.565002 406.064819,308.948517 
	C402.060425,308.909302 398.056000,308.870087 394.024628,307.966370 
	C394.438232,305.138000 392.854736,304.762634 390.512268,304.831177 
	C385.969604,304.964050 381.420288,304.870087 376.004730,304.870087 
	C376.004730,294.074097 376.004730,284.037872 375.936768,273.455566 
	C375.627899,273.314270 375.319000,273.172974 374.216461,272.881042 
	C373.143646,272.923248 372.070831,272.965454 370.465118,273.017700 
	C370.355438,273.333496 370.245789,273.649261 370.028839,274.901306 
	C369.966003,285.614044 369.903198,296.326782 369.622345,307.224426 
	C369.464355,307.500336 369.522003,307.741669 369.908081,308.383362 
	C369.908081,308.383362 369.948334,308.830811 369.021667,308.918610 
	C360.682983,308.940491 352.344330,308.962372 343.972687,308.239532 
	C349.452698,297.613281 347.323303,292.564758 335.854309,288.980865 
	C334.110992,288.436127 332.380493,287.849365 330.631409,287.324219 
	C327.938904,286.515808 325.408936,285.456360 325.920654,281.984192 
	C326.471283,278.247772 329.540558,277.758453 332.374176,278.096527 
	C335.892731,278.516357 339.325806,279.652496 342.962250,280.518829 
	C343.723969,279.205566 344.521759,277.830170 345.400513,276.315155 
	C339.507294,272.159363 333.422668,270.792297 326.766754,272.762238 
	C322.033203,274.163269 319.019745,277.083527 318.899048,282.380310 
	C318.776215,287.768494 320.918182,291.104858 326.108276,293.021332 
	C328.908295,294.055206 332.025909,294.455078 334.562988,295.905701 
	C336.708282,297.132263 339.717682,299.467865 339.707916,301.298584 
	C339.687561,305.125031 335.731567,305.471466 332.838470,305.013092 
	C328.695465,304.356689 324.682953,302.876770 320.371582,301.681030 
	C319.533081,302.782684 318.553406,304.069794 317.737457,305.141785 
	C318.645996,306.645752 319.374237,307.851288 319.177521,308.967163 
	C315.800751,308.941345 312.423950,308.915527 309.232605,308.225708 
	C314.820251,298.526459 312.430084,292.498749 301.659058,289.099457 
	C299.444641,288.400574 296.943085,288.089905 295.124054,286.815186 
	C293.497803,285.675568 292.630798,283.452515 291.428772,281.707520 
	C293.393555,280.467743 295.255066,278.478546 297.350861,278.189758 
	C299.645477,277.873535 302.213379,278.957062 304.559814,279.738098 
	C307.991699,280.880432 309.839844,279.736115 310.608551,276.261963 
	C304.919861,272.190948 298.891693,270.676880 292.185669,272.749817 
	C286.807190,274.412354 284.192505,277.610229 284.002625,282.735382 
	C283.808105,287.986115 286.775269,291.102997 291.273010,292.914886 
	C294.337219,294.149261 297.796234,294.558014 300.640167,296.129578 
	C302.490479,297.152039 303.552826,299.600342 304.968201,301.409882 
	C303.056244,302.656708 301.041351,305.076477 299.252625,304.919464 
	C294.783813,304.527191 290.417694,302.964966 285.617950,301.774963 
	C284.906921,302.682831 283.912750,303.952332 282.925201,305.213287 
	C284.071289,306.593170 285.013489,307.727570 285.067017,308.906342 
	C282.395660,308.876770 279.724335,308.847229 277.035522,307.984894 
	C277.382324,305.318176 275.797424,305.089569 273.694427,305.123108 
	C268.105865,305.212128 262.514893,305.153320 257.029602,305.153320 
	C257.029602,301.310364 257.029602,298.262543 257.029602,294.709595 
	C263.019135,294.709595 268.585052,294.709595 274.563751,294.709595 
	C274.458801,292.600555 274.381073,291.038208 274.279663,288.999390 
	C268.259460,288.999390 262.680634,288.999390 256.944305,288.999390 
	C256.944305,285.446564 256.944305,282.398224 256.944305,278.839539 
	C263.514587,278.839539 269.754547,278.839539 276.218597,278.839539 
	C276.218597,276.606079 276.218597,274.892151 276.218597,273.034210 
	C267.255035,273.034210 258.652283,273.034210 248.993988,273.034210 
	C248.993988,285.149170 248.993988,297.063263 248.089386,308.942200 
	C245.076797,308.905060 242.064224,308.867889 239.091888,308.383362 
	C239.091888,308.383362 239.204712,307.948578 239.404037,307.743866 
	C239.532852,307.453796 239.451385,307.219055 239.029922,306.105255 
	C238.974503,295.393158 238.919083,284.681061 238.871078,273.435059 
	C238.581543,273.292572 238.292007,273.150085 237.205811,272.872375 
	C236.133621,272.925934 235.061432,272.979523 233.385422,272.931305 
	C233.037979,273.278473 232.690552,273.625610 232.417130,274.910858 
	C232.417130,283.094971 232.417130,291.279083 232.417130,300.958923 
	C230.297012,298.459381 229.229095,297.271851 228.239777,296.022064 
	C222.882141,289.253967 217.537186,282.475830 212.202271,275.689819 
	C209.985321,272.869812 207.298462,271.914246 203.417206,273.814392 
	C203.325882,274.195679 203.234558,274.576996 203.028641,275.894653 
	C202.971588,286.269196 202.914520,296.643738 201.940750,307.003082 
	C196.568283,306.990845 191.195801,306.978607 185.630920,306.048920 
	C185.696365,297.391022 185.761810,288.733093 186.261932,279.830200 
	C186.553146,279.655731 186.786758,279.423340 187.845261,279.005066 
	C190.566635,279.005066 193.288010,279.005066 196.297058,279.005066 
	C196.047729,276.340332 195.899536,274.756439 195.749542,273.153381 
	C186.093582,273.153381 176.717575,273.153381 167.331451,273.153381 
	C167.331451,275.200623 167.331451,276.924286 167.331451,279.113770 
	C170.775177,279.113770 173.901932,279.113770 177.228729,279.466400 
	C177.393631,279.689423 177.603470,279.855774 177.970200,280.901123 
	C177.926926,289.613922 177.883652,298.326721 177.622299,307.224487 
	C177.464371,307.500366 177.522034,307.741699 177.908096,308.383331 
	C177.908096,308.383331 177.948364,308.830750 177.023254,308.918610 
	C171.366241,308.887787 165.709244,308.856934 160.094772,308.380768 
	C160.094772,308.380768 160.207062,307.947723 160.405991,307.743439 
	C160.534393,307.453766 160.453033,307.219421 160.033264,306.105865 
	C159.977478,295.393250 159.921692,284.680634 159.870972,273.433838 
	C159.581207,273.290771 159.291443,273.147675 158.175110,272.868164 
	C156.782974,272.913666 155.390839,272.959137 153.465652,273.016571 
	C153.355072,273.332428 153.244476,273.648285 153.025803,274.900482 
	C152.963242,285.613739 152.900681,296.326965 152.620377,307.224670 
	C152.462830,307.500183 152.520355,307.741150 152.905212,308.380737 
	C152.905212,308.380737 152.947723,308.826172 152.021439,308.917572 
	C143.698730,308.883728 135.376007,308.849915 127.100761,308.375214 
	C127.100761,308.375214 127.212044,307.945953 127.410080,307.742432 
	C127.537483,307.453644 127.456352,307.220184 127.040688,306.133575 
	C127.076332,303.076691 127.111969,300.019836 127.504166,296.733337 
	C127.717117,296.539490 127.878220,296.309357 128.915009,295.910004 
	C133.658081,295.910004 138.401154,295.910004 143.214874,295.910004 
	C143.214874,293.279358 143.214874,291.387665 143.214874,288.961975 
	C137.890976,288.961975 132.939926,288.961975 127.785416,288.588104 
	C127.623718,288.345490 127.411057,288.161926 127.040276,287.145630 
	C127.076340,284.751282 127.112404,282.356934 127.506187,279.728210 
	C127.718773,279.530823 127.880394,279.298035 128.919693,278.892853 
	C134.326065,278.892853 139.732437,278.892853 145.620163,278.892853 
	C145.445450,276.817108 145.324966,275.385529 145.081757,273.375641 
	C144.724182,273.258118 144.366608,273.140594 143.081390,272.868256 
	C135.721130,272.911652 128.360886,272.955048 120.466904,273.014160 
	C120.354340,273.330292 120.241776,273.646393 120.019485,274.898865 
	C119.957428,285.613190 119.895370,296.327515 119.616432,307.225403 
	C119.459778,307.500000 119.516953,307.740143 119.899223,308.375153 
	C119.899223,308.375153 119.946632,308.816132 119.196701,308.918365 
	C117.989265,309.132263 116.781822,309.346130 115.574379,309.559998 
	C115.632645,310.028961 115.690910,310.497955 115.749176,310.966919 
	C117.164360,310.966919 118.579536,310.966919 120.859283,311.134552 
	C122.907967,311.078552 124.956642,311.022522 127.935013,311.090179 
	C136.288208,311.046661 144.641403,311.003143 153.859329,311.126068 
	C155.908020,311.070587 157.956696,311.015106 160.933044,311.088440 
M167.288559,405.237244 
	C168.829132,405.809143 170.369247,406.880066 171.910355,406.881500 
	C256.895691,406.962097 341.881073,406.953644 426.866486,406.948303 
	C428.196808,406.948212 429.534180,406.927887 430.846130,406.751770 
	C430.972443,406.734802 430.940460,405.538605 430.753845,404.245270 
	C428.762695,400.789734 426.766937,397.336884 424.781158,393.878265 
	C411.702026,371.098846 398.636322,348.311737 385.534851,325.545197 
	C383.634399,322.242798 381.937286,318.943146 377.086761,318.953674 
	C325.491943,319.065643 273.896484,318.983276 222.302658,319.243317 
	C219.689056,319.256500 215.945206,321.238800 214.656219,323.435822 
	C198.845474,350.384491 183.395111,377.544586 167.288559,405.237244 
M321.500000,263.883942 
	C330.567505,263.883942 339.635040,263.883942 349.717926,263.883942 
	C332.657135,234.230621 316.129974,205.504807 299.229523,176.130157 
	C282.307831,205.520264 265.699951,234.365311 248.704315,263.883820 
	C273.287628,263.883820 296.893829,263.883820 321.500000,263.883942 
M187.576767,229.823578 
	C192.710373,230.038055 194.739746,233.197830 196.196701,237.775421 
	C198.786255,245.911453 202.030243,253.839188 205.507706,263.222809 
	C206.772842,260.603027 207.491821,259.374084 207.980392,258.059479 
	C210.753586,250.597580 213.705368,243.189072 216.102081,235.606171 
	C217.171875,232.221512 219.183578,230.937515 222.274963,230.151810 
	C231.433884,227.823929 240.558014,225.357956 249.681244,222.892334 
	C250.991425,222.538254 252.221588,221.888199 254.778839,220.852753 
	C252.258713,219.878967 251.131485,219.341293 249.947433,219.001999 
	C240.380798,216.260696 230.757797,213.701874 221.268982,210.715637 
	C219.428055,210.136276 217.391312,208.224838 216.654297,206.430984 
	C213.504150,198.763657 210.826538,190.902908 207.924850,183.132019 
	C207.463043,181.895248 206.736816,180.757248 205.624863,178.578079 
	C204.452667,181.249771 203.719040,182.705536 203.162994,184.226242 
	C200.600754,191.233551 197.970337,198.219711 195.609909,205.295364 
	C194.520706,208.560410 192.794327,210.329422 189.283295,211.208801 
	C179.956207,213.544952 170.749252,216.363892 161.510208,219.044861 
	C160.264999,219.406189 159.110001,220.078476 157.913208,220.606750 
	C157.975479,221.009354 158.037735,221.411972 158.100006,221.814575 
	C167.655731,224.444626 177.211472,227.074677 187.576767,229.823578 
z"/>
<path fill="#483D8B" opacity="1.000000" stroke="none" 
	d="
M167.851532,404.649994 
	C183.395111,377.544586 198.845474,350.384491 214.656219,323.435822 
	C215.945206,321.238800 219.689056,319.256500 222.302658,319.243317 
	C273.896484,318.983276 325.491943,319.065643 377.086761,318.953674 
	C381.937286,318.943146 383.634399,322.242798 385.534851,325.545197 
	C398.636322,348.311737 411.702026,371.098846 424.781158,393.878265 
	C426.766937,397.336884 428.762695,400.789734 430.599548,404.897552 
	C429.137177,405.706238 427.829132,405.999207 426.521057,405.999542 
	C341.968628,406.021240 257.416199,406.027100 172.863831,405.962250 
	C171.192719,405.960968 169.522263,405.106445 167.851532,404.649994 
z"/>
<path fill="#483D8C" opacity="1.000000" stroke="none" 
	d="
M321.000000,263.883881 
	C296.893829,263.883820 273.287628,263.883820 248.704315,263.883820 
	C265.699951,234.365311 282.307831,205.520264 299.229523,176.130157 
	C316.129974,205.504807 332.657135,234.230621 349.717926,263.883942 
	C339.635040,263.883942 330.567505,263.883942 321.000000,263.883881 
z"/>
<path fill="#483D8B" opacity="1.000000" stroke="none" 
	d="
M187.171982,229.764160 
	C177.211472,227.074677 167.655731,224.444626 158.100006,221.814575 
	C158.037735,221.411972 157.975479,221.009354 157.913208,220.606750 
	C159.110001,220.078476 160.264999,219.406189 161.510208,219.044861 
	C170.749252,216.363892 179.956207,213.544952 189.283295,211.208801 
	C192.794327,210.329422 194.520706,208.560410 195.609909,205.295364 
	C197.970337,198.219711 200.600754,191.233551 203.162994,184.226242 
	C203.719040,182.705536 204.452667,181.249771 205.624863,178.578079 
	C206.736816,180.757248 207.463043,181.895248 207.924850,183.132019 
	C210.826538,190.902908 213.504150,198.763657 216.654297,206.430984 
	C217.391312,208.224838 219.428055,210.136276 221.268982,210.715637 
	C230.757797,213.701874 240.380798,216.260696 249.947433,219.001999 
	C251.131485,219.341293 252.258713,219.878967 254.778839,220.852753 
	C252.221588,221.888199 250.991425,222.538254 249.681244,222.892334 
	C240.558014,225.357956 231.433884,227.823929 222.274963,230.151810 
	C219.183578,230.937515 217.171875,232.221512 216.102081,235.606171 
	C213.705368,243.189072 210.753586,250.597580 207.980392,258.059479 
	C207.491821,259.374084 206.772842,260.603027 205.507706,263.222809 
	C202.030243,253.839188 198.786255,245.911453 196.196701,237.775421 
	C194.739746,233.197830 192.710373,230.038055 187.171982,229.764160 
z"/>
<path fill="#473C8B" opacity="1.000000" stroke="none" 
	d="
M239.204712,307.948578 
	C239.204712,307.948578 239.091888,308.383362 239.058884,308.961212 
	C239.019012,310.011505 239.012146,310.483917 239.005280,310.956360 
	C234.291763,311.974518 230.896591,310.460205 228.002075,306.419067 
	C222.806931,299.165955 217.128494,292.259003 211.209488,284.850464 
	C210.562195,284.982819 210.357422,285.472137 210.152649,285.961456 
	C210.092148,293.673920 210.031647,301.386353 209.735168,309.689453 
	C209.282288,310.483978 209.116135,310.723175 209.000732,310.997620 
	C205.783676,311.013428 202.566635,311.029205 199.182617,310.531158 
	C200.296249,309.017609 201.576843,308.017944 202.857452,307.018280 
	C202.914520,296.643738 202.971588,286.269196 203.277252,275.217834 
	C203.658783,274.187775 203.791702,273.834564 203.924637,273.481323 
	C207.298462,271.914246 209.985321,272.869812 212.202271,275.689819 
	C217.537186,282.475830 222.882141,289.253967 228.239777,296.022064 
	C229.229095,297.271851 230.297012,298.459381 232.417130,300.958923 
	C232.417130,291.279083 232.417130,283.094971 232.623123,274.395813 
	C233.215820,273.598175 233.602524,273.315613 233.989227,273.033081 
	C235.061432,272.979523 236.133621,272.925934 237.709473,273.132385 
	C238.378891,273.642181 238.595749,273.834381 238.863678,273.968964 
	C238.919083,284.681061 238.974503,295.393158 239.060944,306.801910 
	C239.091949,307.498566 239.204712,307.948578 239.204712,307.948578 
z"/>
<path fill="#483D8C" opacity="1.000000" stroke="none" 
	d="
M431.005371,310.960327 
	C423.310181,311.016296 415.615021,311.072266 407.460724,310.710632 
	C406.996918,309.848114 406.992249,309.403229 406.987579,308.958374 
	C402.562683,303.565002 398.241821,298.284180 398.855042,290.492035 
	C399.444061,283.008301 403.919403,276.016876 411.210022,273.338501 
	C419.385620,270.334900 426.979065,271.706482 433.318726,277.744995 
	C439.361847,283.501038 440.761627,290.620483 437.440460,298.229004 
	C435.876099,301.812866 433.264435,304.939545 431.066315,308.945679 
	C431.005341,310.065399 431.005341,310.512878 431.005371,310.960327 
M412.013885,303.736420 
	C421.125488,308.828369 429.205872,303.122131 431.554230,297.177582 
	C434.502594,289.714172 430.976471,281.417389 423.644562,278.660797 
	C417.489990,276.346863 410.651764,278.850861 407.274261,284.655243 
	C403.629181,290.919556 405.183197,297.958679 412.013885,303.736420 
z"/>
<path fill="#49408D" opacity="1.000000" stroke="none" 
	d="
M248.993988,308.977325 
	C248.993988,297.063263 248.993988,285.149170 248.993988,273.034210 
	C258.652283,273.034210 267.255035,273.034210 276.218597,273.034210 
	C276.218597,274.892151 276.218597,276.606079 276.218597,278.839539 
	C269.754547,278.839539 263.514587,278.839539 256.944305,278.839539 
	C256.944305,282.398224 256.944305,285.446564 256.944305,288.999390 
	C262.680634,288.999390 268.259460,288.999390 274.279663,288.999390 
	C274.381073,291.038208 274.458801,292.600555 274.563751,294.709595 
	C268.585052,294.709595 263.019135,294.709595 257.029602,294.709595 
	C257.029602,298.262543 257.029602,301.310364 257.029602,305.153320 
	C262.514893,305.153320 268.105865,305.212128 273.694427,305.123108 
	C275.797424,305.089569 277.382324,305.318176 277.027008,308.759521 
	C277.014099,310.011749 277.009674,310.489349 277.005280,310.966980 
	C267.976746,311.022766 258.948212,311.078583 249.463150,310.718506 
	C249.002411,309.860901 248.998199,309.419098 248.993988,308.977325 
z"/>
<path fill="#483D8B" opacity="1.000000" stroke="none" 
	d="
M477.006012,310.955994 
	C469.643921,311.012726 462.281799,311.069427 454.455872,310.687866 
	C453.976593,309.777527 453.961212,309.305450 453.945801,308.833405 
	C448.837738,303.656830 444.250427,298.230286 444.996887,290.235901 
	C445.720337,282.488220 449.310822,276.614136 456.623474,273.613129 
	C464.236572,270.488831 471.480713,271.364410 478.497772,276.574554 
	C477.459808,278.231628 476.608185,279.591217 476.476440,279.801544 
	C470.784851,279.486725 465.929352,278.573059 461.251160,279.135162 
	C456.258698,279.734955 452.917725,283.376801 452.139557,288.463440 
	C451.324158,293.793304 452.248962,298.841949 457.022034,302.287323 
	C461.624542,305.609650 466.718964,305.587006 471.720245,303.564026 
	C472.833496,303.113739 473.659515,301.010986 473.895203,299.552307 
	C474.256226,297.317780 473.990021,294.981934 473.990021,292.423248 
	C476.222076,292.423248 477.984161,292.423248 480.373352,292.423248 
	C480.168365,297.864349 482.404175,303.503662 477.653809,308.867401 
	C477.344635,309.942963 477.175323,310.449463 477.006012,310.955994 
z"/>
<path fill="#483D8C" opacity="1.000000" stroke="none" 
	d="
M285.955688,308.861969 
	C285.013489,307.727570 284.071289,306.593170 282.925201,305.213287 
	C283.912750,303.952332 284.906921,302.682831 285.617950,301.774963 
	C290.417694,302.964966 294.783813,304.527191 299.252625,304.919464 
	C301.041351,305.076477 303.056244,302.656708 304.968201,301.409882 
	C303.552826,299.600342 302.490479,297.152039 300.640167,296.129578 
	C297.796234,294.558014 294.337219,294.149261 291.273010,292.914886 
	C286.775269,291.102997 283.808105,287.986115 284.002625,282.735382 
	C284.192505,277.610229 286.807190,274.412354 292.185669,272.749817 
	C298.891693,270.676880 304.919861,272.190948 310.608551,276.261963 
	C309.839844,279.736115 307.991699,280.880432 304.559814,279.738098 
	C302.213379,278.957062 299.645477,277.873535 297.350861,278.189758 
	C295.255066,278.478546 293.393555,280.467743 291.428772,281.707520 
	C292.630798,283.452515 293.497803,285.675568 295.124054,286.815186 
	C296.943085,288.089905 299.444641,288.400574 301.659058,289.099457 
	C312.430084,292.498749 314.820251,298.526459 309.126160,308.902496 
	C309.014984,310.039551 309.010193,310.499817 309.005402,310.960083 
	C301.643463,311.015869 294.281494,311.071686 286.458679,310.693878 
	C285.983765,309.794159 285.969696,309.328064 285.955688,308.861969 
z"/>
<path fill="#483D8C" opacity="1.000000" stroke="none" 
	d="
M320.102539,309.056854 
	C319.374237,307.851288 318.645996,306.645752 317.737457,305.141785 
	C318.553406,304.069794 319.533081,302.782684 320.371582,301.681030 
	C324.682953,302.876770 328.695465,304.356689 332.838470,305.013092 
	C335.731567,305.471466 339.687561,305.125031 339.707916,301.298584 
	C339.717682,299.467865 336.708282,297.132263 334.562988,295.905701 
	C332.025909,294.455078 328.908295,294.055206 326.108276,293.021332 
	C320.918182,291.104858 318.776215,287.768494 318.899048,282.380310 
	C319.019745,277.083527 322.033203,274.163269 326.766754,272.762238 
	C333.422668,270.792297 339.507294,272.159363 345.400513,276.315155 
	C344.521759,277.830170 343.723969,279.205566 342.962250,280.518829 
	C339.325806,279.652496 335.892731,278.516357 332.374176,278.096527 
	C329.540558,277.758453 326.471283,278.247772 325.920654,281.984192 
	C325.408936,285.456360 327.938904,286.515808 330.631409,287.324219 
	C332.380493,287.849365 334.110992,288.436127 335.854309,288.980865 
	C347.323303,292.564758 349.452698,297.613281 343.985535,308.941223 
	C344.000671,310.082062 344.002991,310.521210 344.005341,310.960358 
	C336.643280,311.015869 329.281219,311.071381 321.425781,310.771851 
	C320.655762,309.963501 320.379150,309.510162 320.102539,309.056854 
z"/>
<path fill="#49408D" opacity="1.000000" stroke="none" 
	d="
M127.148476,279.962585 
	C127.112404,282.356934 127.076340,284.751282 127.090759,287.850403 
	C127.423782,288.690796 127.706322,288.826385 127.988861,288.961975 
	C132.939926,288.961975 137.890976,288.961975 143.214874,288.961975 
	C143.214874,291.387665 143.214874,293.279358 143.214874,295.910004 
	C138.401154,295.910004 133.658081,295.910004 128.193161,295.980042 
	C127.363403,296.354401 127.255501,296.658661 127.147598,296.962952 
	C127.111969,300.019836 127.076332,303.076691 127.071373,306.815979 
	C127.102058,307.498413 127.212044,307.945953 127.212044,307.945953 
	C127.212044,307.945953 127.100761,308.375214 127.062149,308.953918 
	C127.017471,310.010559 127.011398,310.488556 127.005325,310.966492 
	C124.956642,311.022522 122.907967,311.078552 120.427231,310.692139 
	C119.978996,309.771851 119.962814,309.294006 119.946632,308.816132 
	C119.946632,308.816132 119.899223,308.375153 119.898590,307.936676 
	C119.897949,307.498199 119.833305,307.041840 119.833305,307.041840 
	C119.895370,296.327515 119.957428,285.613190 120.261002,274.311584 
	C120.722435,273.519318 120.888474,273.277374 121.000633,272.998474 
	C128.360886,272.955048 135.721130,272.911652 143.702148,273.149963 
	C144.616776,273.605743 144.910629,273.779846 145.204468,273.953949 
	C145.324966,275.385529 145.445450,276.817108 145.620163,278.892853 
	C139.732437,278.892853 134.326065,278.892853 128.195511,278.966339 
	C127.363708,279.347412 127.256088,279.654999 127.148476,279.962585 
z"/>
<path fill="#473C8B" opacity="1.000000" stroke="none" 
	d="
M177.028687,279.113770 
	C173.901932,279.113770 170.775177,279.113770 167.331451,279.113770 
	C167.331451,276.924286 167.331451,275.200623 167.331451,273.153381 
	C176.717575,273.153381 186.093582,273.153381 195.749542,273.153381 
	C195.899536,274.756439 196.047729,276.340332 196.297058,279.005066 
	C193.288010,279.005066 190.566635,279.005066 187.105347,279.072815 
	C186.186035,279.452118 186.006653,279.763672 185.827271,280.075195 
	C185.761810,288.733093 185.696365,297.391022 185.819885,307.054474 
	C187.355057,308.941711 188.701248,309.823395 190.047455,310.705078 
	C186.450424,310.845764 182.853394,310.986481 178.623932,310.687408 
	C177.977127,309.775330 177.962738,309.303040 177.948364,308.830750 
	C177.948364,308.830750 177.908096,308.383331 177.908081,307.940918 
	C177.908051,307.498505 177.840378,307.039520 177.840363,307.039520 
	C177.883652,298.326721 177.926926,289.613922 177.919998,280.183716 
	C177.694107,279.099030 177.413742,278.981506 177.028687,279.113770 
z"/>
<path fill="#473C8B" opacity="1.000000" stroke="none" 
	d="
M369.948303,308.830811 
	C369.948334,308.830811 369.908081,308.383362 369.908081,307.940918 
	C369.908051,307.498505 369.840393,307.039520 369.840393,307.039520 
	C369.903198,296.326782 369.966003,285.614044 370.264465,274.311523 
	C370.716858,273.519104 370.882843,273.281067 370.998016,273.007629 
	C372.070831,272.965454 373.143646,272.923248 374.741608,273.153564 
	C375.472595,273.669434 375.718567,273.861267 376.004730,274.001617 
	C376.004730,284.037872 376.004730,294.074097 376.004730,304.870087 
	C381.420288,304.870087 385.969604,304.964050 390.512268,304.831177 
	C392.854736,304.762634 394.438232,305.138000 394.024536,308.752747 
	C394.018036,310.011566 394.011658,310.483948 394.005249,310.956360 
	C386.310211,311.011902 378.615204,311.067474 370.455811,310.685333 
	C369.977112,309.775360 369.962708,309.303101 369.948303,308.830811 
z"/>
<path fill="#3E4BD1" opacity="1.000000" stroke="none" 
	d="
M167.570038,404.943604 
	C169.522263,405.106445 171.192719,405.960968 172.863831,405.962250 
	C257.416199,406.027100 341.968628,406.021240 426.521057,405.999542 
	C427.829132,405.999207 429.137177,405.706238 430.713593,405.219849 
	C430.940460,405.538605 430.972443,406.734802 430.846130,406.751770 
	C429.534180,406.927887 428.196808,406.948212 426.866486,406.948303 
	C341.881073,406.953644 256.895691,406.962097 171.910355,406.881500 
	C170.369247,406.880066 168.829132,405.809143 167.570038,404.943604 
z"/>
<path fill="#483D8B" opacity="1.000000" stroke="none" 
	d="
M159.865921,273.968018 
	C159.921692,284.680634 159.977478,295.393250 160.064240,306.802185 
	C160.095200,307.498535 160.207062,307.947723 160.207062,307.947723 
	C160.207062,307.947723 160.094772,308.380768 160.060059,308.958893 
	C160.018677,310.011230 160.012039,310.485413 160.005386,310.959595 
	C157.956696,311.015106 155.908020,311.070587 153.425903,310.687134 
	C152.977554,309.774200 152.962631,309.300201 152.947723,308.826172 
	C152.947723,308.826172 152.905212,308.380737 152.904999,307.939545 
	C152.904800,307.498352 152.838104,307.040222 152.838104,307.040222 
	C152.900681,296.326965 152.963242,285.613739 153.263275,274.311432 
	C153.718536,273.519073 153.884521,273.279846 153.998703,273.004639 
	C155.390839,272.959137 156.782974,272.913666 158.693359,273.129883 
	C159.377151,273.643341 159.595261,273.835510 159.865921,273.968018 
z"/>
<path fill="#A2EBF5" opacity="1.000000" stroke="none" 
	d="
M190.104645,310.697388 
	C188.701248,309.823395 187.355057,308.941711 185.916107,307.513214 
	C191.195801,306.978607 196.568283,306.990845 202.399109,307.010681 
	C201.576843,308.017944 200.296249,309.017609 198.487701,310.361206 
	C195.360458,310.700012 192.761154,310.694855 190.104645,310.697388 
z"/>
<path fill="#402D81" opacity="1.000000" stroke="none" 
	d="
M369.484985,308.874695 
	C369.962708,309.303101 369.977112,309.775360 369.993103,310.601990 
	C361.641357,311.000397 353.287964,311.044403 344.469971,311.024414 
	C344.002991,310.521210 344.000671,310.082062 344.002014,309.313599 
	C352.344330,308.962372 360.682983,308.940491 369.484985,308.874695 
z"/>
<path fill="#402D81" opacity="1.000000" stroke="none" 
	d="
M152.484589,308.871887 
	C152.962631,309.300201 152.977554,309.774200 152.993530,310.603943 
	C144.641403,311.003143 136.288208,311.046661 127.470169,311.028351 
	C127.011398,310.488556 127.017471,310.010559 127.038422,309.174347 
	C135.376007,308.849915 143.698730,308.883728 152.484589,308.871887 
z"/>
<path fill="#402D81" opacity="1.000000" stroke="none" 
	d="
M453.482819,308.877502 
	C453.961212,309.305450 453.976593,309.777527 453.993256,310.603851 
	C446.641174,311.001556 439.287842,311.044952 431.469940,311.024353 
	C431.005341,310.512878 431.005341,310.065399 431.010834,309.282410 
	C438.350830,308.938446 445.685333,308.930023 453.482819,308.877502 
z"/>
<path fill="#402D81" opacity="1.000000" stroke="none" 
	d="
M160.469208,311.024048 
	C160.012039,310.485413 160.018677,310.011230 160.038788,309.181580 
	C165.709244,308.856934 171.366241,308.887787 177.485809,308.874695 
	C177.962738,309.303040 177.977127,309.775330 177.993103,310.601990 
	C172.307495,311.000397 166.620270,311.044434 160.469208,311.024048 
z"/>
<path fill="#402D81" opacity="1.000000" stroke="none" 
	d="
M394.463684,311.021484 
	C394.011658,310.483948 394.018036,310.011566 394.038025,309.184998 
	C398.056000,308.870087 402.060425,308.909302 406.526184,308.953430 
	C406.992249,309.403229 406.996918,309.848114 406.998108,310.626587 
	C402.970428,311.002350 398.946289,311.044464 394.463684,311.021484 
z"/>
<path fill="#402D81" opacity="1.000000" stroke="none" 
	d="
M319.640015,309.012024 
	C320.379150,309.510162 320.655762,309.963501 320.963196,310.687317 
	C317.302185,311.001068 313.610352,311.044373 309.461975,311.023865 
	C309.010193,310.499817 309.014984,310.039551 309.033447,309.234497 
	C312.423950,308.915527 315.800751,308.941345 319.640015,309.012024 
z"/>
<path fill="#402D81" opacity="1.000000" stroke="none" 
	d="
M248.541687,308.959778 
	C248.998199,309.419098 249.002411,309.860901 249.000580,310.633972 
	C245.964676,311.005920 242.934784,311.046539 239.455093,311.021759 
	C239.012146,310.483917 239.019012,310.011505 239.038757,309.184906 
	C242.064224,308.867889 245.076797,308.905060 248.541687,308.959778 
z"/>
<path fill="#402D81" opacity="1.000000" stroke="none" 
	d="
M285.511353,308.884155 
	C285.969696,309.328064 285.983765,309.794159 285.996063,310.609741 
	C283.295380,311.001038 280.596436,311.042816 277.451385,311.025757 
	C277.009674,310.489349 277.014099,310.011749 277.035736,309.175903 
	C279.724335,308.847229 282.395660,308.876770 285.511353,308.884155 
z"/>
<path fill="#402D81" opacity="1.000000" stroke="none" 
	d="
M477.416626,311.020386 
	C477.175323,310.449463 477.344635,309.942963 477.708130,309.246613 
	C479.501526,309.154266 481.100677,309.251740 482.699829,309.349213 
	C482.697479,309.821045 482.695099,310.292847 482.692749,310.764679 
	C481.070892,310.871399 479.449066,310.978119 477.416626,311.020386 
z"/>
<path fill="#402D81" opacity="1.000000" stroke="none" 
	d="
M119.571671,308.867249 
	C119.962814,309.294006 119.978996,309.771851 119.994949,310.608337 
	C118.579536,310.966919 117.164360,310.966919 115.749176,310.966919 
	C115.690910,310.497955 115.632645,310.028961 115.574379,309.559998 
	C116.781822,309.346130 117.989265,309.132263 119.571671,308.867249 
z"/>
<path fill="#402D81" opacity="1.000000" stroke="none" 
	d="
M233.687317,272.982178 
	C233.602524,273.315613 233.215820,273.598175 232.586121,273.926758 
	C232.690552,273.625610 233.037979,273.278473 233.687317,272.982178 
z"/>
<path fill="#A2EBF5" opacity="1.000000" stroke="none" 
	d="
M210.338806,285.820465 
	C210.357422,285.472137 210.562195,284.982819 210.904968,284.699768 
	C210.913986,285.193146 210.741318,285.450958 210.338806,285.820465 
z"/>
<path fill="#A2EBF5" opacity="1.000000" stroke="none" 
	d="
M160.306519,307.845581 
	C160.207062,307.947723 160.095200,307.498535 160.128540,307.269470 
	C160.453033,307.219421 160.534393,307.453766 160.306519,307.845581 
z"/>
<path fill="#A2EBF5" opacity="1.000000" stroke="none" 
	d="
M239.304382,307.846222 
	C239.204712,307.948578 239.091949,307.498566 239.125793,307.269104 
	C239.451385,307.219055 239.532852,307.453796 239.304382,307.846222 
z"/>
<path fill="#A2EBF5" opacity="1.000000" stroke="none" 
	d="
M369.731384,307.131958 
	C369.840393,307.039520 369.908051,307.498505 369.851685,307.723511 
	C369.522003,307.741669 369.464355,307.500336 369.731384,307.131958 
z"/>
<path fill="#402D81" opacity="1.000000" stroke="none" 
	d="
M120.733765,273.006317 
	C120.888474,273.277374 120.722435,273.519318 120.315857,273.843384 
	C120.241776,273.646393 120.354340,273.330292 120.733765,273.006317 
z"/>
<path fill="#402D81" opacity="1.000000" stroke="none" 
	d="
M209.267792,310.991577 
	C209.116135,310.723175 209.282288,310.483978 209.681534,310.157532 
	C209.754196,310.351868 209.644531,310.668701 209.267792,310.991577 
z"/>
<path fill="#402D81" opacity="1.000000" stroke="none" 
	d="
M145.143127,273.664795 
	C144.910629,273.779846 144.616776,273.605743 144.165985,273.227356 
	C144.366608,273.140594 144.724182,273.258118 145.143127,273.664795 
z"/>
<path fill="#A2EBF5" opacity="1.000000" stroke="none" 
	d="
M177.731339,307.132019 
	C177.840378,307.039520 177.908051,307.498505 177.851685,307.723511 
	C177.522034,307.741699 177.464371,307.500366 177.731339,307.132019 
z"/>
<path fill="#402D81" opacity="1.000000" stroke="none" 
	d="
M238.867371,273.702026 
	C238.595749,273.834381 238.378891,273.642181 238.107803,273.199982 
	C238.292007,273.150085 238.581543,273.292572 238.867371,273.702026 
z"/>
<path fill="#A2EBF5" opacity="1.000000" stroke="none" 
	d="
M152.729248,307.132446 
	C152.838104,307.040222 152.904800,307.498352 152.848877,307.722961 
	C152.520355,307.741150 152.462830,307.500183 152.729248,307.132446 
z"/>
<path fill="#A2EBF5" opacity="1.000000" stroke="none" 
	d="
M127.311066,307.844177 
	C127.212044,307.945953 127.102058,307.498413 127.134377,307.270233 
	C127.456352,307.220184 127.537483,307.453644 127.311066,307.844177 
z"/>
<path fill="#A2EBF5" opacity="1.000000" stroke="none" 
	d="
M119.724869,307.133606 
	C119.833305,307.041840 119.897949,307.498199 119.842957,307.721985 
	C119.516953,307.740143 119.459778,307.500000 119.724869,307.133606 
z"/>
<path fill="#A2EBF5" opacity="1.000000" stroke="none" 
	d="
M127.325882,296.848145 
	C127.255501,296.658661 127.363403,296.354401 127.729385,296.046509 
	C127.878220,296.309357 127.717117,296.539490 127.325882,296.848145 
z"/>
<path fill="#402D81" opacity="1.000000" stroke="none" 
	d="
M153.732178,273.010620 
	C153.884521,273.279846 153.718536,273.519073 153.317322,273.843262 
	C153.244476,273.648285 153.355072,273.332428 153.732178,273.010620 
z"/>
<path fill="#A2EBF5" opacity="1.000000" stroke="none" 
	d="
M127.887138,288.775024 
	C127.706322,288.826385 127.423782,288.690796 127.144333,288.296295 
	C127.411057,288.161926 127.623718,288.345490 127.887138,288.775024 
z"/>
<path fill="#A2EBF5" opacity="1.000000" stroke="none" 
	d="
M186.044601,279.952698 
	C186.006653,279.763672 186.186035,279.452118 186.664093,279.136841 
	C186.786758,279.423340 186.553146,279.655731 186.044601,279.952698 
z"/>
<path fill="#A2EBF5" opacity="1.000000" stroke="none" 
	d="
M177.128708,279.290100 
	C177.413742,278.981506 177.694107,279.099030 177.864014,279.715881 
	C177.603470,279.855774 177.393631,279.689423 177.128708,279.290100 
z"/>
<path fill="#A2EBF5" opacity="1.000000" stroke="none" 
	d="
M127.327332,279.845398 
	C127.256088,279.654999 127.363708,279.347412 127.731194,279.034851 
	C127.880394,279.298035 127.718773,279.530823 127.327332,279.845398 
z"/>
<path fill="#402D81" opacity="1.000000" stroke="none" 
	d="
M159.868439,273.700928 
	C159.595261,273.835510 159.377151,273.643341 159.106644,273.198090 
	C159.291443,273.147675 159.581207,273.290771 159.868439,273.700928 
z"/>
<path fill="#402D81" opacity="1.000000" stroke="none" 
	d="
M203.670929,273.647858 
	C203.791702,273.834564 203.658783,274.187775 203.334534,274.749634 
	C203.234558,274.576996 203.325882,274.195679 203.670929,273.647858 
z"/>
<path fill="#402D81" opacity="1.000000" stroke="none" 
	d="
M375.970764,273.728577 
	C375.718567,273.861267 375.472595,273.669434 375.138428,273.228882 
	C375.319000,273.172974 375.627899,273.314270 375.970764,273.728577 
z"/>
<path fill="#402D81" opacity="1.000000" stroke="none" 
	d="
M370.731567,273.012665 
	C370.882843,273.281067 370.716858,273.519104 370.318085,273.843384 
	C370.245789,273.649261 370.355438,273.333496 370.731567,273.012665 
z"/>
<path fill="#96D5E9" opacity="1.000000" stroke="none" 
	d="
M411.702881,303.521454 
	C405.183197,297.958679 403.629181,290.919556 407.274261,284.655243 
	C410.651764,278.850861 417.489990,276.346863 423.644562,278.660797 
	C430.976471,281.417389 434.502594,289.714172 431.554230,297.177582 
	C429.205872,303.122131 421.125488,308.828369 411.702881,303.521454 
z"/>
</svg>