<svg version="1.1" id="Layer_1" xmlns="http://www.w3.org/2000/svg" xmlns:xlink="http://www.w3.org/1999/xlink" x="0px" y="0px"
	 width="100%" viewBox="0 0 415 356" enable-background="new 0 0 415 356" xml:space="preserve">
<path fill="#99D9EA" opacity="1.000000" stroke="none" 
	d="
M276.000000,357.000000 
	C184.000031,357.000000 92.500053,357.000000 1.000061,357.000000 
	C1.000041,238.333389 1.000041,119.666794 1.000021,1.000141 
	C139.333237,1.000094 277.666473,1.000094 415.999756,1.000047 
	C415.999847,119.666527 415.999847,238.333054 415.999939,356.999786 
	C369.500000,357.000000 323.000000,357.000000 276.000000,357.000000 
M110.073654,198.184158 
	C105.537437,198.334045 101.001221,198.483932 96.465004,198.633804 
	C96.503563,199.369476 96.542122,200.105133 96.580673,200.840790 
	C101.278847,200.840790 105.977013,200.840790 111.446564,201.082382 
	C113.631134,201.054596 115.815704,201.026825 118.534233,200.985794 
	C118.644478,200.669113 118.754723,200.352432 118.972603,199.099442 
	C119.033501,191.386200 119.094398,183.672943 119.526031,175.679535 
	C119.740936,175.451859 119.912804,175.195328 120.651024,175.209976 
	C126.128769,182.263031 131.809387,189.170792 137.004501,196.426224 
	C139.899017,200.468658 143.292160,201.981110 148.912582,201.089371 
	C152.271851,201.051437 155.631119,201.013489 159.916000,201.145462 
	C168.612091,201.089569 177.308197,201.033661 186.897339,201.088608 
	C189.596497,201.046814 192.295654,201.005020 195.920105,201.130676 
	C203.281723,201.075165 210.643341,201.019653 218.918365,201.089966 
	C222.610489,201.046494 226.302628,201.003006 230.919998,201.127258 
	C238.281616,201.072205 245.643250,201.017151 253.934128,201.090103 
	C262.287750,201.047241 270.641388,201.004379 279.920532,201.127563 
	C287.615356,201.072235 295.310181,201.016907 303.922272,201.089050 
	C307.946503,201.046631 311.970764,201.004227 316.920410,201.128433 
	C324.615265,201.072906 332.310120,201.017395 340.934143,201.089996 
	C348.287720,201.046982 355.641296,201.003967 363.920227,201.127808 
	C371.281952,201.071472 378.643707,201.015152 386.826874,201.086731 
	C388.457336,200.954620 390.087799,200.822525 391.718292,200.690430 
	C391.706604,200.256851 391.694916,199.823257 391.683228,199.389679 
	C389.819061,199.162766 387.954895,198.935852 386.510925,198.197449 
	C391.775909,193.620819 388.933044,187.847549 389.464600,182.410355 
	C387.067657,182.410355 385.306366,182.410355 383.041443,182.410355 
	C383.041443,184.958450 383.310059,187.295593 382.945984,189.529633 
	C382.707764,190.991592 381.874054,193.091660 380.753754,193.548172 
	C375.756500,195.584579 370.659607,195.616333 366.049774,192.306259 
	C361.269012,188.873413 360.331268,183.830261 361.136139,178.493332 
	C361.904419,173.399048 365.240723,169.751144 370.223938,169.137253 
	C374.901215,168.561066 379.762573,169.479065 385.482666,169.790817 
	C385.596375,169.610214 386.450500,168.253479 387.477539,166.622101 
	C380.493744,161.307098 373.233887,160.514481 365.634033,163.614944 
	C358.319122,166.599152 354.718384,172.478287 353.995575,180.230789 
	C353.250183,188.225708 357.830383,193.655869 362.018860,198.919525 
	C354.684906,198.928055 347.350922,198.936584 340.128021,198.271896 
	C342.264984,194.938416 344.876617,191.812103 346.440674,188.228577 
	C349.761078,180.620911 348.366272,173.497101 342.318420,167.747574 
	C335.980286,161.722092 328.310120,160.137924 320.233093,163.391525 
	C312.764923,166.399841 308.576965,172.146240 307.868896,180.492615 
	C307.207947,188.283813 311.566956,193.561829 315.064209,198.946808 
	C311.055969,198.920273 307.047729,198.893738 302.975464,198.018845 
	C301.951141,197.316483 300.971497,196.102493 299.894073,196.008438 
	C296.760651,195.734894 293.560455,195.646469 290.437744,195.974335 
	C286.355347,196.403000 285.302368,194.669617 285.336731,190.872192 
	C285.417755,181.917572 285.140839,172.959702 284.937531,163.456512 
	C284.628204,163.313812 284.318848,163.171112 283.216278,162.876968 
	C282.143768,162.919479 281.071289,162.961990 279.465973,163.016800 
	C279.355225,163.332489 279.244476,163.648178 279.025665,164.900177 
	C278.962585,175.614075 278.899506,186.327988 278.619537,197.225739 
	C278.462463,197.499893 278.519714,197.739899 278.904572,198.378723 
	C278.904572,198.378723 278.946747,198.824265 278.020630,198.915756 
	C269.682556,198.937958 261.344482,198.960175 252.973480,198.237961 
	C258.453430,187.615204 256.322998,182.564133 244.855057,178.980927 
	C243.111786,178.436218 241.382935,177.843216 239.630157,177.331650 
	C236.915115,176.539246 234.421646,175.450470 234.920258,171.993759 
	C235.459549,168.255096 238.529205,167.759918 241.364182,168.097153 
	C244.883698,168.515823 248.318039,169.650497 251.962845,170.517212 
	C252.715042,169.217773 253.511490,167.841919 254.439987,166.237915 
	C248.476364,162.262405 242.431335,160.733063 235.757935,162.760239 
	C231.039459,164.193573 228.016174,167.094055 227.898483,172.390381 
	C227.779129,177.761475 229.914001,181.095261 235.125488,183.013504 
	C238.237549,184.159027 241.652328,184.661942 244.528534,186.204315 
	C246.399460,187.207626 247.546234,189.561356 249.017441,191.310074 
	C247.113754,192.572281 245.134033,194.988388 243.321365,194.868958 
	C238.828842,194.572983 234.412674,193.118103 229.255478,191.970795 
	C228.742294,192.598190 227.637589,193.948761 226.458801,195.389893 
	C227.780579,196.661514 228.843002,197.683640 229.010239,198.863144 
	C225.356552,198.870529 221.702866,198.877930 218.240479,198.218430 
	C223.793762,188.509888 221.398483,182.484436 210.648376,179.092697 
	C208.433655,178.393936 205.930237,178.083893 204.113571,176.806961 
	C202.492264,175.667389 201.636215,173.439117 200.442459,171.691284 
	C202.407745,170.456955 204.270737,168.476196 206.365845,168.189026 
	C208.662354,167.874237 211.233246,168.943237 213.576202,169.731323 
	C217.022476,170.890549 218.837723,169.706024 219.619003,166.260376 
	C213.914230,162.221329 207.894333,160.660233 201.181580,162.745239 
	C195.806915,164.414612 193.190094,167.610855 193.000061,172.735107 
	C192.805313,177.986328 195.770569,181.104324 200.269287,182.916306 
	C203.333969,184.150711 206.793396,184.559753 209.637665,186.131561 
	C211.487564,187.153870 212.549210,189.602585 213.964005,191.412231 
	C212.054062,192.657410 210.041916,195.073288 208.254303,194.917236 
	C203.788177,194.527328 199.423996,192.969727 194.609283,191.779449 
	C193.900909,192.682724 192.905396,193.952148 191.916641,195.212952 
	C193.064240,196.589600 194.009125,197.723053 194.066025,198.903366 
	C191.395691,198.869644 188.725342,198.835938 186.042862,197.969635 
	C186.359421,195.386398 184.860962,195.088867 182.756134,195.105423 
	C177.499451,195.146820 172.241379,195.012634 166.681656,194.531158 
	C166.402466,194.331924 166.123291,194.132690 165.672150,193.072586 
	C165.728760,190.737381 165.785370,188.402191 166.285095,185.809097 
	C166.516541,185.561813 166.747986,185.314529 167.908951,184.929489 
	C172.994766,184.929489 178.080582,184.929489 183.595856,184.929489 
	C183.479477,182.601089 183.401352,181.038116 183.296341,178.936996 
	C177.564087,178.936996 172.272415,178.936996 166.678802,178.522812 
	C166.400116,178.326355 166.121445,178.129898 165.671707,177.072418 
	C165.728806,174.737289 165.785919,172.402161 166.294556,169.804749 
	C166.532913,169.554962 166.771271,169.305191 167.788879,168.867249 
	C173.077789,168.710098 178.366699,168.552948 184.520752,168.408173 
	C184.742493,167.902496 184.964218,167.396820 185.380630,166.209213 
	C185.327118,165.507599 185.273605,164.805969 185.152695,163.456924 
	C184.768219,163.303955 184.383743,163.150986 183.071381,162.853348 
	C175.381012,162.901550 167.690628,162.949768 159.223282,163.129150 
	C158.973114,165.031097 158.548126,166.928833 158.502029,168.835709 
	C158.259247,178.881073 158.112076,188.928741 157.961868,199.013123 
	C157.961868,199.013123 157.980423,198.968704 157.077744,198.938889 
	C154.069443,198.901535 151.061142,198.864182 148.093750,198.380203 
	C148.093750,198.380203 148.207352,197.946350 148.405533,197.742340 
	C148.534012,197.453796 148.452942,197.220200 148.031952,196.107071 
	C147.976227,185.394165 147.920502,174.681244 147.870590,163.434494 
	C147.581009,163.291733 147.291428,163.148956 146.205551,162.870544 
	C145.133743,162.924240 144.061920,162.977936 142.435257,162.921585 
	C142.150436,163.358948 141.865631,163.796326 141.568954,165.140015 
	C141.568954,173.295288 141.568954,181.450546 141.568954,189.605820 
	C139.434433,188.647217 138.455795,187.560760 137.550476,186.416306 
	C132.092117,179.516220 126.645119,172.607132 121.206009,165.691864 
	C118.992027,162.877014 116.309982,161.900803 112.428421,163.815247 
	C112.335297,164.194077 112.242172,164.572906 112.028625,165.888275 
	C111.973457,176.270401 111.918289,186.652512 111.494537,197.290085 
	C111.277702,197.502396 111.110588,197.748474 110.073654,198.184158 
M69.932701,201.087830 
	C75.667816,201.022598 81.402931,200.957382 88.019875,201.072159 
	C90.603073,200.296188 94.732208,203.210678 95.484268,197.640137 
	C95.394302,197.306610 95.166176,197.109619 94.537178,196.275406 
	C94.624321,187.500900 94.711456,178.726379 95.263405,169.741623 
	C95.505043,169.506912 95.746681,169.272217 96.873055,168.888901 
	C99.258591,168.802719 101.644119,168.716553 104.639587,168.577515 
	C104.807732,168.028503 104.975868,167.479507 105.347916,166.232666 
	C105.291374,165.513840 105.234833,164.794998 105.126488,163.451584 
	C104.754639,163.311615 104.382790,163.171646 103.082733,162.878922 
	C94.387878,162.921341 85.693031,162.963776 76.466408,163.017349 
	C76.356979,163.332794 76.247551,163.648239 76.031639,164.773941 
	C76.070267,165.860458 76.108902,166.946991 76.140350,168.511917 
	C76.140350,168.511917 76.478653,168.850266 76.478653,168.850266 
	C76.478653,168.850266 76.956581,168.827820 77.858925,168.937561 
	C80.582718,168.997223 83.306519,169.056900 86.228401,169.468155 
	C86.392319,169.690521 86.601418,169.855682 86.968269,170.899551 
	C86.924736,179.613510 86.881210,188.327469 86.620644,197.225555 
	C86.463326,197.499908 86.520660,197.740143 86.905846,198.382401 
	C86.905846,198.382401 86.945915,198.831192 86.021172,198.919067 
	C80.364792,198.888245 74.708420,198.857422 69.094681,198.380035 
	C69.094681,198.380035 69.208267,197.946045 69.406281,197.742172 
	C69.534554,197.453766 69.453522,197.220322 69.033195,196.107269 
	C68.975090,185.392441 68.916985,174.677597 68.863998,163.435211 
	C68.577675,163.294983 68.291344,163.154755 67.178062,162.871155 
	C65.783836,162.918961 64.389610,162.966766 62.468937,163.023300 
	C62.359604,163.335083 62.250267,163.646881 62.027630,164.895111 
	C61.964020,175.610641 61.900414,186.326172 61.619911,197.225662 
	C61.462772,197.499847 61.520046,197.739944 61.905312,198.380005 
	C61.905312,198.380005 61.947906,198.826660 61.021603,198.918137 
	C52.694473,198.897964 44.367344,198.877792 36.069603,198.396622 
	C36.069603,198.396622 36.183975,197.949112 36.385101,197.742645 
	C36.514812,197.450638 36.430866,197.215302 35.994602,196.130753 
	C36.033833,193.076813 36.073063,190.022873 36.480778,186.741928 
	C36.703495,186.549545 36.871841,186.317673 37.913486,185.912796 
	C42.657623,185.912796 47.401764,185.912796 52.219200,185.912796 
	C52.219200,183.281509 52.219200,181.389587 52.219200,178.968307 
	C46.894939,178.968307 41.943119,178.968307 36.773716,178.585876 
	C36.599693,178.340820 36.376724,178.154282 35.991295,177.137573 
	C36.029213,174.749664 36.067131,172.361755 36.477173,169.734787 
	C36.702354,169.536163 36.874439,169.299011 37.920284,168.893341 
	C41.989712,168.880890 46.068062,168.696259 50.125950,168.906540 
	C53.860813,169.100067 55.366417,167.838074 54.129066,163.462677 
	C53.755512,163.315643 53.381958,163.168610 52.080872,162.866364 
	C44.720928,162.909882 37.360989,162.953415 29.467463,163.013885 
	C29.354336,163.329895 29.241209,163.645905 29.018013,164.898315 
	C28.955530,175.613510 28.893049,186.328690 28.614708,197.226593 
	C28.458700,197.499634 28.515556,197.738602 28.897514,198.372650 
	C28.897514,198.372650 28.946516,198.813568 28.197073,198.918182 
	C26.989866,199.132126 25.782658,199.346069 24.575451,199.560013 
	C24.633707,200.029526 24.691965,200.499023 24.750223,200.968536 
	C26.165054,200.968536 27.579887,200.968536 29.859241,201.136475 
	C31.907938,201.080368 33.956635,201.024261 36.935215,201.090042 
	C45.288322,201.046417 53.641434,201.002777 62.859310,201.125519 
	C64.908020,201.070068 66.956734,201.014618 69.932701,201.087830 
M339.755035,294.248230 
	C335.171997,286.323517 330.566589,278.411652 326.010345,270.471558 
	C315.488068,252.134354 304.996826,233.779343 294.475006,215.441895 
	C292.557861,212.100677 290.766907,208.944336 285.941986,208.955307 
	C234.444885,209.072556 182.947159,208.986435 131.450989,209.239426 
	C128.812057,209.252396 125.013153,211.152206 123.731834,213.334579 
	C107.891373,240.314514 92.418861,267.510468 76.289024,295.237915 
	C77.830193,295.809387 79.370888,296.879456 80.912590,296.880920 
	C165.896393,296.961487 250.880280,296.953064 335.864166,296.947784 
	C337.194458,296.947693 338.531891,296.927734 339.843750,296.751434 
	C339.970795,296.734375 339.939514,295.538940 339.755035,294.248230 
M186.061829,104.543983 
	C176.743942,120.779518 167.426071,137.015060 157.961151,153.506790 
	C191.713516,153.506790 224.729156,153.506790 258.507416,153.506790 
	C241.628647,124.179077 225.103561,95.465935 208.240524,66.165565 
	C200.719269,79.192886 193.581085,91.556694 186.061829,104.543983 
M105.824989,129.729126 
	C108.555870,137.105331 111.286758,144.481537 114.536774,153.259918 
	C115.815430,150.534454 116.506630,149.292938 116.997314,147.976700 
	C119.664436,140.822128 122.583153,133.740616 124.799652,126.446884 
	C126.054504,122.317619 128.508102,120.823792 132.360825,119.897827 
	C141.233139,117.765472 150.017441,115.263382 158.818954,112.844025 
	C160.063919,112.501808 161.205292,111.782784 163.439148,110.759842 
	C161.098190,109.832863 160.077240,109.325760 158.999405,109.017860 
	C149.421692,106.281792 139.788208,103.726410 130.288574,100.743851 
	C128.445602,100.165215 126.405693,98.251938 125.667610,96.456474 
	C122.512901,88.782333 119.831223,80.914467 116.925476,73.136505 
	C116.463089,71.898781 115.737259,70.759491 114.625084,68.578011 
	C113.451851,71.252968 112.718002,72.710457 112.161148,74.232704 
	C109.595444,81.246445 106.958313,88.237991 104.598747,95.321426 
	C103.508301,98.594940 101.775444,100.350533 98.263115,101.227715 
	C88.926620,103.559456 79.710274,106.375565 70.462685,109.056114 
	C69.228821,109.413765 68.090691,110.101723 66.908226,110.636711 
	C76.546227,114.412910 85.867821,117.511406 95.431648,119.349579 
	C101.443779,120.505112 104.468399,123.370277 105.824989,129.729126 
z"/>
<path fill="#483D8B" opacity="1.000000" stroke="none" 
	d="
M76.851494,294.650757 
	C92.418861,267.510468 107.891373,240.314514 123.731834,213.334579 
	C125.013153,211.152206 128.812057,209.252396 131.450989,209.239426 
	C182.947159,208.986435 234.444885,209.072556 285.941986,208.955307 
	C290.766907,208.944336 292.557861,212.100677 294.475006,215.441895 
	C304.996826,233.779343 315.488068,252.134354 326.010345,270.471558 
	C330.566589,278.411652 335.171997,286.323517 339.599854,294.899200 
	C338.136566,295.706451 336.828491,295.999237 335.520386,295.999573 
	C250.968399,296.021271 166.416412,296.027130 81.864464,295.962280 
	C80.193138,295.960999 78.522469,295.106964 76.851494,294.650757 
z"/>
<path fill="#483D8C" opacity="1.000000" stroke="none" 
	d="
M186.252365,104.232239 
	C193.581085,91.556694 200.719269,79.192886 208.240524,66.165565 
	C225.103561,95.465935 241.628647,124.179077 258.507416,153.506790 
	C224.729156,153.506790 191.713516,153.506790 157.961151,153.506790 
	C167.426071,137.015060 176.743942,120.779518 186.252365,104.232239 
z"/>
<path fill="#483D8B" opacity="1.000000" stroke="none" 
	d="
M105.687164,129.362778 
	C104.468399,123.370277 101.443779,120.505112 95.431648,119.349579 
	C85.867821,117.511406 76.546227,114.412910 66.908226,110.636711 
	C68.090691,110.101723 69.228821,109.413765 70.462685,109.056114 
	C79.710274,106.375565 88.926620,103.559456 98.263115,101.227715 
	C101.775444,100.350533 103.508301,98.594940 104.598747,95.321426 
	C106.958313,88.237991 109.595444,81.246445 112.161148,74.232704 
	C112.718002,72.710457 113.451851,71.252968 114.625084,68.578011 
	C115.737259,70.759491 116.463089,71.898781 116.925476,73.136505 
	C119.831223,80.914467 122.512901,88.782333 125.667610,96.456474 
	C126.405693,98.251938 128.445602,100.165215 130.288574,100.743851 
	C139.788208,103.726410 149.421692,106.281792 158.999405,109.017860 
	C160.077240,109.325760 161.098190,109.832863 163.439148,110.759842 
	C161.205292,111.782784 160.063919,112.501808 158.818954,112.844025 
	C150.017441,115.263382 141.233139,117.765472 132.360825,119.897827 
	C128.508102,120.823792 126.054504,122.317619 124.799652,126.446884 
	C122.583153,133.740616 119.664436,140.822128 116.997314,147.976700 
	C116.506630,149.292938 115.815430,150.534454 114.536774,153.259918 
	C111.286758,144.481537 108.555870,137.105331 105.687164,129.362778 
z"/>
<path fill="#483C8B" opacity="1.000000" stroke="none" 
	d="
M147.864777,163.968338 
	C147.920502,174.681244 147.976227,185.394165 148.063843,196.802734 
	C148.095749,197.498398 148.207352,197.946350 148.207352,197.946350 
	C148.207352,197.946350 148.093750,198.380203 148.059692,198.958862 
	C148.018768,200.011566 148.011871,200.485596 148.004974,200.959641 
	C143.292160,201.981110 139.899017,200.468658 137.004501,196.426224 
	C131.809387,189.170792 126.128769,182.263031 120.209145,174.854568 
	C119.563278,174.986008 119.359291,175.472855 119.155289,175.959702 
	C119.094398,183.672943 119.033501,191.386200 118.735664,199.689590 
	C118.281364,200.484024 118.115211,200.723785 118.000275,200.999054 
	C115.815704,201.026825 113.631134,201.054596 111.228836,200.594543 
	C111.339844,199.401428 111.668564,198.696167 111.984451,197.748932 
	C111.971611,197.506958 111.863121,197.034637 111.863121,197.034637 
	C111.918289,186.652512 111.973457,176.270401 112.280319,165.213394 
	C112.665833,164.187195 112.799652,163.835861 112.933472,163.484543 
	C116.309982,161.900803 118.992027,162.877014 121.206009,165.691864 
	C126.645119,172.607132 132.092117,179.516220 137.550476,186.416306 
	C138.455795,187.560760 139.434433,188.647217 141.568954,189.605820 
	C141.568954,181.450546 141.568954,173.295288 141.843948,164.527374 
	C142.409332,163.620361 142.699722,163.325989 142.990112,163.031647 
	C144.061920,162.977936 145.133743,162.924240 146.708923,163.131287 
	C147.377884,163.642883 147.595383,163.834991 147.864777,163.968338 
z"/>
<path fill="#483D8D" opacity="1.000000" stroke="none" 
	d="
M315.986938,198.956604 
	C311.566956,193.561829 307.207947,188.283813 307.868896,180.492615 
	C308.576965,172.146240 312.764923,166.399841 320.233093,163.391525 
	C328.310120,160.137924 335.980286,161.722092 342.318420,167.747574 
	C348.366272,173.497101 349.761078,180.620911 346.440674,188.228577 
	C344.876617,191.812103 342.264984,194.938416 340.066589,198.944611 
	C340.005096,200.065506 340.005035,200.513687 340.004974,200.961884 
	C332.310120,201.017395 324.615265,201.072906 316.461121,200.710938 
	C315.996887,199.847824 315.991913,199.402222 315.986938,198.956604 
M329.174988,195.773605 
	C330.901550,195.194229 332.724762,194.807846 334.337036,194.000305 
	C339.762146,191.283035 342.491425,185.098846 341.208740,178.809067 
	C339.944214,172.608124 335.311157,168.374329 329.244415,167.875732 
	C323.180817,167.377380 317.415924,170.794373 315.433258,176.458176 
	C312.308472,185.384628 317.111908,195.243179 329.174988,195.773605 
z"/>
<path fill="#483D8C" opacity="1.000000" stroke="none" 
	d="
M386.005432,200.958832 
	C378.643707,201.015152 371.281952,201.071472 363.456482,200.689087 
	C362.976715,199.776993 362.960663,199.303619 362.944580,198.830231 
	C357.830383,193.655869 353.250183,188.225708 353.995575,180.230789 
	C354.718384,172.478287 358.319122,166.599152 365.634033,163.614944 
	C373.233887,160.514481 380.493744,161.307098 387.477539,166.622101 
	C386.450500,168.253479 385.596375,169.610214 385.482666,169.790817 
	C379.762573,169.479065 374.901215,168.561066 370.223938,169.137253 
	C365.240723,169.751144 361.904419,173.399048 361.136139,178.493332 
	C360.331268,183.830261 361.269012,188.873413 366.049774,192.306259 
	C370.659607,195.616333 375.756500,195.584579 380.753754,193.548172 
	C381.874054,193.091660 382.707764,190.991592 382.945984,189.529633 
	C383.310059,187.295593 383.041443,184.958450 383.041443,182.410355 
	C385.306366,182.410355 387.067657,182.410355 389.464600,182.410355 
	C388.933044,187.847549 391.775909,193.620819 386.278717,198.827866 
	C386.032806,199.958466 386.019135,200.458633 386.005432,200.958832 
z"/>
<path fill="#483E8D" opacity="1.000000" stroke="none" 
	d="
M194.953979,198.856491 
	C194.009125,197.723053 193.064240,196.589600 191.916641,195.212952 
	C192.905396,193.952148 193.900909,192.682724 194.609283,191.779449 
	C199.423996,192.969727 203.788177,194.527328 208.254303,194.917236 
	C210.041916,195.073288 212.054062,192.657410 213.964005,191.412231 
	C212.549210,189.602585 211.487564,187.153870 209.637665,186.131561 
	C206.793396,184.559753 203.333969,184.150711 200.269287,182.916306 
	C195.770569,181.104324 192.805313,177.986328 193.000061,172.735107 
	C193.190094,167.610855 195.806915,164.414612 201.181580,162.745239 
	C207.894333,160.660233 213.914230,162.221329 219.619003,166.260376 
	C218.837723,169.706024 217.022476,170.890549 213.576202,169.731323 
	C211.233246,168.943237 208.662354,167.874237 206.365845,168.189026 
	C204.270737,168.476196 202.407745,170.456955 200.442459,171.691284 
	C201.636215,173.439117 202.492264,175.667389 204.113571,176.806961 
	C205.930237,178.083893 208.433655,178.393936 210.648376,179.092697 
	C221.398483,182.484436 223.793762,188.509888 218.129883,198.898041 
	C218.014511,200.039810 218.009735,200.501968 218.004959,200.964142 
	C210.643341,201.019653 203.281723,201.075165 195.459396,200.695831 
	C194.983795,199.792816 194.968887,199.324646 194.953979,198.856491 
z"/>
<path fill="#483D8D" opacity="1.000000" stroke="none" 
	d="
M253.004868,200.962097 
	C245.643250,201.017151 238.281616,201.072205 230.452103,200.667419 
	C229.957947,199.706970 229.931686,199.206375 229.905426,198.705765 
	C228.843002,197.683640 227.780579,196.661514 226.458801,195.389893 
	C227.637589,193.948761 228.742294,192.598190 229.255478,191.970795 
	C234.412674,193.118103 238.828842,194.572983 243.321365,194.868958 
	C245.134033,194.988388 247.113754,192.572281 249.017441,191.310074 
	C247.546234,189.561356 246.399460,187.207626 244.528534,186.204315 
	C241.652328,184.661942 238.237549,184.159027 235.125488,183.013504 
	C229.914001,181.095261 227.779129,177.761475 227.898483,172.390381 
	C228.016174,167.094055 231.039459,164.193573 235.757935,162.760239 
	C242.431335,160.733063 248.476364,162.262405 254.439987,166.237915 
	C253.511490,167.841919 252.715042,169.217773 251.962845,170.517212 
	C248.318039,169.650497 244.883698,168.515823 241.364182,168.097153 
	C238.529205,167.759918 235.459549,168.255096 234.920258,171.993759 
	C234.421646,175.450470 236.915115,176.539246 239.630157,177.331650 
	C241.382935,177.843216 243.111786,178.436218 244.855057,178.980927 
	C256.322998,182.564133 258.453430,187.615204 252.985779,198.940094 
	C253.000351,200.082184 253.002609,200.522141 253.004868,200.962097 
z"/>
<path fill="#4B448F" opacity="1.000000" stroke="none" 
	d="
M165.841980,186.066986 
	C165.785370,188.402191 165.728760,190.737381 165.788223,193.805237 
	C166.264160,194.674896 166.624008,194.811905 166.983871,194.948914 
	C172.241379,195.012634 177.499451,195.146820 182.756134,195.105423 
	C184.860962,195.088867 186.359421,195.386398 186.029587,198.748444 
	C186.012299,200.010757 186.008286,200.494263 186.004288,200.977753 
	C177.308197,201.033661 168.612091,201.089569 159.341125,200.802856 
	C158.504318,199.963058 158.242371,199.465881 157.980423,198.968704 
	C157.980423,198.968704 157.961868,199.013123 158.323059,198.860260 
	C159.125488,197.056213 159.929962,195.409119 159.948624,193.753159 
	C160.064072,183.502533 160.002823,173.249939 160.000259,162.997986 
	C167.690628,162.949768 175.381012,162.901550 183.694977,163.153671 
	C184.619095,163.670776 184.919586,163.887573 185.220093,164.104355 
	C185.273605,164.805969 185.327118,165.507599 184.995697,166.764618 
	C184.292374,167.678604 183.973984,168.037186 183.655609,168.395782 
	C178.366699,168.552948 173.077789,168.710098 167.092743,168.973846 
	C166.212082,169.409302 166.027542,169.738174 165.843018,170.067032 
	C165.785919,172.402161 165.728806,174.737289 165.786865,177.803955 
	C166.261581,178.669327 166.621170,178.803162 166.980743,178.936996 
	C172.272415,178.936996 177.564087,178.936996 183.296341,178.936996 
	C183.401352,181.038116 183.479477,182.601089 183.595856,184.929489 
	C178.080582,184.929489 172.994766,184.929489 167.143097,185.013153 
	C166.198837,185.420212 166.020401,185.743607 165.841980,186.066986 
z"/>
<path fill="#4A418D" opacity="1.000000" stroke="none" 
	d="
M36.105045,169.973846 
	C36.067131,172.361755 36.029213,174.749664 36.049545,177.847626 
	C36.402302,178.694565 36.696800,178.831436 36.991299,178.968307 
	C41.943119,178.968307 46.894939,178.968307 52.219200,178.968307 
	C52.219200,181.389587 52.219200,183.281509 52.219200,185.912796 
	C47.401764,185.912796 42.657623,185.912796 37.188049,185.984192 
	C36.345837,186.360031 36.229061,186.664490 36.112289,186.968933 
	C36.073063,190.022873 36.033833,193.076813 36.030815,196.814362 
	C36.067024,197.497986 36.183975,197.949112 36.183975,197.949112 
	C36.183975,197.949112 36.069603,198.396622 36.042686,198.978775 
	C36.012291,200.029999 36.008812,200.499084 36.005333,200.968155 
	C33.956635,201.024261 31.907938,201.080368 29.427673,200.693207 
	C28.979576,199.771149 28.963047,199.292358 28.946516,198.813568 
	C28.946516,198.813568 28.897514,198.372650 28.895803,197.935333 
	C28.894093,197.498016 28.830566,197.043884 28.830566,197.043884 
	C28.893049,186.328690 28.955530,175.613510 29.260605,164.311584 
	C29.723717,163.519562 29.889666,163.276917 30.001045,162.996933 
	C37.360989,162.953415 44.720928,162.909882 52.698990,163.164154 
	C53.606804,163.672211 53.896496,163.882492 54.186195,164.092758 
	C55.366417,167.838074 53.860813,169.100067 50.125950,168.906540 
	C46.068062,168.696259 41.989712,168.880890 37.190079,168.965836 
	C36.341595,169.350174 36.223320,169.662003 36.105045,169.973846 
z"/>
<path fill="#483C8B" opacity="1.000000" stroke="none" 
	d="
M86.945915,198.831192 
	C86.945915,198.831192 86.905846,198.382401 86.905045,197.940338 
	C86.904243,197.498291 86.837677,197.041428 86.837677,197.041428 
	C86.881210,188.327469 86.924736,179.613510 86.917526,170.183472 
	C86.692047,169.102264 86.413216,168.985321 86.030312,169.116562 
	C83.306519,169.056900 80.582718,168.997223 77.304962,168.719940 
	C76.587357,168.297791 76.386200,168.141510 76.147537,168.033508 
	C76.108902,166.946991 76.070267,165.860458 76.267075,164.247650 
	C76.718941,163.518463 76.884163,163.280075 76.998177,163.006195 
	C85.693031,162.963776 94.387878,162.921341 103.701630,163.169754 
	C104.606445,163.665787 104.892365,163.870987 105.178291,164.076172 
	C105.234833,164.794998 105.291374,165.513840 105.031624,166.736771 
	C104.486771,167.704041 104.258209,168.167221 104.029655,168.630386 
	C101.644119,168.716553 99.258591,168.802719 96.136383,168.963684 
	C95.199341,169.342941 94.998970,169.647400 94.798599,169.951874 
	C94.711456,178.726379 94.624321,187.500900 94.736694,196.955688 
	C95.104858,197.744980 95.273521,197.853958 95.442192,197.962952 
	C94.732208,203.210678 90.603073,200.296188 87.542870,200.464569 
	C87.025887,199.515060 86.985901,199.173126 86.945915,198.831192 
z"/>
<path fill="#483D8B" opacity="1.000000" stroke="none" 
	d="
M303.005005,200.961578 
	C295.310181,201.016907 287.615356,201.072235 279.456696,200.688217 
	C278.977478,199.774002 278.962128,199.299133 278.946747,198.824265 
	C278.946747,198.824265 278.904572,198.378723 278.903473,197.938477 
	C278.902374,197.498230 278.836395,197.041885 278.836395,197.041885 
	C278.899506,186.327988 278.962585,175.614075 279.263306,164.311325 
	C279.718719,163.519089 279.884674,163.279770 279.998779,163.004486 
	C281.071289,162.961990 282.143768,162.919479 283.741272,163.151306 
	C284.473175,163.670303 284.720673,163.862793 285.008698,164.003143 
	C285.140839,172.959702 285.417755,181.917572 285.336731,190.872192 
	C285.302368,194.669617 286.355347,196.403000 290.437744,195.974335 
	C293.560455,195.646469 296.760651,195.734894 299.894073,196.008438 
	C300.971497,196.102493 301.951141,197.316483 302.996216,198.792023 
	C303.013000,200.030655 303.009003,200.496124 303.005005,200.961578 
z"/>
<path fill="#3E4BD1" opacity="1.000000" stroke="none" 
	d="
M76.570259,294.944336 
	C78.522469,295.106964 80.193138,295.960999 81.864464,295.962280 
	C166.416412,296.027130 250.968399,296.021271 335.520386,295.999573 
	C336.828491,295.999237 338.136566,295.706451 339.713196,295.220337 
	C339.939514,295.538940 339.970795,296.734375 339.843750,296.751434 
	C338.531891,296.927734 337.194458,296.947693 335.864166,296.947784 
	C250.880280,296.953064 165.896393,296.961487 80.912590,296.880920 
	C79.370888,296.879456 77.830193,295.809387 76.570259,294.944336 
z"/>
<path fill="#483D8B" opacity="1.000000" stroke="none" 
	d="
M68.858871,163.962769 
	C68.916985,174.677597 68.975090,185.392441 69.065094,196.802826 
	C69.097000,197.498367 69.208267,197.946045 69.208267,197.946045 
	C69.208267,197.946045 69.094681,198.380035 69.059952,198.958618 
	C69.018631,200.011200 69.012039,200.485168 69.005447,200.959152 
	C66.956734,201.014618 64.908020,201.070068 62.425896,200.686798 
	C61.977619,199.774277 61.962761,199.300476 61.947906,198.826660 
	C61.947906,198.826660 61.905312,198.380005 61.904160,197.939117 
	C61.903008,197.498245 61.836807,197.041702 61.836807,197.041702 
	C61.900414,186.326172 61.964020,175.610641 62.266575,164.309540 
	C62.720253,163.523041 62.883541,163.286575 62.995384,163.014557 
	C64.389610,162.966766 65.783836,162.918961 67.694641,163.134094 
	C68.373192,163.647339 68.589081,163.835907 68.858871,163.962769 
z"/>
<path fill="#433486" opacity="1.000000" stroke="none" 
	d="
M159.611771,163.063568 
	C160.002823,173.249939 160.064072,183.502533 159.948624,193.753159 
	C159.929962,195.409119 159.125488,197.056213 158.307983,198.841522 
	C158.112076,188.928741 158.259247,178.881073 158.502029,168.835709 
	C158.548126,166.928833 158.973114,165.031097 159.611771,163.063568 
z"/>
<path fill="#402E82" opacity="1.000000" stroke="none" 
	d="
M278.483704,198.870010 
	C278.962128,199.299133 278.977478,199.774002 278.993958,200.605194 
	C270.641388,201.004379 262.287750,201.047241 253.469498,201.026093 
	C253.002609,200.522141 253.000351,200.082184 253.002243,199.312317 
	C261.344482,198.960175 269.682556,198.937958 278.483704,198.870010 
z"/>
<path fill="#402D81" opacity="1.000000" stroke="none" 
	d="
M61.484756,198.872406 
	C61.962761,199.300476 61.977619,199.774277 61.993507,200.603622 
	C53.641434,201.002777 45.288322,201.046417 36.470276,201.029099 
	C36.008812,200.499084 36.012291,200.029999 36.027992,199.209259 
	C44.367344,198.877792 52.694473,198.897964 61.484756,198.872406 
z"/>
<path fill="#402E82" opacity="1.000000" stroke="none" 
	d="
M362.481750,198.874878 
	C362.960663,199.303619 362.976715,199.776993 362.993835,200.605667 
	C355.641296,201.003967 348.287720,201.046982 340.469543,201.025940 
	C340.005035,200.513687 340.005096,200.065506 340.011078,199.281219 
	C347.350922,198.936584 354.684906,198.928055 362.481750,198.874878 
z"/>
<path fill="#402D81" opacity="1.000000" stroke="none" 
	d="
M69.469070,201.023499 
	C69.012039,200.485168 69.018631,200.011200 69.038628,199.181915 
	C74.708420,198.857422 80.364792,198.888245 86.483543,198.875122 
	C86.985901,199.173126 87.025887,199.515060 87.101959,200.374573 
	C81.402931,200.957382 75.667816,201.022598 69.469070,201.023499 
z"/>
<path fill="#402D81" opacity="1.000000" stroke="none" 
	d="
M111.997292,197.990906 
	C111.668564,198.696167 111.339844,199.401428 110.843147,200.473740 
	C105.977013,200.840790 101.278847,200.840790 96.580673,200.840790 
	C96.542122,200.105133 96.503563,199.369476 96.465004,198.633804 
	C101.001221,198.483932 105.537437,198.334045 110.786858,198.161591 
	C111.665810,198.089645 111.831551,198.040268 111.997292,197.990906 
z"/>
<path fill="#402E82" opacity="1.000000" stroke="none" 
	d="
M303.463623,201.025314 
	C303.009003,200.496124 303.013000,200.030655 303.028259,199.216217 
	C307.047729,198.893738 311.055969,198.920273 315.525574,198.951706 
	C315.991913,199.402222 315.996887,199.847824 315.998413,200.627625 
	C311.970764,201.004227 307.946503,201.046631 303.463623,201.025314 
z"/>
<path fill="#402E82" opacity="1.000000" stroke="none" 
	d="
M229.457825,198.784454 
	C229.931686,199.206375 229.957947,199.706970 229.989471,200.583557 
	C226.302628,201.003006 222.610489,201.046494 218.461670,201.027054 
	C218.009735,200.501968 218.014511,200.039810 218.034241,199.231476 
	C221.702866,198.877930 225.356552,198.870529 229.457825,198.784454 
z"/>
<path fill="#402E82" opacity="1.000000" stroke="none" 
	d="
M157.529083,198.953796 
	C158.242371,199.465881 158.504318,199.963058 158.878326,200.717896 
	C155.631119,201.013489 152.271851,201.051437 148.458771,201.024506 
	C148.011871,200.485596 148.018768,200.011566 148.039246,199.182175 
	C151.061142,198.864182 154.069443,198.901535 157.529083,198.953796 
z"/>
<path fill="#402E82" opacity="1.000000" stroke="none" 
	d="
M186.450806,201.033173 
	C186.008286,200.494263 186.012299,200.010757 186.035660,199.164749 
	C188.725342,198.835938 191.395691,198.869644 194.510010,198.879929 
	C194.968887,199.324646 194.983795,199.792816 194.996750,200.612091 
	C192.295654,201.005020 189.596497,201.046814 186.450806,201.033173 
z"/>
<path fill="#402E82" opacity="1.000000" stroke="none" 
	d="
M386.416168,201.022766 
	C386.019135,200.458633 386.032806,199.958466 386.068604,199.083618 
	C387.954895,198.935852 389.819061,199.162766 391.683228,199.389679 
	C391.694916,199.823257 391.706604,200.256851 391.718292,200.690430 
	C390.087799,200.822525 388.457336,200.954620 386.416168,201.022766 
z"/>
<path fill="#402D81" opacity="1.000000" stroke="none" 
	d="
M28.571795,198.865875 
	C28.963047,199.292358 28.979576,199.771149 28.995413,200.609238 
	C27.579887,200.968536 26.165054,200.968536 24.750223,200.968536 
	C24.691965,200.499023 24.633707,200.029526 24.575451,199.560013 
	C25.782658,199.346069 26.989866,199.132126 28.571795,198.865875 
z"/>
<path fill="#402D81" opacity="1.000000" stroke="none" 
	d="
M104.334625,168.603943 
	C104.258209,168.167221 104.486771,167.704041 104.929672,167.085693 
	C104.975868,167.479507 104.807732,168.028503 104.334625,168.603943 
z"/>
<path fill="#A3ECF5" opacity="1.000000" stroke="none" 
	d="
M119.340668,175.819611 
	C119.359291,175.472855 119.563278,174.986008 119.904449,174.704559 
	C119.912804,175.195328 119.740936,175.451859 119.340668,175.819611 
z"/>
<path fill="#402D81" opacity="1.000000" stroke="none" 
	d="
M142.712677,162.976608 
	C142.699722,163.325989 142.409332,163.620361 141.849884,164.074219 
	C141.865631,163.796326 142.150436,163.358948 142.712677,162.976608 
z"/>
<path fill="#A1E8F2" opacity="1.000000" stroke="none" 
	d="
M95.463226,197.801544 
	C95.273521,197.853958 95.104858,197.744980 94.868042,197.342575 
	C95.166176,197.109619 95.394302,197.306610 95.463226,197.801544 
z"/>
<path fill="#A3ECF5" opacity="1.000000" stroke="none" 
	d="
M86.729156,197.133484 
	C86.837677,197.041428 86.904243,197.498291 86.848434,197.722290 
	C86.520660,197.740143 86.463326,197.499908 86.729156,197.133484 
z"/>
<path fill="#A3ECF5" opacity="1.000000" stroke="none" 
	d="
M61.728359,197.133682 
	C61.836807,197.041702 61.903008,197.498245 61.847374,197.722092 
	C61.520046,197.739944 61.462772,197.499847 61.728359,197.133682 
z"/>
<path fill="#A3ECF5" opacity="1.000000" stroke="none" 
	d="
M69.307274,197.844116 
	C69.208267,197.946045 69.097000,197.498367 69.130096,197.270111 
	C69.453522,197.220322 69.534554,197.453766 69.307274,197.844116 
z"/>
<path fill="#A1E8F2" opacity="1.000000" stroke="none" 
	d="
M166.832764,194.740036 
	C166.624008,194.811905 166.264160,194.674896 165.874207,194.235657 
	C166.123291,194.132690 166.402466,194.331924 166.832764,194.740036 
z"/>
<path fill="#A1E8F2" opacity="1.000000" stroke="none" 
	d="
M111.984451,197.748932 
	C111.831551,198.040268 111.665810,198.089645 111.246620,198.083679 
	C111.110588,197.748474 111.277702,197.502396 111.678833,197.162354 
	C111.863121,197.034637 111.971611,197.506958 111.984451,197.748932 
z"/>
<path fill="#A3ECF5" opacity="1.000000" stroke="none" 
	d="
M148.306442,197.844345 
	C148.207352,197.946350 148.095749,197.498398 148.129028,197.269974 
	C148.452942,197.220200 148.534012,197.453796 148.306442,197.844345 
z"/>
<path fill="#A3ECF5" opacity="1.000000" stroke="none" 
	d="
M278.727966,197.133820 
	C278.836395,197.041885 278.902374,197.498230 278.846863,197.721985 
	C278.519714,197.739899 278.462463,197.499893 278.727966,197.133820 
z"/>
<path fill="#402D81" opacity="1.000000" stroke="none" 
	d="
M118.267258,200.992432 
	C118.115211,200.723785 118.281364,200.484024 118.681847,200.157745 
	C118.754723,200.352432 118.644478,200.669113 118.267258,200.992432 
z"/>
<path fill="#402D81" opacity="1.000000" stroke="none" 
	d="
M54.157631,163.777710 
	C53.896496,163.882492 53.606804,163.672211 53.162758,163.241760 
	C53.381958,163.168610 53.755512,163.315643 54.157631,163.777710 
z"/>
<path fill="#402D81" opacity="1.000000" stroke="none" 
	d="
M29.734253,163.005402 
	C29.889666,163.276917 29.723717,163.519562 29.315639,163.843384 
	C29.241209,163.645905 29.354336,163.329895 29.734253,163.005402 
z"/>
<path fill="#A1E8F2" opacity="1.000000" stroke="none" 
	d="
M36.291107,169.854309 
	C36.223320,169.662003 36.341595,169.350174 36.726650,169.030838 
	C36.874439,169.299011 36.702354,169.536163 36.291107,169.854309 
z"/>
<path fill="#402D81" opacity="1.000000" stroke="none" 
	d="
M147.867676,163.701416 
	C147.595383,163.834991 147.377884,163.642883 147.107056,163.199097 
	C147.291428,163.148956 147.581009,163.291733 147.867676,163.701416 
z"/>
<path fill="#402D81" opacity="1.000000" stroke="none" 
	d="
M105.152390,163.763885 
	C104.892365,163.870987 104.606445,163.665787 104.165733,163.246124 
	C104.382790,163.171646 104.754639,163.311615 105.152390,163.763885 
z"/>
<path fill="#433486" opacity="1.000000" stroke="none" 
	d="
M185.186401,163.780640 
	C184.919586,163.887573 184.619095,163.670776 184.158936,163.225998 
	C184.383743,163.150986 184.768219,163.303955 185.186401,163.780640 
z"/>
<path fill="#402D81" opacity="1.000000" stroke="none" 
	d="
M279.732361,163.010651 
	C279.884674,163.279770 279.718719,163.519089 279.317322,163.843170 
	C279.244476,163.648178 279.355225,163.332489 279.732361,163.010651 
z"/>
<path fill="#402D81" opacity="1.000000" stroke="none" 
	d="
M76.732292,163.011780 
	C76.884163,163.280075 76.718941,163.518463 76.320320,163.842529 
	C76.247551,163.648239 76.356979,163.332794 76.732292,163.011780 
z"/>
<path fill="#402D81" opacity="1.000000" stroke="none" 
	d="
M284.973114,163.729828 
	C284.720673,163.862793 284.473175,163.670303 284.137878,163.227020 
	C284.318848,163.171112 284.628204,163.313812 284.973114,163.729828 
z"/>
<path fill="#3D297F" opacity="1.000000" stroke="none" 
	d="
M112.680946,163.649902 
	C112.799652,163.835861 112.665833,164.187195 112.340530,164.745117 
	C112.242172,164.572906 112.335297,164.194077 112.680946,163.649902 
z"/>
<path fill="#433486" opacity="1.000000" stroke="none" 
	d="
M184.088181,168.401978 
	C183.973984,168.037186 184.292374,167.678604 184.898361,167.105591 
	C184.964218,167.396820 184.742493,167.902496 184.088181,168.401978 
z"/>
<path fill="#402D81" opacity="1.000000" stroke="none" 
	d="
M76.143944,168.272705 
	C76.386200,168.141510 76.587357,168.297791 76.853790,168.665070 
	C76.956581,168.827820 76.478653,168.850266 76.478653,168.850266 
	C76.478653,168.850266 76.140350,168.511917 76.143944,168.272705 
z"/>
<path fill="#3D297F" opacity="1.000000" stroke="none" 
	d="
M68.861435,163.698990 
	C68.589081,163.835907 68.373192,163.647339 68.108116,163.205795 
	C68.291344,163.154755 68.577675,163.294983 68.861435,163.698990 
z"/>
<path fill="#A3ECF5" opacity="1.000000" stroke="none" 
	d="
M36.284538,197.845886 
	C36.183975,197.949112 36.067024,197.497986 36.100143,197.267319 
	C36.430866,197.215302 36.514812,197.450638 36.284538,197.845886 
z"/>
<path fill="#A3ECF5" opacity="1.000000" stroke="none" 
	d="
M86.129356,169.292358 
	C86.413216,168.985321 86.692047,169.102264 86.861244,169.715515 
	C86.601418,169.855682 86.392319,169.690521 86.129356,169.292358 
z"/>
<path fill="#A1E8F2" opacity="1.000000" stroke="none" 
	d="
M95.031006,169.846741 
	C94.998970,169.647400 95.199341,169.342941 95.694016,169.037994 
	C95.746681,169.272217 95.505043,169.506912 95.031006,169.846741 
z"/>
<path fill="#A1E8F2" opacity="1.000000" stroke="none" 
	d="
M166.068787,169.935883 
	C166.027542,169.738174 166.212082,169.409302 166.703125,169.067932 
	C166.771271,169.305191 166.532913,169.554962 166.068787,169.935883 
z"/>
<path fill="#A1E8F2" opacity="1.000000" stroke="none" 
	d="
M36.882507,178.777100 
	C36.696800,178.831436 36.402302,178.694565 36.106300,178.291962 
	C36.376724,178.154282 36.599693,178.340820 36.882507,178.777100 
z"/>
<path fill="#A1E8F2" opacity="1.000000" stroke="none" 
	d="
M166.829773,178.729904 
	C166.621170,178.803162 166.261581,178.669327 165.872375,178.234467 
	C166.121445,178.129898 166.400116,178.326355 166.829773,178.729904 
z"/>
<path fill="#3D297F" opacity="1.000000" stroke="none" 
	d="
M62.732162,163.018936 
	C62.883541,163.286575 62.720253,163.523041 62.323227,163.841309 
	C62.250267,163.646881 62.359604,163.335083 62.732162,163.018936 
z"/>
<path fill="#A1E8F2" opacity="1.000000" stroke="none" 
	d="
M166.063538,185.938049 
	C166.020401,185.743607 166.198837,185.420212 166.678345,185.082031 
	C166.747986,185.314529 166.516541,185.561813 166.063538,185.938049 
z"/>
<path fill="#A3ECF5" opacity="1.000000" stroke="none" 
	d="
M36.296532,186.855438 
	C36.229061,186.664490 36.345837,186.360031 36.724213,186.050964 
	C36.871841,186.317673 36.703495,186.549545 36.296532,186.855438 
z"/>
<path fill="#A3ECF5" opacity="1.000000" stroke="none" 
	d="
M28.722637,197.135239 
	C28.830566,197.043884 28.894093,197.498016 28.839684,197.720734 
	C28.515556,197.738602 28.458700,197.499634 28.722637,197.135239 
z"/>
<path fill="#96D5E9" opacity="1.000000" stroke="none" 
	d="
M328.782593,195.796341 
	C317.111908,195.243179 312.308472,185.384628 315.433258,176.458176 
	C317.415924,170.794373 323.180817,167.377380 329.244415,167.875732 
	C335.311157,168.374329 339.944214,172.608124 341.208740,178.809067 
	C342.491425,185.098846 339.762146,191.283035 334.337036,194.000305 
	C332.724762,194.807846 330.901550,195.194229 328.782593,195.796341 
z"/>
</svg>